# Blender v2.92.0 OBJ File: 'marscity.blend'
# www.blender.org
mtllib blvd_kfcn.mtl
o blvd_kfcn_Plane.005
v 0.800000 0.000000 -0.800000
v 0.800000 0.000000 -0.533333
v 0.439200 0.000000 -0.800000
v 0.439200 0.000000 -0.533333
v 0.439200 0.016000 -0.800000
v 0.439200 0.016000 -0.533333
v 0.360800 0.000000 -0.800000
v 0.360800 0.000000 -0.533333
v 0.360800 0.016000 -0.800000
v 0.360800 0.016000 -0.533333
v -0.360800 0.000000 -0.800000
v -0.360800 0.000000 -0.533333
v -0.360800 0.016000 -0.533333
v -0.360800 0.016000 -0.800000
v -0.439200 0.000000 -0.800000
v -0.439200 0.000000 -0.533333
v -0.439200 0.016000 -0.800000
v -0.439200 0.016000 -0.533333
v -0.800000 0.000000 -0.800000
v -0.800000 0.000000 -0.533333
v 0.800000 0.000000 -0.533333
v -0.800000 0.000000 -0.533333
v 0.800000 0.000000 0.800001
v -0.800000 0.000000 0.800001
v 0.368000 0.016000 -0.541236
v 0.389949 0.025408 -0.566056
v 0.368000 0.016000 -0.605236
v 0.389949 0.025408 -0.580415
v 0.432000 0.016000 -0.541236
v 0.410051 0.025408 -0.566056
v 0.432000 0.016000 -0.605236
v 0.410051 0.025408 -0.580415
v 0.368000 0.025408 -0.541236
v 0.368000 0.025408 -0.605236
v 0.432000 0.025408 -0.605236
v 0.432000 0.025408 -0.541236
v 0.389949 0.415291 -0.566056
v 0.389949 0.415291 -0.580415
v 0.410051 0.415291 -0.580415
v 0.410051 0.415291 -0.566056
v 0.120992 0.362595 -0.566056
v 0.120992 0.410595 -0.566056
v 0.120992 0.362595 -0.580415
v 0.120992 0.410595 -0.580415
v 0.352992 0.362595 -0.566056
v 0.352992 0.410595 -0.566056
v 0.352992 0.362595 -0.580415
v 0.352992 0.410595 -0.580415
v 0.120992 0.372195 -0.566056
v 0.120992 0.400995 -0.566056
v 0.120992 0.400995 -0.580415
v 0.120992 0.372195 -0.580415
v 0.352992 0.402595 -0.580415
v 0.352992 0.370595 -0.580415
v 0.352992 0.402595 -0.566056
v 0.352992 0.370595 -0.566056
v 0.383926 0.370595 -0.580415
v 0.383926 0.362595 -0.580415
v 0.383926 0.362595 -0.566056
v 0.383926 0.410595 -0.580415
v 0.383926 0.410595 -0.566056
v 0.383926 0.370595 -0.566056
v 0.383926 0.402595 -0.580415
v 0.383926 0.402595 -0.566056
v 0.022833 0.362595 -0.580415
v 0.022833 0.362595 -0.566056
v 0.022833 0.410595 -0.566056
v 0.022833 0.410595 -0.580415
v 0.031633 0.400995 -0.580415
v 0.031633 0.372195 -0.580415
v 0.031633 0.400995 -0.566056
v 0.031633 0.372195 -0.566056
v 0.031633 0.372574 -0.566122
v 0.031633 0.400222 -0.566122
v 0.031633 0.378933 -0.580522
v 0.031633 0.393863 -0.580522
v 0.120273 0.372574 -0.566122
v 0.120273 0.400222 -0.566122
v 0.120273 0.378933 -0.580522
v 0.120273 0.393863 -0.580522
v 0.387329 0.260663 -0.544132
v 0.412212 0.260663 -0.544132
v 0.393052 0.260663 -0.558532
v 0.406489 0.260663 -0.558532
v 0.387329 0.192118 -0.544132
v 0.412212 0.192118 -0.544132
v 0.393052 0.192118 -0.558532
v 0.406489 0.192118 -0.558532
v 0.415937 0.410530 -0.317481
v 0.415937 0.362530 -0.317481
v 0.430296 0.410530 -0.317481
v 0.430296 0.362530 -0.317481
v 0.415937 0.410530 -0.549481
v 0.415937 0.362530 -0.549481
v 0.430296 0.410530 -0.549481
v 0.430296 0.362530 -0.549481
v 0.415937 0.400930 -0.317481
v 0.415937 0.372130 -0.317481
v 0.430296 0.372130 -0.317481
v 0.430296 0.400930 -0.317481
v 0.430296 0.370530 -0.549481
v 0.430296 0.402530 -0.549481
v 0.415937 0.370530 -0.549481
v 0.415937 0.402530 -0.549481
v 0.430296 0.402530 -0.580415
v 0.430296 0.410530 -0.580415
v 0.415937 0.410530 -0.580415
v 0.430296 0.362530 -0.580415
v 0.415937 0.362530 -0.580415
v 0.415937 0.402530 -0.580415
v 0.430296 0.370530 -0.580415
v 0.415937 0.370530 -0.580415
v 0.430296 0.410530 -0.219322
v 0.415937 0.410530 -0.219322
v 0.415937 0.362530 -0.219322
v 0.430296 0.362530 -0.219322
v 0.430296 0.372130 -0.228122
v 0.430296 0.400930 -0.228122
v 0.415937 0.372130 -0.228122
v 0.415937 0.400930 -0.228122
v 0.416003 0.400551 -0.228122
v 0.416003 0.372903 -0.228122
v 0.430403 0.394192 -0.228122
v 0.430403 0.379262 -0.228122
v 0.416003 0.400551 -0.316762
v 0.416003 0.372903 -0.316762
v 0.430403 0.394192 -0.316762
v 0.430403 0.379262 -0.316762
v 0.366345 0.260663 -0.587026
v 0.366345 0.260663 -0.562142
v 0.380745 0.260663 -0.581302
v 0.380745 0.260663 -0.567865
v 0.366345 0.192118 -0.587026
v 0.366345 0.192118 -0.562142
v 0.380745 0.192118 -0.581302
v 0.380745 0.192118 -0.567865
v 0.383901 0.398012 -0.564731
v 0.383901 0.415291 -0.564731
v 0.383901 0.398012 -0.582011
v 0.383901 0.415291 -0.582011
v 0.389949 0.398012 -0.564731
v 0.389949 0.415291 -0.564731
v 0.389949 0.398012 -0.582011
v 0.389949 0.415291 -0.582011
v 0.383901 0.358012 -0.564731
v 0.383901 0.375291 -0.564731
v 0.383901 0.358012 -0.582011
v 0.383901 0.375291 -0.582011
v 0.389949 0.358012 -0.564731
v 0.389949 0.375291 -0.564731
v 0.389949 0.358012 -0.582011
v 0.389949 0.375291 -0.582011
v 0.410051 0.398012 -0.564731
v 0.410051 0.415291 -0.564731
v 0.410051 0.398012 -0.582011
v 0.410051 0.415291 -0.582011
v 0.416099 0.398012 -0.564731
v 0.416099 0.415291 -0.564731
v 0.416099 0.398012 -0.582011
v 0.416099 0.415291 -0.582011
v 0.410051 0.358012 -0.564731
v 0.410051 0.375291 -0.564731
v 0.410051 0.358012 -0.582011
v 0.410051 0.375291 -0.582011
v 0.416099 0.358012 -0.564731
v 0.416099 0.375291 -0.564731
v 0.416099 0.358012 -0.582011
v 0.416099 0.375291 -0.582011
v 0.800000 0.000000 0.133334
v 0.000000 0.000000 -0.533333
v -0.800000 0.000000 0.133334
v 0.000000 0.000000 0.800001
v 0.000000 0.000000 0.133334
vt 0.837638 0.537362
vt 0.875000 0.500000
vt 0.875000 0.750000
vt 0.662362 0.537362
vt 0.625000 0.750000
vt 0.625000 0.500000
vt 0.625000 0.250000
vt 0.458333 0.250000
vt 0.375000 0.250000
vt 0.541667 1.000000
vt 0.625000 1.000000
vt 0.375000 1.000000
vt 0.625000 1.000000
vt 0.375000 1.000000
vt 0.541667 1.000000
vt 0.375000 0.250000
vt 0.625000 0.250000
vt 0.458333 0.250000
vt 0.333333 0.166667
vt 0.333333 0.000000
vt 0.333333 0.000000
vt 0.333333 0.166667
vt 0.375000 0.500000
vt 0.375000 0.250000
vt 0.625000 0.250000
vt 0.625000 0.500000
vt 0.375000 0.000000
vt 0.625000 0.000000
vt 0.666667 0.000000
vt 0.666667 0.166667
vt 0.666667 0.166667
vt 0.666667 0.000000
vt 0.833333 0.166667
vt 0.833333 0.000000
vt 0.833333 0.000000
vt 0.833333 0.166667
vt 0.166667 0.166667
vt 0.000000 0.166667
vt 0.000000 0.000000
vt 0.166667 0.000000
vt 0.000000 0.000000
vt 0.000000 0.000000
vt 0.000000 0.000000
vt 0.000000 0.000000
vt 0.500000 0.500000
vt 1.000000 0.500000
vt 1.000000 1.000000
vt 0.500000 1.000000
vt 0.000000 0.000000
vt 0.000000 0.000000
vt 0.000000 0.000000
vt 0.000000 0.000000
vt 0.875000 0.500000
vt 0.625000 0.500000
vt 0.375000 0.500000
vt 0.125000 0.500000
vt 0.166667 0.166667
vt 0.375000 0.250000
vt 0.375000 0.000000
vt 0.625000 0.000000
vt 0.625000 0.250000
vt 0.166667 0.000000
vt 0.375000 0.500000
vt 0.375000 0.750000
vt 0.375000 1.000000
vt 0.625000 1.000000
vt 0.125000 0.750000
vt 0.125000 0.500000
vt 0.837638 0.712638
vt 0.837638 0.712638
vt 0.662362 0.712638
vt 0.662362 0.712638
vt 0.875000 0.750000
vt 0.875000 0.500000
vt 0.875000 0.750000
vt 0.625000 0.500000
vt 0.625000 0.750000
vt 0.625000 0.750000
vt 0.662362 0.537362
vt 0.837638 0.537362
vt 0.458333 0.500000
vt 0.375000 0.500000
vt 0.458333 0.500000
vt 0.541667 0.500000
vt 0.541667 0.500000
vt 0.625000 0.250000
vt 0.541667 0.250000
vt 0.541667 0.250000
vt 0.458333 0.250000
vt 0.375000 0.250000
vt 0.541667 0.750000
vt 0.541667 0.750000
vt 0.375000 0.750000
vt 0.458333 0.750000
vt 0.458333 0.750000
vt 0.375000 0.750000
vt 0.125000 0.750000
vt 0.125000 0.750000
vt 0.125000 0.500000
vt 0.458333 1.000000
vt 0.458333 1.000000
vt 0.375000 0.500000
vt 0.375000 0.250000
vt 0.625000 0.250000
vt 0.625000 0.500000
vt 0.375000 0.750000
vt 0.125000 0.750000
vt 0.125000 0.500000
vt 0.375000 0.750000
vt 0.625000 0.750000
vt 0.375000 1.000000
vt 0.625000 1.000000
vt 0.375000 0.000000
vt 0.625000 0.000000
vt 0.125000 0.750000
vt 0.125000 0.500000
vt 0.875000 0.500000
vt 0.875000 0.750000
vt 0.375000 0.500000
vt 0.375000 0.250000
vt 0.625000 0.250000
vt 0.625000 0.500000
vt 0.375000 0.750000
vt 0.625000 0.750000
vt 0.375000 1.000000
vt 0.625000 1.000000
vt 0.375000 0.250000
vt 0.375000 0.000000
vt 0.625000 0.000000
vt 0.625000 0.250000
vt 0.125000 0.750000
vt 0.125000 0.500000
vt 0.875000 0.500000
vt 0.875000 0.750000
vt 0.375000 0.500000
vt 0.625000 0.500000
vt 0.625000 0.750000
vt 0.375000 1.000000
vt 0.625000 1.000000
vt 0.375000 0.000000
vt 0.625000 0.000000
vt 0.875000 0.500000
vt 0.875000 0.750000
vt 0.375000 0.750000
vt 0.625000 0.750000
vt 0.375000 1.000000
vt 0.625000 1.000000
vt 0.375000 0.000000
vt 0.625000 0.000000
vt 0.125000 0.750000
vt 0.125000 0.500000
vt 0.875000 0.500000
vt 0.875000 0.750000
vt 0.375000 0.250000
vt 0.375000 0.000000
vt 0.625000 0.000000
vt 0.625000 0.250000
vt 0.375000 0.500000
vt 0.625000 0.500000
vt 0.375000 0.750000
vt 0.625000 0.750000
vt 0.375000 1.000000
vt 0.625000 1.000000
vt 0.125000 0.750000
vt 0.125000 0.500000
vt 0.875000 0.500000
vt 0.875000 0.750000
vt 0.375000 0.250000
vt 0.375000 0.000000
vt 0.625000 0.000000
vt 0.625000 0.250000
vt 0.375000 0.500000
vt 0.625000 0.500000
vt 0.375000 0.750000
vt 0.625000 0.750000
vt 0.375000 1.000000
vt 0.625000 1.000000
vt 0.125000 0.750000
vt 0.125000 0.500000
vt 0.875000 0.500000
vt 0.875000 0.750000
vt 0.375000 0.250000
vt 0.375000 0.000000
vt 0.625000 0.000000
vt 0.625000 0.250000
vt 0.375000 0.500000
vt 0.625000 0.500000
vt 0.375000 0.750000
vt 0.625000 0.750000
vt 0.375000 1.000000
vt 0.625000 1.000000
vt 0.125000 0.750000
vt 0.125000 0.500000
vt 0.875000 0.500000
vt 0.875000 0.750000
vt 0.375000 0.250000
vt 0.375000 0.000000
vt 0.625000 0.000000
vt 0.625000 0.250000
vt 0.375000 0.500000
vt 0.625000 0.500000
vt 0.375000 0.750000
vt 0.625000 0.750000
vt 0.375000 1.000000
vt 0.625000 1.000000
vt 0.125000 0.750000
vt 0.125000 0.500000
vt 0.875000 0.500000
vt 0.875000 0.750000
vt 0.458333 0.500000
vt 0.375000 0.500000
vt 0.375000 0.500000
vt 0.458333 0.500000
vt 0.541667 0.750000
vt 0.458333 0.750000
vt 0.541667 0.500000
vt 0.375000 0.000000
vt 0.625000 0.000000
vt 0.625000 0.750000
vt 0.541667 0.750000
vt 0.541667 0.500000
vt 0.625000 0.500000
vt 0.458333 0.750000
vt 0.375000 0.750000
vt 0.375000 0.750000
vt 0.625000 0.750000
vt 0.875000 0.750000
vt 0.875000 0.500000
vt 0.875000 0.500000
vt 0.875000 0.750000
vt 0.625000 0.500000
vt 0.125000 0.500000
vt 0.125000 0.750000
vt 0.125000 0.750000
vt 0.125000 0.500000
vt 0.541667 1.000000
vt 0.625000 1.000000
vt 0.375000 1.000000
vt 0.458333 1.000000
vt 0.541667 0.250000
vt 0.541667 1.000000
vt 0.625000 1.000000
vt 0.375000 1.000000
vt 0.458333 1.000000
vt 0.458333 0.250000
vt 0.375000 0.250000
vt 0.625000 0.250000
vt 0.541667 0.250000
vt 1.000000 0.166667
vt 1.000000 0.000000
vt 0.000000 0.500000
vt 0.000000 1.000000
vt 0.000000 0.000000
vt 0.500000 0.000000
vt 1.000000 0.000000
vn 0.0000 1.0000 0.0000
vn 1.0000 0.0000 0.0000
vn -1.0000 0.0000 0.0000
vn 0.0000 0.0000 1.0000
vn 0.0000 0.0000 -1.0000
vn 0.0000 -1.0000 0.0000
vn 0.4040 0.9148 0.0000
vn 0.0000 -0.9148 -0.4040
vn 0.0000 0.9148 -0.4040
vn -0.9293 0.0000 -0.3693
vn 0.9293 0.0000 -0.3693
vn 0.4040 -0.9148 0.0000
vn 0.3693 0.0000 -0.9293
vn 0.3693 0.0000 0.9293
usemtl MARSNULL
s off
f 28/1/1 34/2/1 33/3/1
f 32/4/1 36/5/1 35/6/1
f 116/7/2 118/8/2 113/9/2
f 119/10/3 115/11/3 114/12/3
f 67/13/4 66/14/4 71/15/4
f 65/16/5 68/17/5 70/18/5
f 10/19/3 9/20/3 7/21/3 8/22/3
f 127/23/2 123/24/2 124/25/2 128/26/2
f 114/27/4 115/28/4 116/7/4 113/9/4
f 14/29/2 13/30/2 12/31/2 11/32/2
f 18/33/3 17/34/3 15/35/3 16/36/3
f 4/37/1 2/38/1 1/39/1 3/40/1
f 9/41/5 5/42/5 3/43/5 7/44/5
f 173/45/1 171/46/1 24/47/1 172/48/1
f 17/49/5 14/50/5 11/51/5 15/52/5
f 18/33/4 16/36/4 12/31/4 13/30/4
f 92/53/2 96/54/2 95/55/2 91/56/2
f 8/22/4 4/37/4 6/57/4 10/19/4
f 27/58/3 25/59/3 33/60/3 34/61/3
f 10/19/1 6/57/1 5/62/1 9/20/1
f 31/63/5 27/58/5 34/61/5 35/6/5
f 29/64/2 31/63/2 35/6/2 36/5/2
f 25/65/4 29/64/4 36/5/4 33/66/4
f 25/67/6 27/68/6 31/63/6 29/64/6
f 37/69/4 26/70/4 30/71/4 40/72/4
f 90/73/6 92/53/6 116/74/6 115/75/6
f 36/5/1 30/71/1 26/70/1
f 28/1/1 32/4/1 35/6/1
f 33/3/1 36/5/1 26/70/1
f 28/1/1 35/6/1 34/2/1
f 33/3/1 26/70/1 28/1/1
f 108/76/6 96/54/6 94/77/6 109/78/6
f 96/54/6 92/53/6 90/73/6 94/77/6
f 40/72/1 39/79/1 38/80/1 37/69/1
f 32/4/1 30/71/1 36/5/1
f 39/79/5 32/4/5 28/1/5 38/80/5
f 40/72/2 30/71/2 32/4/2 39/79/2
f 38/80/3 28/1/3 26/70/3 37/69/3
f 105/81/2 106/82/2 95/55/2 102/83/2
f 108/76/2 111/84/2 101/85/2 96/54/2
f 116/7/2 92/86/2 117/87/2
f 92/86/2 99/88/2 117/87/2
f 100/89/2 91/90/2 118/8/2
f 91/90/2 113/9/2 118/8/2
f 116/7/2 117/87/2 118/8/2
f 112/91/3 109/78/3 94/77/3 103/92/3
f 107/93/3 110/94/3 104/95/3 93/96/3
f 110/94/6 105/81/6 102/83/6 104/95/6
f 110/94/5 107/93/5 106/82/5 105/81/5
f 109/78/5 112/91/5 111/84/5 108/76/5
f 103/92/5 104/95/5 102/83/5 101/85/5
f 91/56/1 89/97/1 114/98/1 113/99/1
f 107/93/1 93/96/1 95/55/1 106/82/1
f 93/96/1 89/97/1 91/56/1 95/55/1
f 100/89/6 118/8/6 120/100/6 97/101/6
f 79/102/5 75/103/5 76/104/5 80/105/5
f 125/106/7 121/107/7 123/108/7 127/23/7
f 77/109/2 79/102/2 80/105/2 78/110/2
f 73/111/4 77/109/4 78/110/4 74/112/4
f 123/24/4 121/113/4 122/114/4 124/25/4
f 73/115/8 75/116/8 79/102/8 77/109/8
f 78/110/9 80/105/9 76/117/9 74/118/9
f 87/119/5 83/120/5 84/121/5 88/122/5
f 85/123/6 87/119/6 88/122/6 86/124/6
f 81/125/4 85/123/4 86/124/4 82/126/4
f 131/127/1 129/128/1 130/129/1 132/130/1
f 81/131/10 83/132/10 87/119/10 85/123/10
f 86/124/11 88/122/11 84/133/11 82/134/11
f 135/135/2 131/127/2 132/130/2 136/136/2
f 125/106/5 127/23/5 128/26/5 126/137/5
f 121/138/3 125/106/3 126/137/3 122/139/3
f 83/120/1 81/140/1 82/141/1 84/121/1
f 126/137/12 128/26/12 124/142/12 122/143/12
f 90/73/3 89/97/3 93/96/3 94/77/3
f 133/144/6 135/135/6 136/136/6 134/145/6
f 129/146/3 133/144/3 134/145/3 130/147/3
f 75/103/3 73/148/3 74/149/3 76/104/3
f 129/150/13 131/151/13 135/135/13 133/144/13
f 134/145/14 136/136/14 132/152/14 130/153/14
f 139/154/3 137/155/3 138/156/3 140/157/3
f 143/158/5 139/154/5 140/157/5 144/159/5
f 141/160/2 143/158/2 144/159/2 142/161/2
f 137/162/4 141/160/4 142/161/4 138/163/4
f 137/164/6 139/165/6 143/158/6 141/160/6
f 142/161/1 144/159/1 140/166/1 138/167/1
f 147/168/3 145/169/3 146/170/3 148/171/3
f 151/172/5 147/168/5 148/171/5 152/173/5
f 149/174/2 151/172/2 152/173/2 150/175/2
f 145/176/4 149/174/4 150/175/4 146/177/4
f 145/178/6 147/179/6 151/172/6 149/174/6
f 150/175/1 152/173/1 148/180/1 146/181/1
f 155/182/3 153/183/3 154/184/3 156/185/3
f 159/186/5 155/182/5 156/185/5 160/187/5
f 157/188/2 159/186/2 160/187/2 158/189/2
f 153/190/4 157/188/4 158/189/4 154/191/4
f 153/192/6 155/193/6 159/186/6 157/188/6
f 158/189/1 160/187/1 156/194/1 154/195/1
f 163/196/3 161/197/3 162/198/3 164/199/3
f 167/200/5 163/196/5 164/199/5 168/201/5
f 165/202/2 167/200/2 168/201/2 166/203/2
f 161/204/4 165/202/4 166/203/4 162/205/4
f 161/206/6 163/207/6 167/200/6 165/202/6
f 166/203/1 168/201/1 164/208/1 162/209/1
f 57/210/5 58/211/5 47/212/5 54/213/5
f 111/84/1 112/91/1 103/92/1 101/85/1
f 55/214/2 56/215/2 54/213/2 53/216/2
f 65/16/3 66/217/3 67/218/3 68/17/3
f 61/219/2 64/220/2 63/221/2 60/222/2
f 62/223/2 59/224/2 58/211/2 57/210/2
f 62/223/1 57/210/1 54/213/1 56/215/1
f 59/224/4 62/223/4 56/215/4 45/225/4
f 64/220/4 61/219/4 46/226/4 55/214/4
f 42/227/1 44/228/1 68/229/1 67/230/1
f 60/222/1 48/231/1 46/226/1 61/219/1
f 48/231/1 44/228/1 42/227/1 46/226/1
f 60/222/5 63/221/5 53/216/5 48/231/5
f 63/221/6 64/220/6 55/214/6 53/216/6
f 43/232/6 41/233/6 66/234/6 65/235/6
f 18/33/1 13/30/1 14/29/1 17/34/1
f 119/10/3 98/236/3 90/237/3
f 114/12/3 89/238/3 120/100/3
f 89/238/3 97/101/3 120/100/3
f 119/10/3 90/237/3 115/11/3
f 114/12/3 120/100/3 119/10/3
f 7/21/1 11/32/1 12/31/1 8/22/1
f 45/225/6 41/233/6 43/232/6 47/212/6
f 59/224/6 45/225/6 47/212/6 58/211/6
f 71/15/2 72/239/2 70/18/2 69/240/2
f 50/241/4 42/242/4 71/15/4
f 42/242/4 67/13/4 71/15/4
f 66/14/4 41/243/4 72/239/4
f 41/243/4 49/244/4 72/239/4
f 66/14/4 72/239/4 71/15/4
f 52/245/5 43/246/5 70/18/5
f 43/246/5 65/16/5 70/18/5
f 68/17/5 44/247/5 69/240/5
f 44/247/5 51/248/5 69/240/5
f 68/17/5 69/240/5 70/18/5
f 52/245/1 70/18/1 72/239/1 49/244/1
f 51/248/3 52/245/3 49/244/3 50/241/3
f 50/241/6 71/15/6 69/240/6 51/248/6
f 99/88/4 100/89/4 97/101/4 98/236/4
f 98/236/1 119/10/1 117/87/1 99/88/1
f 119/10/5 120/100/5 118/8/5 117/87/5
f 42/227/4 41/233/4 45/225/4 46/226/4
f 48/231/5 47/212/5 43/232/5 44/228/5
f 20/249/1 16/36/1 15/35/1 19/250/1
f 5/62/2 6/57/2 4/37/2 3/40/2
f 169/251/1 173/45/1 172/48/1 23/252/1
f 21/253/1 170/254/1 173/45/1 169/251/1
f 170/254/1 22/255/1 171/46/1 173/45/1
