# Blender v2.92.0 OBJ File: 'marscity.blend'
# www.blender.org
mtllib blvd_kfcn.mtl
o blvd_kfcn_Plane.005
v 0.800000 0.000000 -0.533333
v -0.800000 0.000000 -0.533333
v 0.800000 0.000000 0.800001
v -0.800000 0.000000 0.800001
v 0.368000 0.016000 -0.541236
v 0.389949 0.025408 -0.566056
v 0.368000 0.016000 -0.605236
v 0.389949 0.025408 -0.580415
v 0.432000 0.016000 -0.541236
v 0.410051 0.025408 -0.566056
v 0.432000 0.016000 -0.605236
v 0.410051 0.025408 -0.580415
v 0.368000 0.025408 -0.541236
v 0.368000 0.025408 -0.605236
v 0.432000 0.025408 -0.605236
v 0.432000 0.025408 -0.541236
v 0.389949 0.415291 -0.566056
v 0.389949 0.415291 -0.580415
v 0.410051 0.415291 -0.580415
v 0.410051 0.415291 -0.566056
v 0.120992 0.362595 -0.573581
v 0.120992 0.410595 -0.573581
v 0.120992 0.362595 -0.580415
v 0.120992 0.410595 -0.580415
v 0.352992 0.362595 -0.573581
v 0.352992 0.410595 -0.573581
v 0.352992 0.362595 -0.580415
v 0.352992 0.410595 -0.580415
v 0.120992 0.372195 -0.566056
v 0.120992 0.400995 -0.566056
v 0.120992 0.400995 -0.580415
v 0.120992 0.372195 -0.580415
v 0.352992 0.402595 -0.580415
v 0.352992 0.370595 -0.580415
v 0.352992 0.402595 -0.566056
v 0.352992 0.370595 -0.566056
v 0.383926 0.370595 -0.580415
v 0.383926 0.362595 -0.580415
v 0.383926 0.362595 -0.566056
v 0.383926 0.410595 -0.580415
v 0.383926 0.410595 -0.566056
v 0.383926 0.370595 -0.566056
v 0.383926 0.402595 -0.580415
v 0.383926 0.402595 -0.566056
v 0.006833 0.362595 -0.580415
v 0.006833 0.362595 -0.566056
v 0.006833 0.410595 -0.566056
v 0.006833 0.410595 -0.580415
v 0.015633 0.400995 -0.580415
v 0.015633 0.372195 -0.580415
v 0.015633 0.400995 -0.566056
v 0.015633 0.372195 -0.566056
v 0.015633 0.372574 -0.566122
v 0.015633 0.400222 -0.566122
v 0.015633 0.378933 -0.580522
v 0.015633 0.393863 -0.580522
v 0.120273 0.372574 -0.566122
v 0.120273 0.400222 -0.566122
v 0.120273 0.378933 -0.580522
v 0.120273 0.393863 -0.580522
v 0.387329 0.264090 -0.551657
v 0.412212 0.264090 -0.551657
v 0.393052 0.264090 -0.566057
v 0.406489 0.264090 -0.566057
v 0.387329 0.188691 -0.551657
v 0.412212 0.188691 -0.551657
v 0.393052 0.188691 -0.566057
v 0.406489 0.188691 -0.566057
v 0.415937 0.410530 -0.317481
v 0.415937 0.362530 -0.317481
v 0.430296 0.410530 -0.317481
v 0.430296 0.362530 -0.317481
v 0.415937 0.410530 -0.549481
v 0.415937 0.362530 -0.549481
v 0.430296 0.410530 -0.549481
v 0.430296 0.362530 -0.549481
v 0.415937 0.400930 -0.317481
v 0.415937 0.372130 -0.317481
v 0.430296 0.372130 -0.317481
v 0.430296 0.400930 -0.317481
v 0.430296 0.370530 -0.549481
v 0.430296 0.402530 -0.549481
v 0.415937 0.370530 -0.549481
v 0.415937 0.402530 -0.549481
v 0.430296 0.402530 -0.580415
v 0.430296 0.410530 -0.580415
v 0.415937 0.410530 -0.580415
v 0.430296 0.362530 -0.580415
v 0.415937 0.362530 -0.580415
v 0.415937 0.402530 -0.580415
v 0.430296 0.370530 -0.580415
v 0.415937 0.370530 -0.580415
v 0.430296 0.410530 -0.203322
v 0.415937 0.410530 -0.203322
v 0.415937 0.362530 -0.203322
v 0.430296 0.362530 -0.203322
v 0.430296 0.372130 -0.212122
v 0.430296 0.400930 -0.212122
v 0.415937 0.372130 -0.212122
v 0.415937 0.400930 -0.212122
v 0.416003 0.400551 -0.212122
v 0.416003 0.372903 -0.212122
v 0.430403 0.394192 -0.212122
v 0.430403 0.379262 -0.212122
v 0.416003 0.400551 -0.316762
v 0.416003 0.372903 -0.316762
v 0.430403 0.394192 -0.316762
v 0.430403 0.379262 -0.316762
v 0.375549 0.264090 -0.587026
v 0.375549 0.264090 -0.562142
v 0.389949 0.264090 -0.581302
v 0.389949 0.264090 -0.567865
v 0.375549 0.188691 -0.587026
v 0.375549 0.188691 -0.562142
v 0.389949 0.188691 -0.581302
v 0.389949 0.188691 -0.567865
v 0.383901 0.398012 -0.564731
v 0.383901 0.415291 -0.564731
v 0.383901 0.398012 -0.582011
v 0.383901 0.415291 -0.582011
v 0.389949 0.398012 -0.564731
v 0.389949 0.415291 -0.564731
v 0.389949 0.398012 -0.582011
v 0.389949 0.415291 -0.582011
v 0.383901 0.358012 -0.564731
v 0.383901 0.375291 -0.564731
v 0.383901 0.358012 -0.582011
v 0.383901 0.375291 -0.582011
v 0.389949 0.358012 -0.564731
v 0.389949 0.375291 -0.564731
v 0.389949 0.358012 -0.582011
v 0.389949 0.375291 -0.582011
v 0.410051 0.398012 -0.564731
v 0.410051 0.415291 -0.564731
v 0.410051 0.398012 -0.582011
v 0.410051 0.415291 -0.582011
v 0.416099 0.398012 -0.564731
v 0.416099 0.415291 -0.564731
v 0.416099 0.398012 -0.582011
v 0.416099 0.415291 -0.582011
v 0.410051 0.358012 -0.564731
v 0.410051 0.375291 -0.564731
v 0.410051 0.358012 -0.582011
v 0.410051 0.375291 -0.582011
v 0.416099 0.358012 -0.564731
v 0.416099 0.375291 -0.564731
v 0.416099 0.358012 -0.582011
v 0.416099 0.375291 -0.582011
v 0.800000 0.000000 0.133334
v 0.000000 0.000000 -0.533333
v -0.800000 0.000000 0.133334
v 0.000000 0.000000 0.800001
v 0.000000 0.000000 0.133334
v 0.800000 0.000000 -0.199999
v -0.400000 0.000000 -0.533333
v -0.800000 0.000000 0.466668
v 0.400000 0.000000 0.800001
v 0.800000 0.000000 0.466668
v 0.400000 0.000000 -0.533333
v -0.800000 0.000000 -0.200000
v -0.400000 0.000000 0.800001
v 0.000000 0.000000 0.466668
v 0.000000 0.000000 -0.199999
v 0.400000 0.000000 0.133334
v -0.400000 0.000000 0.133334
v -0.400000 0.000000 -0.200000
v 0.400000 0.000000 -0.199999
v 0.400000 0.000000 0.466668
v -0.400000 0.000000 0.466668
v 0.800000 0.000000 -0.366666
v -0.600000 0.000000 -0.533333
v -0.800000 0.000000 0.633335
v 0.600000 0.000000 0.800001
v 0.800000 0.000000 0.300001
v 0.200000 0.000000 -0.533333
v -0.800000 0.000000 -0.033333
v -0.200000 0.000000 0.800001
v 0.000000 0.000000 0.633335
v 0.000000 0.000000 -0.033333
v 0.600000 0.000000 0.133334
v -0.200000 0.000000 0.133334
v 0.800000 0.000000 -0.033333
v -0.200000 0.000000 -0.533333
v -0.800000 0.000000 0.300001
v 0.200000 0.000000 0.800001
v 0.800000 0.000000 0.633335
v 0.600000 0.000000 -0.533333
v -0.800000 0.000000 -0.366666
v -0.600000 0.000000 0.800001
v 0.000000 0.000000 0.300001
v 0.000000 0.000000 -0.366666
v 0.200000 0.000000 0.133334
v -0.600000 0.000000 0.133334
v -0.400000 0.000000 -0.033333
v -0.400000 0.000000 -0.366666
v -0.200000 0.000000 -0.199999
v -0.600000 0.000000 -0.200000
v 0.400000 0.000000 -0.033333
v 0.400000 0.000000 -0.366666
v 0.600000 0.000000 -0.199999
v 0.200000 0.000000 -0.199999
v 0.400000 0.000000 0.633335
v 0.400000 0.000000 0.300001
v 0.600000 0.000000 0.466668
v 0.200000 0.000000 0.466668
v -0.400000 0.000000 0.633335
v -0.400000 0.000000 0.300001
v -0.200000 0.000000 0.466668
v -0.600000 0.000000 0.466668
v -0.600000 0.000000 0.300001
v -0.200000 0.000000 0.300001
v -0.200000 0.000000 0.633335
v 0.200000 0.000000 0.300001
v 0.600000 0.000000 0.300001
v 0.600000 0.000000 0.633335
v 0.200000 0.000000 -0.366666
v 0.600000 0.000000 -0.366666
v 0.600000 0.000000 -0.033333
v -0.600000 0.000000 -0.366666
v -0.200000 0.000000 -0.366666
v -0.200000 0.000000 -0.033333
v -0.600000 0.000000 -0.033333
v 0.200000 0.000000 -0.033333
v 0.200000 0.000000 0.633335
v -0.600000 0.000000 0.633335
vt 0.837638 0.537362
vt 0.875000 0.500000
vt 0.875000 0.750000
vt 0.662362 0.537362
vt 0.625000 0.750000
vt 0.625000 0.500000
vt 0.625000 0.250000
vt 0.458333 0.250000
vt 0.375000 0.250000
vt 0.541667 1.000000
vt 0.625000 1.000000
vt 0.375000 1.000000
vt 0.625000 1.000000
vt 0.375000 1.000000
vt 0.541667 1.000000
vt 0.375000 0.250000
vt 0.625000 0.250000
vt 0.458333 0.250000
vt 0.375000 0.500000
vt 0.375000 0.250000
vt 0.625000 0.250000
vt 0.625000 0.500000
vt 0.375000 0.000000
vt 0.625000 0.000000
vt 0.875000 0.500000
vt 0.625000 0.500000
vt 0.375000 0.500000
vt 0.125000 0.500000
vt 0.375000 0.250000
vt 0.375000 0.000000
vt 0.625000 0.000000
vt 0.625000 0.250000
vt 0.375000 0.500000
vt 0.375000 0.750000
vt 0.375000 1.000000
vt 0.625000 1.000000
vt 0.125000 0.750000
vt 0.125000 0.500000
vt 0.837638 0.712638
vt 0.837638 0.712638
vt 0.662362 0.712638
vt 0.662362 0.712638
vt 0.875000 0.750000
vt 0.875000 0.500000
vt 0.875000 0.750000
vt 0.625000 0.500000
vt 0.625000 0.750000
vt 0.625000 0.750000
vt 0.662362 0.537362
vt 0.837638 0.537362
vt 0.458333 0.500000
vt 0.375000 0.500000
vt 0.458333 0.500000
vt 0.541667 0.500000
vt 0.541667 0.500000
vt 0.625000 0.250000
vt 0.541667 0.250000
vt 0.541667 0.250000
vt 0.458333 0.250000
vt 0.375000 0.250000
vt 0.541667 0.750000
vt 0.541667 0.750000
vt 0.375000 0.750000
vt 0.458333 0.750000
vt 0.458333 0.750000
vt 0.375000 0.750000
vt 0.125000 0.750000
vt 0.125000 0.750000
vt 0.125000 0.500000
vt 0.458333 1.000000
vt 0.458333 1.000000
vt 0.375000 0.500000
vt 0.375000 0.250000
vt 0.625000 0.250000
vt 0.625000 0.500000
vt 0.375000 0.750000
vt 0.125000 0.750000
vt 0.125000 0.500000
vt 0.375000 0.750000
vt 0.625000 0.750000
vt 0.375000 0.000000
vt 0.625000 0.000000
vt 0.125000 0.750000
vt 0.125000 0.500000
vt 0.875000 0.500000
vt 0.875000 0.750000
vt 0.375000 0.500000
vt 0.375000 0.250000
vt 0.625000 0.250000
vt 0.625000 0.500000
vt 0.375000 0.750000
vt 0.625000 0.750000
vt 0.375000 0.250000
vt 0.375000 0.000000
vt 0.625000 0.000000
vt 0.625000 0.250000
vt 0.125000 0.750000
vt 0.125000 0.500000
vt 0.875000 0.500000
vt 0.875000 0.750000
vt 0.375000 0.500000
vt 0.625000 0.500000
vt 0.625000 0.750000
vt 0.375000 0.000000
vt 0.625000 0.000000
vt 0.875000 0.500000
vt 0.875000 0.750000
vt 0.375000 0.750000
vt 0.625000 0.750000
vt 0.375000 0.000000
vt 0.625000 0.000000
vt 0.125000 0.750000
vt 0.125000 0.500000
vt 0.875000 0.500000
vt 0.875000 0.750000
vt 0.375000 0.250000
vt 0.375000 0.000000
vt 0.625000 0.000000
vt 0.625000 0.250000
vt 0.375000 0.500000
vt 0.625000 0.500000
vt 0.375000 0.750000
vt 0.625000 0.750000
vt 0.375000 1.000000
vt 0.625000 1.000000
vt 0.125000 0.750000
vt 0.125000 0.500000
vt 0.875000 0.500000
vt 0.875000 0.750000
vt 0.375000 0.250000
vt 0.375000 0.000000
vt 0.625000 0.000000
vt 0.625000 0.250000
vt 0.375000 0.500000
vt 0.625000 0.500000
vt 0.375000 0.750000
vt 0.625000 0.750000
vt 0.375000 1.000000
vt 0.625000 1.000000
vt 0.125000 0.750000
vt 0.125000 0.500000
vt 0.875000 0.500000
vt 0.875000 0.750000
vt 0.375000 0.250000
vt 0.375000 0.000000
vt 0.625000 0.000000
vt 0.625000 0.250000
vt 0.375000 0.500000
vt 0.625000 0.500000
vt 0.375000 0.750000
vt 0.625000 0.750000
vt 0.375000 1.000000
vt 0.625000 1.000000
vt 0.125000 0.750000
vt 0.125000 0.500000
vt 0.875000 0.500000
vt 0.875000 0.750000
vt 0.375000 0.250000
vt 0.375000 0.000000
vt 0.625000 0.000000
vt 0.625000 0.250000
vt 0.375000 0.500000
vt 0.625000 0.500000
vt 0.375000 0.750000
vt 0.625000 0.750000
vt 0.375000 1.000000
vt 0.625000 1.000000
vt 0.125000 0.750000
vt 0.125000 0.500000
vt 0.875000 0.500000
vt 0.875000 0.750000
vt 0.458333 0.500000
vt 0.375000 0.500000
vt 0.375000 0.500000
vt 0.458333 0.500000
vt 0.541667 0.750000
vt 0.458333 0.750000
vt 0.541667 0.500000
vt 0.375000 0.000000
vt 0.625000 0.000000
vt 0.625000 0.750000
vt 0.541667 0.750000
vt 0.541667 0.500000
vt 0.625000 0.500000
vt 0.458333 0.750000
vt 0.375000 0.750000
vt 0.375000 0.750000
vt 0.625000 0.750000
vt 0.875000 0.750000
vt 0.875000 0.500000
vt 0.875000 0.500000
vt 0.875000 0.750000
vt 0.625000 0.500000
vt 0.125000 0.500000
vt 0.125000 0.750000
vt 0.125000 0.750000
vt 0.125000 0.500000
vt 0.541667 1.000000
vt 0.625000 1.000000
vt 0.375000 1.000000
vt 0.458333 1.000000
vt 0.541667 0.250000
vt 0.541667 1.000000
vt 0.625000 1.000000
vt 0.375000 1.000000
vt 0.458333 1.000000
vt 0.458333 0.250000
vt 0.375000 0.250000
vt 0.625000 0.250000
vt 0.541667 0.250000
vt 0.088441 0.952474
vt 0.113441 0.952474
vt 0.113441 0.972656
vt 0.088441 0.972656
vt 0.270125 0.829352
vt 1.000064 0.829352
vt 1.000064 1.002224
vt 0.270125 1.002224
vt 0.637219 0.832610
vt 0.637219 0.303216
vt 0.816994 0.303216
vt 0.816994 0.832610
vt 0.998783 1.001179
vt 0.270391 1.001179
vt 0.270391 0.829435
vt 0.998783 0.829436
vt 0.635107 0.829241
vt 0.635107 0.315096
vt 0.814201 0.315096
vt 0.814201 0.829241
vt 0.188710 0.952474
vt 0.213710 0.952474
vt 0.213710 0.972656
vt 0.188710 0.972656
vt 0.188710 0.871745
vt 0.213710 0.871745
vt 0.213710 0.891927
vt 0.188710 0.891927
vt 0.088441 0.871745
vt 0.113441 0.871745
vt 0.113441 0.891927
vt 0.088441 0.891927
vt 0.038441 0.871745
vt 0.063441 0.871745
vt 0.063441 0.891927
vt 0.038441 0.891927
vt 0.038441 0.831380
vt 0.063441 0.831380
vt 0.063441 0.851563
vt 0.038441 0.851563
vt 0.088441 0.831380
vt 0.113441 0.831380
vt 0.113441 0.851563
vt 0.088441 0.851563
vt 0.086290 0.867839
vt 0.111290 0.867839
vt 0.111290 0.888021
vt 0.086290 0.888021
vt 0.086290 0.827474
vt 0.111290 0.827474
vt 0.111290 0.847656
vt 0.086290 0.847656
vt 0.188710 0.831380
vt 0.213710 0.831380
vt 0.213710 0.851563
vt 0.188710 0.851563
vt 0.086290 0.948568
vt 0.111290 0.948568
vt 0.111290 0.968750
vt 0.086290 0.968750
vt 0.086290 0.908203
vt 0.111290 0.908203
vt 0.111290 0.928386
vt 0.086290 0.928386
vt 0.188710 0.912110
vt 0.213710 0.912110
vt 0.213710 0.932292
vt 0.188710 0.932292
vt 0.038441 0.952474
vt 0.063441 0.952474
vt 0.063441 0.972656
vt 0.038441 0.972656
vt 0.038441 0.912110
vt 0.063441 0.912110
vt 0.063441 0.932292
vt 0.038441 0.932292
vt 0.088441 0.912110
vt 0.113441 0.912110
vt 0.113441 0.932292
vt 0.088441 0.932292
vt 0.238710 0.912110
vt 0.238710 0.932292
vt 0.238710 0.891927
vt 0.238710 0.952474
vt 0.238710 0.972656
vt 0.163710 0.912110
vt 0.163710 0.932292
vt 0.163710 0.891927
vt 0.061290 0.908203
vt 0.061290 0.928386
vt 0.061290 0.888021
vt 0.061290 0.948568
vt 0.061290 0.968750
vt 0.163710 0.831380
vt 0.163710 0.851563
vt 0.163710 0.811198
vt 0.188710 0.811198
vt 0.213710 0.811198
vt 0.061290 0.827474
vt 0.061290 0.847656
vt 0.061290 0.807292
vt 0.086290 0.807292
vt 0.111290 0.807292
vt 0.061290 0.867839
vt 0.063441 0.811198
vt 0.088441 0.811198
vt 0.113441 0.811198
vt 0.238710 0.831380
vt 0.238710 0.851563
vt 0.238710 0.811198
vt 0.038441 0.811198
vt 0.238710 0.871745
vt 0.163710 0.871745
vt 0.163710 0.952474
vt 0.163710 0.972656
vn 0.0000 1.0000 0.0000
vn 1.0000 0.0000 0.0000
vn -1.0000 0.0000 0.0000
vn 0.0000 0.0000 1.0000
vn 0.0000 0.0000 -1.0000
vn 0.0000 -1.0000 0.0000
vn 0.4040 0.9148 0.0000
vn 0.0000 -0.9148 -0.4040
vn 0.0000 0.9148 -0.4040
vn -0.9293 0.0000 -0.3693
vn 0.9293 0.0000 -0.3693
vn 0.4040 -0.9148 0.0000
vn 0.3693 0.0000 -0.9293
vn 0.3693 0.0000 0.9293
vn -0.1094 -0.4230 0.8995
vn -0.1094 0.4230 0.8995
vn 0.0000 0.6169 0.7871
vn 0.0657 0.0602 0.9960
vn 0.0657 -0.0602 0.9960
vn 0.0000 -0.6169 0.7871
usemtl MARSNULL
s off
f 8/1/1 14/2/1 13/3/1
f 12/4/1 16/5/1 15/6/1
f 96/7/2 98/8/2 93/9/2
f 99/10/3 95/11/3 94/12/3
f 47/13/4 46/14/4 51/15/4
f 45/16/5 48/17/5 50/18/5
f 107/19/2 103/20/2 104/21/2 108/22/2
f 94/23/4 95/24/4 96/7/4 93/9/4
f 72/25/2 76/26/2 75/27/2 71/28/2
f 7/29/3 5/30/3 13/31/3 14/32/3
f 11/33/5 7/29/5 14/32/5 15/6/5
f 9/34/2 11/33/2 15/6/2 16/5/2
f 5/35/4 9/34/4 16/5/4 13/36/4
f 5/37/6 7/38/6 11/33/6 9/34/6
f 17/39/4 6/40/4 10/41/4 20/42/4
f 70/43/6 72/25/6 96/44/6 95/45/6
f 16/5/1 10/41/1 6/40/1
f 8/1/1 12/4/1 15/6/1
f 13/3/1 16/5/1 6/40/1
f 8/1/1 15/6/1 14/2/1
f 13/3/1 6/40/1 8/1/1
f 88/46/6 76/26/6 74/47/6 89/48/6
f 76/26/6 72/25/6 70/43/6 74/47/6
f 20/42/1 19/49/1 18/50/1 17/39/1
f 12/4/1 10/41/1 16/5/1
f 19/49/5 12/4/5 8/1/5 18/50/5
f 20/42/2 10/41/2 12/4/2 19/49/2
f 18/50/3 8/1/3 6/40/3 17/39/3
f 85/51/2 86/52/2 75/27/2 82/53/2
f 88/46/2 91/54/2 81/55/2 76/26/2
f 96/7/2 72/56/2 97/57/2
f 72/56/2 79/58/2 97/57/2
f 80/59/2 71/60/2 98/8/2
f 71/60/2 93/9/2 98/8/2
f 96/7/2 97/57/2 98/8/2
f 92/61/3 89/48/3 74/47/3 83/62/3
f 87/63/3 90/64/3 84/65/3 73/66/3
f 90/64/6 85/51/6 82/53/6 84/65/6
f 90/64/5 87/63/5 86/52/5 85/51/5
f 89/48/5 92/61/5 91/54/5 88/46/5
f 83/62/5 84/65/5 82/53/5 81/55/5
f 71/28/1 69/67/1 94/68/1 93/69/1
f 87/63/1 73/66/1 75/27/1 86/52/1
f 73/66/1 69/67/1 71/28/1 75/27/1
f 80/59/6 98/8/6 100/70/6 77/71/6
f 59/72/5 55/73/5 56/74/5 60/75/5
f 105/76/7 101/77/7 103/78/7 107/19/7
f 57/79/2 59/72/2 60/75/2 58/80/2
f 103/20/4 101/81/4 102/82/4 104/21/4
f 53/83/8 55/84/8 59/72/8 57/79/8
f 58/80/9 60/75/9 56/85/9 54/86/9
f 67/87/5 63/88/5 64/89/5 68/90/5
f 65/91/6 67/87/6 68/90/6 66/92/6
f 111/93/1 109/94/1 110/95/1 112/96/1
f 61/97/10 63/98/10 67/87/10 65/91/10
f 66/92/11 68/90/11 64/99/11 62/100/11
f 115/101/2 111/93/2 112/96/2 116/102/2
f 105/76/5 107/19/5 108/22/5 106/103/5
f 63/88/1 61/104/1 62/105/1 64/89/1
f 106/103/12 108/22/12 104/106/12 102/107/12
f 70/43/3 69/67/3 73/66/3 74/47/3
f 113/108/6 115/101/6 116/102/6 114/109/6
f 55/73/3 53/110/3 54/111/3 56/74/3
f 109/112/13 111/113/13 115/101/13 113/108/13
f 114/109/14 116/102/14 112/114/14 110/115/14
f 119/116/3 117/117/3 118/118/3 120/119/3
f 123/120/5 119/116/5 120/119/5 124/121/5
f 121/122/2 123/120/2 124/121/2 122/123/2
f 117/124/4 121/122/4 122/123/4 118/125/4
f 117/126/6 119/127/6 123/120/6 121/122/6
f 122/123/1 124/121/1 120/128/1 118/129/1
f 127/130/3 125/131/3 126/132/3 128/133/3
f 131/134/5 127/130/5 128/133/5 132/135/5
f 129/136/2 131/134/2 132/135/2 130/137/2
f 125/138/4 129/136/4 130/137/4 126/139/4
f 125/140/6 127/141/6 131/134/6 129/136/6
f 130/137/1 132/135/1 128/142/1 126/143/1
f 135/144/3 133/145/3 134/146/3 136/147/3
f 139/148/5 135/144/5 136/147/5 140/149/5
f 137/150/2 139/148/2 140/149/2 138/151/2
f 133/152/4 137/150/4 138/151/4 134/153/4
f 133/154/6 135/155/6 139/148/6 137/150/6
f 138/151/1 140/149/1 136/156/1 134/157/1
f 143/158/3 141/159/3 142/160/3 144/161/3
f 147/162/5 143/158/5 144/161/5 148/163/5
f 145/164/2 147/162/2 148/163/2 146/165/2
f 141/166/4 145/164/4 146/165/4 142/167/4
f 141/168/6 143/169/6 147/162/6 145/164/6
f 146/165/1 148/163/1 144/170/1 142/171/1
f 37/172/5 38/173/5 27/174/5 34/175/5
f 91/54/1 92/61/1 83/62/1 81/55/1
f 35/176/2 36/177/2 34/175/2 33/178/2
f 45/16/3 46/179/3 47/180/3 48/17/3
f 41/181/2 44/182/2 43/183/2 40/184/2
f 42/185/2 39/186/2 38/173/2 37/172/2
f 42/185/1 37/172/1 34/175/1 36/177/1
f 39/186/15 42/185/15 36/177/15 25/187/15
f 44/182/16 41/181/16 26/188/16 35/176/16
f 22/189/1 24/190/1 48/191/1 47/192/1
f 40/184/1 28/193/1 26/188/1 41/181/1
f 28/193/1 24/190/1 22/189/1 26/188/1
f 40/184/5 43/183/5 33/178/5 28/193/5
f 43/183/6 44/182/6 35/176/6 33/178/6
f 23/194/6 21/195/6 46/196/6 45/197/6
f 99/10/3 78/198/3 70/199/3
f 94/12/3 69/200/3 100/70/3
f 69/200/3 77/71/3 100/70/3
f 99/10/3 70/199/3 95/11/3
f 94/12/3 100/70/3 99/10/3
f 25/187/6 21/195/6 23/194/6 27/174/6
f 39/186/6 25/187/6 27/174/6 38/173/6
f 51/15/2 52/201/2 50/18/2 49/202/2
f 30/203/17 22/204/17 51/15/17
f 22/204/18 47/13/18 51/15/18
f 46/14/19 21/205/19 52/201/19
f 21/205/20 29/206/20 52/201/20
f 46/14/4 52/201/4 51/15/4
f 32/207/5 23/208/5 50/18/5
f 23/208/5 45/16/5 50/18/5
f 48/17/5 24/209/5 49/202/5
f 24/209/5 31/210/5 49/202/5
f 48/17/5 49/202/5 50/18/5
f 32/207/1 50/18/1 52/201/1 29/206/1
f 31/210/3 32/207/3 29/206/3 30/203/3
f 30/203/6 51/15/6 49/202/6 31/210/6
f 79/58/4 80/59/4 77/71/4 78/198/4
f 78/198/1 99/10/1 97/57/1 79/58/1
f 99/10/5 100/70/5 98/8/5 97/57/5
f 22/189/4 21/195/4 25/187/4 26/188/4
f 28/193/5 27/174/5 23/194/5 24/190/5
usemtl marscity.004
f 225/211/1 172/212/1 4/213/1 189/214/1
f 53/215/4 57/216/4 58/217/4 54/218/4
f 61/219/4 65/220/4 66/221/4 62/222/4
f 101/223/3 105/224/3 106/225/3 102/226/3
f 109/227/3 113/228/3 114/229/3 110/230/3
f 224/231/1 178/232/1 152/233/1 185/234/1
f 223/235/1 179/236/1 153/237/1 192/238/1
f 222/239/1 176/240/1 151/241/1 193/242/1
f 221/243/1 194/244/1 165/245/1 181/246/1
f 220/247/1 195/248/1 166/249/1 196/250/1
f 219/251/1 188/252/1 160/253/1 197/254/1
f 218/255/1 198/256/1 164/257/1 180/258/1
f 217/259/1 199/260/1 167/261/1 200/262/1
f 216/263/1 191/264/1 163/265/1 201/266/1
f 215/267/1 202/268/1 157/269/1 173/270/1
f 214/271/1 203/272/1 168/273/1 204/274/1
f 213/275/1 190/276/1 162/277/1 205/278/1
f 212/279/1 206/280/1 161/281/1 177/282/1
f 211/283/1 207/284/1 169/285/1 208/286/1
f 210/287/1 184/288/1 156/289/1 209/290/1
f 207/284/1 210/287/1 209/290/1 169/285/1
f 165/245/1 193/242/1 210/287/1 207/284/1
f 193/242/1 151/241/1 184/288/1 210/287/1
f 190/276/1 211/291/1 208/292/1 162/277/1
f 153/237/1 181/293/1 211/291/1 190/276/1
f 181/246/1 165/245/1 207/284/1 211/283/1
f 178/232/1 212/294/1 177/295/1 152/233/1
f 162/277/1 208/292/1 212/294/1 178/232/1
f 208/286/1 169/285/1 206/280/1 212/279/1
f 203/296/1 213/275/1 205/278/1 168/297/1
f 164/298/1 192/238/1 213/275/1 203/296/1
f 192/238/1 153/237/1 190/276/1 213/275/1
f 174/299/1 214/271/1 204/274/1 158/300/1
f 149/301/1 180/258/1 214/271/1 174/299/1
f 180/258/1 164/257/1 203/272/1 214/271/1
f 186/302/1 215/267/1 173/270/1 3/303/1
f 158/300/1 204/274/1 215/267/1 186/302/1
f 204/274/1 168/273/1 202/268/1 215/267/1
f 199/304/1 216/263/1 201/266/1 167/305/1
f 159/306/1 175/307/1 216/263/1 199/304/1
f 175/307/1 150/308/1 191/264/1 216/263/1
f 170/309/1 217/259/1 200/262/1 154/310/1
f 1/311/1 187/312/1 217/259/1 170/309/1
f 187/312/1 159/313/1 199/260/1 217/259/1
f 182/314/1 218/255/1 180/258/1 149/301/1
f 154/310/1 200/262/1 218/255/1 182/314/1
f 200/262/1 167/261/1 198/256/1 218/255/1
f 195/248/1 219/251/1 197/254/1 166/249/1
f 155/315/1 171/316/1 219/251/1 195/248/1
f 171/316/1 2/317/1 188/252/1 219/251/1
f 191/264/1 220/318/1 196/319/1 163/265/1
f 150/308/1 183/320/1 220/318/1 191/264/1
f 183/321/1 155/315/1 195/248/1 220/247/1
f 179/236/1 221/322/1 181/293/1 153/237/1
f 163/265/1 196/319/1 221/322/1 179/236/1
f 196/250/1 166/249/1 194/244/1 221/243/1
f 194/244/1 222/239/1 193/242/1 165/245/1
f 166/249/1 197/254/1 222/239/1 194/244/1
f 197/254/1 160/253/1 176/240/1 222/239/1
f 198/323/1 223/235/1 192/238/1 164/298/1
f 167/305/1 201/266/1 223/235/1 198/323/1
f 201/266/1 163/265/1 179/236/1 223/235/1
f 202/324/1 224/231/1 185/234/1 157/325/1
f 168/297/1 205/278/1 224/231/1 202/324/1
f 205/278/1 162/277/1 178/232/1 224/231/1
f 206/280/1 225/211/1 189/214/1 161/281/1
f 169/285/1 209/290/1 225/211/1 206/280/1
f 209/290/1 156/289/1 172/212/1 225/211/1
