# Blender v2.92.0 OBJ File: 'marscity.blend'
# www.blender.org
mtllib blvd_kfcs.mtl
o blvd_kfcs_Plane.010
v -0.360800 0.016000 -0.520078
v -0.382749 0.025408 -0.495258
v -0.360800 0.016000 -0.456078
v -0.382749 0.025408 -0.480899
v -0.424800 0.016000 -0.520078
v -0.402851 0.025408 -0.495258
v -0.424800 0.016000 -0.456078
v -0.402851 0.025408 -0.480899
v -0.360800 0.025408 -0.520078
v -0.360800 0.025408 -0.456078
v -0.424800 0.025408 -0.456078
v -0.424800 0.025408 -0.520078
v -0.382749 0.415291 -0.495258
v -0.382749 0.415291 -0.480899
v -0.402851 0.415291 -0.480899
v -0.402851 0.415291 -0.495258
v -0.113792 0.362595 -0.495257
v -0.113792 0.410595 -0.495257
v -0.113792 0.362595 -0.480899
v -0.113792 0.410595 -0.480899
v -0.345792 0.362595 -0.495257
v -0.345792 0.410595 -0.495257
v -0.345792 0.362595 -0.480899
v -0.345792 0.410595 -0.480899
v -0.113792 0.372195 -0.495257
v -0.113792 0.400995 -0.495257
v -0.113792 0.400995 -0.480899
v -0.113792 0.372195 -0.480899
v -0.345792 0.402595 -0.480899
v -0.345792 0.370595 -0.480899
v -0.345792 0.402595 -0.495257
v -0.345792 0.370595 -0.495257
v -0.376726 0.370595 -0.480899
v -0.376726 0.362595 -0.480899
v -0.376726 0.362595 -0.495257
v -0.376726 0.410595 -0.480899
v -0.376726 0.410595 -0.495257
v -0.376726 0.370595 -0.495257
v -0.376726 0.402595 -0.480899
v -0.376726 0.402595 -0.495257
v -0.015633 0.362595 -0.480899
v -0.015633 0.362595 -0.495257
v -0.015633 0.410595 -0.495257
v -0.015633 0.410595 -0.480899
v -0.024433 0.400995 -0.480899
v -0.024433 0.372195 -0.480899
v -0.024433 0.400995 -0.495257
v -0.024433 0.372195 -0.495257
v -0.024433 0.372574 -0.495192
v -0.024433 0.400222 -0.495192
v -0.024433 0.378933 -0.480792
v -0.024433 0.393863 -0.480792
v -0.113073 0.372574 -0.495192
v -0.113073 0.400222 -0.495192
v -0.113073 0.378933 -0.480792
v -0.113073 0.393863 -0.480792
v -0.380128 0.260662 -0.517182
v -0.405012 0.260662 -0.517182
v -0.385851 0.260662 -0.502782
v -0.399288 0.260662 -0.502782
v -0.380128 0.192118 -0.517182
v -0.405012 0.192118 -0.517182
v -0.385851 0.192118 -0.502782
v -0.399288 0.192118 -0.502782
v -0.408737 0.410529 -0.743833
v -0.408737 0.362530 -0.743833
v -0.423096 0.410529 -0.743833
v -0.423096 0.362530 -0.743833
v -0.408737 0.410529 -0.511833
v -0.408737 0.362530 -0.511833
v -0.423096 0.410529 -0.511833
v -0.423096 0.362530 -0.511833
v -0.408737 0.400930 -0.743833
v -0.408737 0.372130 -0.743833
v -0.423096 0.372130 -0.743833
v -0.423096 0.400930 -0.743833
v -0.423096 0.370530 -0.511833
v -0.423096 0.402529 -0.511833
v -0.408737 0.370530 -0.511833
v -0.408737 0.402529 -0.511833
v -0.423096 0.402529 -0.480899
v -0.423096 0.410529 -0.480899
v -0.408737 0.410529 -0.480899
v -0.423096 0.362530 -0.480899
v -0.408737 0.362530 -0.480899
v -0.408737 0.402529 -0.480899
v -0.423096 0.370530 -0.480899
v -0.408737 0.370530 -0.480899
v -0.423096 0.410530 -0.841992
v -0.408737 0.410530 -0.841992
v -0.408737 0.362530 -0.841992
v -0.423096 0.362530 -0.841992
v -0.423096 0.372130 -0.833192
v -0.423096 0.400930 -0.833192
v -0.408737 0.372130 -0.833192
v -0.408737 0.400930 -0.833192
v -0.408802 0.400551 -0.833192
v -0.408802 0.372903 -0.833192
v -0.423202 0.394192 -0.833192
v -0.423202 0.379262 -0.833192
v -0.408802 0.400551 -0.744552
v -0.408802 0.372903 -0.744552
v -0.423202 0.394192 -0.744552
v -0.423202 0.379262 -0.744552
v -0.385171 0.260662 -0.448181
v -0.385171 0.260662 -0.473064
v -0.399570 0.260662 -0.453904
v -0.399570 0.260662 -0.467341
v -0.385171 0.192118 -0.448181
v -0.385171 0.192118 -0.473064
v -0.399570 0.192118 -0.453904
v -0.399570 0.192118 -0.467341
v -0.376701 0.398011 -0.496583
v -0.376701 0.415291 -0.496583
v -0.376701 0.398011 -0.479303
v -0.376701 0.415291 -0.479303
v -0.382749 0.398011 -0.496583
v -0.382749 0.415291 -0.496583
v -0.382749 0.398011 -0.479303
v -0.382749 0.415291 -0.479303
v -0.376701 0.358011 -0.496583
v -0.376701 0.375291 -0.496583
v -0.376701 0.358011 -0.479303
v -0.376701 0.375291 -0.479303
v -0.382749 0.358011 -0.496583
v -0.382749 0.375291 -0.496583
v -0.382749 0.358011 -0.479303
v -0.382749 0.375291 -0.479303
v -0.402851 0.398011 -0.496583
v -0.402851 0.415291 -0.496583
v -0.402851 0.398011 -0.479303
v -0.402851 0.415291 -0.479303
v -0.408899 0.398011 -0.496583
v -0.408899 0.415291 -0.496583
v -0.408899 0.398011 -0.479303
v -0.408899 0.415291 -0.479303
v -0.402851 0.358011 -0.496583
v -0.402851 0.375291 -0.496583
v -0.402851 0.358011 -0.479303
v -0.402851 0.375291 -0.479303
v -0.408899 0.358011 -0.496583
v -0.408899 0.375291 -0.496583
v -0.408899 0.358011 -0.479303
v -0.408899 0.375291 -0.479303
v -0.800000 0.000000 0.800000
v -0.800000 0.000000 -0.800000
v -0.800000 0.000000 -0.266667
v -0.800000 0.000000 0.266667
v -0.439200 0.000000 -0.800000
v -0.439200 0.000000 0.800000
v -0.439200 0.000000 0.266667
v -0.439200 0.000000 -0.266667
v -0.439200 0.000000 0.000000
v -0.439200 0.000000 0.533333
v -0.439200 0.000000 -0.533333
v -0.439200 0.016000 0.800000
v -0.439200 0.016000 0.266667
v -0.439200 0.016000 -0.266667
v -0.439200 0.016000 0.000000
v -0.439200 0.016000 0.533333
v -0.439200 0.016000 -0.533333
v -0.360800 0.000000 0.800000
v -0.360800 0.000000 -0.800000
v -0.360800 0.000000 0.266667
v -0.360800 0.000000 -0.266667
v -0.360800 0.000000 -0.533333
v -0.360800 0.000000 0.533333
v -0.360800 0.000000 0.000000
v -0.360800 0.016000 0.800000
v -0.360800 0.016000 -0.533333
v -0.360800 0.016000 0.533333
v -0.360800 0.016000 0.266667
v -0.360800 0.016000 0.000000
v -0.360800 0.016000 -0.266667
v 0.360800 0.000000 0.800000
v 0.360800 0.000000 -0.800000
v 0.360800 0.000000 0.266667
v 0.360800 0.000000 -0.266667
v 0.360800 0.000000 -0.533333
v 0.360800 0.000000 0.533333
v 0.360800 0.000000 0.000000
v 0.360800 0.016000 -0.533333
v 0.360800 0.016000 0.533333
v 0.360800 0.016000 0.266667
v 0.360800 0.016000 0.000000
v 0.360800 0.016000 -0.266667
v 0.360800 0.016000 0.800000
v 0.439200 0.000000 0.800000
v 0.439200 0.000000 -0.800000
v 0.439200 0.000000 0.266667
v 0.439200 0.000000 -0.266667
v 0.439200 0.000000 0.000000
v 0.439200 0.000000 0.533333
v 0.439200 0.000000 -0.533333
v 0.439200 0.016000 0.266667
v 0.439200 0.016000 -0.266667
v 0.439200 0.016000 0.800000
v 0.439200 0.016000 0.000000
v 0.439200 0.016000 0.533333
v 0.439200 0.016000 -0.533333
v 0.800000 0.000000 0.800000
v 0.800000 0.000000 -0.800000
v 0.800000 0.000000 0.266667
v 0.800000 0.000000 -0.266667
vt 0.625000 1.000000
vt 0.375000 1.000000
vt 0.541667 1.000000
vt 0.375000 0.000000
vt 0.625000 0.000000
vt 0.625000 0.250000
vt 0.375000 0.250000
vt 0.625000 0.500000
vt 0.375000 0.500000
vt 0.625000 0.750000
vt 0.375000 0.750000
vt 0.625000 1.000000
vt 0.375000 1.000000
vt 0.125000 0.500000
vt 0.125000 0.750000
vt 0.837638 0.712638
vt 0.662362 0.712638
vt 0.662362 0.712638
vt 0.837638 0.712638
vt 0.837638 0.537362
vt 0.875000 0.500000
vt 0.875000 0.750000
vt 0.662362 0.537362
vt 0.662362 0.537362
vt 0.837638 0.537362
vt 0.458333 0.250000
vt 0.375000 0.250000
vt 0.625000 0.250000
vt 0.375000 0.000000
vt 0.625000 0.000000
vt 0.625000 0.250000
vt 0.375000 0.250000
vt 0.625000 0.500000
vt 0.375000 0.500000
vt 0.625000 0.750000
vt 0.375000 0.750000
vt 0.625000 1.000000
vt 0.375000 1.000000
vt 0.125000 0.500000
vt 0.125000 0.750000
vt 0.875000 0.500000
vt 0.875000 0.750000
vt 0.375000 0.000000
vt 0.625000 0.000000
vt 0.625000 0.250000
vt 0.375000 0.250000
vt 0.625000 0.500000
vt 0.375000 0.500000
vt 0.625000 0.750000
vt 0.375000 0.750000
vt 0.625000 1.000000
vt 0.375000 1.000000
vt 0.125000 0.500000
vt 0.125000 0.750000
vt 0.875000 0.500000
vt 0.875000 0.750000
vt 0.375000 0.000000
vt 0.625000 0.000000
vt 0.625000 0.250000
vt 0.375000 0.250000
vt 0.625000 0.500000
vt 0.375000 0.500000
vt 0.625000 0.750000
vt 0.375000 0.750000
vt 0.625000 1.000000
vt 0.375000 1.000000
vt 0.125000 0.500000
vt 0.125000 0.750000
vt 0.875000 0.500000
vt 0.875000 0.750000
vt 0.375000 0.000000
vt 0.625000 0.000000
vt 0.625000 0.250000
vt 0.375000 0.250000
vt 0.625000 0.500000
vt 0.375000 0.500000
vt 0.625000 0.750000
vt 0.375000 0.750000
vt 0.625000 1.000000
vt 0.375000 1.000000
vt 0.125000 0.500000
vt 0.125000 0.750000
vt 0.875000 0.500000
vt 0.875000 0.750000
vt 0.375000 0.000000
vt 0.625000 0.000000
vt 0.625000 0.250000
vt 0.375000 0.250000
vt 0.625000 0.500000
vt 0.375000 0.500000
vt 0.625000 0.750000
vt 0.375000 0.750000
vt 0.625000 1.000000
vt 0.375000 1.000000
vt 0.125000 0.500000
vt 0.125000 0.750000
vt 0.875000 0.500000
vt 0.875000 0.750000
vt 0.375000 0.000000
vt 0.625000 0.000000
vt 0.625000 0.250000
vt 0.375000 0.250000
vt 0.625000 0.500000
vt 0.375000 0.500000
vt 0.625000 0.750000
vt 0.375000 0.750000
vt 0.625000 1.000000
vt 0.375000 1.000000
vt 0.125000 0.500000
vt 0.125000 0.750000
vt 0.875000 0.500000
vt 0.875000 0.750000
vt 0.375000 0.000000
vt 0.625000 0.000000
vt 0.625000 0.250000
vt 0.375000 0.250000
vt 0.625000 0.500000
vt 0.375000 0.500000
vt 0.625000 0.750000
vt 0.375000 0.750000
vt 0.625000 1.000000
vt 0.375000 1.000000
vt 0.125000 0.500000
vt 0.125000 0.750000
vt 0.875000 0.500000
vt 0.875000 0.750000
vt 0.375000 0.000000
vt 0.625000 0.000000
vt 0.625000 0.250000
vt 0.375000 0.250000
vt 0.625000 0.500000
vt 0.375000 0.500000
vt 0.625000 0.750000
vt 0.375000 0.750000
vt 0.625000 1.000000
vt 0.375000 1.000000
vt 0.125000 0.500000
vt 0.125000 0.750000
vt 0.875000 0.500000
vt 0.875000 0.750000
vt 0.625000 1.000000
vt 0.375000 1.000000
vt 0.541667 1.000000
vt 0.375000 0.250000
vt 0.625000 0.250000
vt 0.458333 0.250000
vt 0.000000 0.000000
vt 0.166667 0.833333
vt 0.333333 0.833333
vt 0.000000 0.000000
vt 0.333333 0.833333
vt 0.166667 0.833333
vt 0.000000 0.000000
vt 0.666667 0.833333
vt 0.833333 0.833333
vt 0.000000 0.000000
vt 0.833333 0.833333
vt 0.666667 0.833333
vt 0.833333 0.666667
vt 1.000000 0.666667
vt 0.000000 0.000000
vt 0.166667 0.666667
vt 0.166667 0.666667
vt 0.333333 0.666667
vt 0.333333 0.666667
vt 0.666667 0.666667
vt 0.666667 0.666667
vt 0.833333 0.666667
vt 0.000000 0.000000
vt 0.000000 0.666667
vt 0.166667 0.500000
vt 0.166667 0.500000
vt 0.333333 0.500000
vt 0.333333 0.500000
vt 0.666667 0.500000
vt 0.666667 0.500000
vt 0.833333 0.500000
vt 0.833333 0.500000
vt 0.166667 0.333333
vt 0.166667 0.333333
vt 0.333333 0.333333
vt 0.333333 0.333333
vt 0.666667 0.333333
vt 0.666667 0.333333
vt 0.833333 0.333333
vt 0.833333 0.333333
vt 0.166667 0.166667
vt 0.166667 0.166667
vt 0.333333 0.166667
vt 0.333333 0.166667
vt 0.666667 0.166667
vt 0.666667 0.166667
vt 0.833333 0.166667
vt 0.833333 0.166667
vt 0.166667 0.000000
vt 0.166667 0.000000
vt 0.333333 0.000000
vt 0.333333 0.000000
vt 0.000000 0.000000
vt 0.000000 0.000000
vt 0.000000 0.000000
vt 0.000000 0.000000
vt 0.666667 0.000000
vt 0.666667 0.000000
vt 0.833333 0.000000
vt 0.833333 0.000000
vt 0.000000 0.333333
vt 0.000000 0.000000
vt 0.000000 0.000000
vt 0.000000 0.000000
vt 0.000000 0.000000
vt 0.000000 0.000000
vt 0.000000 0.000000
vt 0.000000 0.000000
vt 0.000000 0.000000
vt 0.000000 0.000000
vt 0.000000 0.000000
vt 1.000000 0.333333
vt 0.375000 0.750000
vt 0.375000 0.750000
vt 0.375000 0.500000
vt 0.375000 0.500000
vt 0.875000 0.500000
vt 0.875000 0.500000
vt 0.875000 0.750000
vt 0.875000 0.750000
vt 0.625000 0.750000
vt 0.625000 0.500000
vt 0.625000 0.750000
vt 0.625000 0.500000
vt 0.458333 0.500000
vt 0.458333 0.500000
vt 0.125000 0.500000
vt 0.125000 0.750000
vt 0.125000 0.750000
vt 0.125000 0.500000
vt 0.458333 1.000000
vt 0.458333 0.250000
vt 0.458333 1.000000
vt 0.541667 0.750000
vt 0.458333 0.750000
vt 0.541667 0.500000
vt 0.541667 0.750000
vt 0.541667 0.500000
vt 0.541667 1.000000
vt 0.625000 1.000000
vt 0.375000 1.000000
vt 0.458333 0.750000
vt 0.541667 0.250000
vt 0.375000 0.250000
vt 0.625000 0.250000
vt 0.541667 0.250000
vt 0.375000 0.000000
vt 0.625000 0.000000
vt 0.541667 1.000000
vt 0.625000 1.000000
vt 0.375000 1.000000
vt 0.458333 1.000000
vt 0.458333 1.000000
vt 0.541667 0.750000
vt 0.458333 0.750000
vt 0.458333 0.500000
vt 0.541667 0.500000
vt 0.375000 0.000000
vt 0.625000 0.000000
vt 0.458333 0.250000
vt 0.375000 0.250000
vt 0.625000 0.250000
vt 0.541667 0.250000
vt 0.541667 0.250000
vt 0.625000 0.500000
vt 0.375000 0.500000
vt 0.125000 0.500000
vt 0.875000 0.500000
vt 0.625000 0.500000
vt 0.541667 0.500000
vt 0.875000 0.750000
vt 0.875000 0.500000
vt 0.875000 0.750000
vt 0.625000 0.750000
vt 0.625000 0.750000
vt 0.541667 0.750000
vt 0.375000 0.750000
vt 0.458333 0.750000
vt 0.375000 0.750000
vt 0.458333 0.500000
vt 0.375000 0.500000
vt 0.125000 0.750000
vt 0.125000 0.750000
vt 0.125000 0.500000
vn 1.0000 0.0000 0.0000
vn 0.0000 0.0000 1.0000
vn -1.0000 0.0000 0.0000
vn 0.0000 0.0000 -1.0000
vn 0.0000 -1.0000 0.0000
vn 0.0000 1.0000 0.0000
vn 0.0000 -0.9148 0.4040
vn 0.0000 0.9148 0.4040
vn 0.9293 0.0000 0.3693
vn -0.9293 0.0000 0.3693
vn -0.4040 0.9148 0.0000
vn -0.4040 -0.9148 -0.0000
vn -0.3693 0.0000 0.9293
vn -0.3693 0.0000 -0.9293
usemtl MARSNULL
s off
f 91/1/1 90/2/1 95/3/1
f 1/4/1 9/5/1 10/6/1 3/7/1
f 3/7/2 10/6/2 11/8/2 7/9/2
f 7/9/3 11/8/3 12/10/3 5/11/3
f 5/11/4 12/10/4 9/12/4 1/13/4
f 3/14/5 7/9/5 5/11/5 1/15/5
f 2/16/4 6/17/4 16/18/4 13/19/4
f 2/16/6 4/20/6 10/21/6 9/22/6
f 8/23/6 6/17/6 2/16/6 9/22/6 12/10/6 11/8/6 10/21/6 4/20/6
f 15/24/6 14/25/6 13/19/6 16/18/6
f 8/23/2 4/20/2 14/25/2 15/24/2
f 6/17/3 8/23/3 15/24/3 16/18/3
f 4/20/1 2/16/1 13/19/1 14/25/1
f 94/26/3 89/27/3 92/28/3
f 49/29/1 50/30/1 52/31/1 51/32/1
f 51/32/2 52/31/2 56/33/2 55/34/2
f 55/34/3 56/33/3 54/35/3 53/36/3
f 53/36/4 54/35/4 50/37/4 49/38/4
f 51/39/7 55/34/7 53/36/7 49/40/7
f 56/33/8 52/41/8 50/42/8 54/35/8
f 57/43/6 58/44/6 60/45/6 59/46/6
f 59/46/2 60/45/2 64/47/2 63/48/2
f 63/48/5 64/47/5 62/49/5 61/50/5
f 61/50/4 62/49/4 58/51/4 57/52/4
f 59/53/9 63/48/9 61/50/9 57/54/9
f 64/47/10 60/55/10 58/56/10 62/49/10
f 97/57/4 98/58/4 100/59/4 99/60/4
f 99/60/3 100/59/3 104/61/3 103/62/3
f 103/62/2 104/61/2 102/63/2 101/64/2
f 101/64/1 102/63/1 98/65/1 97/66/1
f 99/67/11 103/62/11 101/64/11 97/68/11
f 104/61/12 100/69/12 98/70/12 102/63/12
f 105/71/6 106/72/6 108/73/6 107/74/6
f 107/74/3 108/73/3 112/75/3 111/76/3
f 111/76/5 112/75/5 110/77/5 109/78/5
f 109/78/1 110/77/1 106/79/1 105/80/1
f 107/81/13 111/76/13 109/78/13 105/82/13
f 112/75/14 108/83/14 106/84/14 110/77/14
f 113/85/1 114/86/1 116/87/1 115/88/1
f 115/88/2 116/87/2 120/89/2 119/90/2
f 119/90/3 120/89/3 118/91/3 117/92/3
f 117/92/4 118/91/4 114/93/4 113/94/4
f 115/95/5 119/90/5 117/92/5 113/96/5
f 120/89/6 116/97/6 114/98/6 118/91/6
f 121/99/1 122/100/1 124/101/1 123/102/1
f 123/102/2 124/101/2 128/103/2 127/104/2
f 127/104/3 128/103/3 126/105/3 125/106/3
f 125/106/4 126/105/4 122/107/4 121/108/4
f 123/109/5 127/104/5 125/106/5 121/110/5
f 128/103/6 124/111/6 122/112/6 126/105/6
f 129/113/1 130/114/1 132/115/1 131/116/1
f 131/116/2 132/115/2 136/117/2 135/118/2
f 135/118/3 136/117/3 134/119/3 133/120/3
f 133/120/4 134/119/4 130/121/4 129/122/4
f 131/123/5 135/118/5 133/120/5 129/124/5
f 136/117/6 132/125/6 130/126/6 134/119/6
f 137/127/1 138/128/1 140/129/1 139/130/1
f 139/130/2 140/129/2 144/131/2 143/132/2
f 143/132/3 144/131/3 142/133/3 141/134/3
f 141/134/4 142/133/4 138/135/4 137/136/4
f 139/137/5 143/132/5 141/134/5 137/138/5
f 144/131/6 140/139/6 138/140/6 142/133/6
f 43/141/4 42/142/4 47/143/4
f 41/144/2 44/145/2 46/146/2
f 149/147/6 155/148/6 166/149/6 163/150/6
f 170/151/4 166/149/4 155/148/4 161/152/4
f 176/153/6 179/154/6 194/155/6 189/156/6
f 200/157/4 194/155/4 179/154/4 182/158/4
f 189/156/6 191/159/6 204/160/6 202/161/6
f 155/148/3 152/162/3 158/163/3 161/152/3
f 158/163/6 174/164/6 170/151/6 161/152/6
f 165/165/1 166/149/1 170/151/1 174/164/1
f 179/154/3 178/166/3 186/167/3 182/158/3
f 186/167/6 196/168/6 200/157/6 182/158/6
f 191/159/1 194/155/1 200/157/1 196/168/1
f 146/169/6 147/170/6 152/162/6 149/147/6
f 152/162/3 153/171/3 159/172/3 158/163/3
f 159/172/6 173/173/6 174/164/6 158/163/6
f 168/174/1 165/165/1 174/164/1 173/173/1
f 178/166/3 181/175/3 185/176/3 186/167/3
f 185/176/6 198/177/6 196/168/6 186/167/6
f 192/178/1 191/159/1 196/168/1 198/177/1
f 153/171/3 151/179/3 157/180/3 159/172/3
f 157/180/6 172/181/6 173/173/6 159/172/6
f 164/182/1 168/174/1 173/173/1 172/181/1
f 181/175/3 177/183/3 184/184/3 185/176/3
f 184/184/6 195/185/6 198/177/6 185/176/6
f 190/186/1 192/178/1 198/177/1 195/185/1
f 151/179/3 154/187/3 160/188/3 157/180/3
f 160/188/6 171/189/6 172/181/6 157/180/6
f 167/190/1 164/182/1 172/181/1 171/189/1
f 177/183/3 180/191/3 183/192/3 184/184/3
f 183/192/6 199/193/6 195/185/6 184/184/6
f 193/194/1 190/186/1 195/185/1 199/193/1
f 154/187/3 150/195/3 156/196/3 160/188/3
f 156/196/6 169/197/6 171/189/6 160/188/6
f 162/198/1 167/190/1 171/189/1 169/197/1
f 162/199/6 175/200/6 177/201/6 164/202/6
f 180/191/3 175/203/3 187/204/3 183/192/3
f 187/204/6 197/205/6 199/193/6 183/192/6
f 188/206/1 193/194/1 199/193/1 197/205/1
f 151/179/6 148/207/6 145/208/6 150/209/6
f 150/209/2 162/199/2 169/210/2 156/211/2
f 175/200/2 188/212/2 197/213/2 187/214/2
f 176/153/6 163/150/6 165/215/6 178/216/6
f 165/215/6 164/202/6 177/201/6 178/216/6
f 188/212/6 201/217/6 203/218/6 190/186/6
f 148/207/6 151/179/6 152/162/6 147/170/6
f 190/186/6 203/218/6 204/160/6 191/159/6
f 35/219/5 21/220/5 23/221/5 34/222/5
f 20/223/6 44/224/6 43/225/6 18/226/6
f 18/226/6 22/227/6 24/228/6 20/223/6
f 22/227/6 37/229/6 36/230/6 24/228/6
f 33/231/2 34/222/2 23/221/2 30/232/2
f 19/233/5 17/234/5 42/235/5 41/236/5
f 25/237/6 28/238/6 46/146/6 48/239/6
f 31/240/3 32/241/3 30/232/3 29/242/3
f 37/229/3 40/243/3 39/244/3 36/230/3
f 26/245/4 18/246/4 47/143/4
f 18/246/4 43/141/4 47/143/4
f 42/142/4 17/247/4 48/239/4
f 17/247/4 25/237/4 48/239/4
f 42/142/4 48/239/4 47/143/4
f 38/248/3 35/219/3 34/222/3 33/231/3
f 38/248/6 33/231/6 30/232/6 32/241/6
f 35/219/4 38/248/4 32/241/4 21/220/4
f 40/243/4 37/229/4 22/227/4 31/240/4
f 36/230/2 39/244/2 29/242/2 24/228/2
f 39/244/5 40/243/5 31/240/5 29/242/5
f 24/228/2 23/221/2 19/233/2 20/223/2
f 47/143/3 48/239/3 46/146/3 45/249/3
f 28/238/2 19/250/2 46/146/2
f 19/250/2 41/144/2 46/146/2
f 44/145/2 20/251/2 45/249/2
f 20/251/2 27/252/2 45/249/2
f 44/145/2 45/249/2 46/146/2
f 27/252/1 28/238/1 25/237/1 26/245/1
f 45/249/5 27/252/5 26/245/5 47/143/5
f 18/226/4 17/234/4 21/220/4 22/227/4
f 21/220/5 17/234/5 19/233/5 23/221/5
f 41/144/1 42/253/1 43/254/1 44/145/1
f 74/255/1 66/256/1 95/3/1
f 66/256/1 91/1/1 95/3/1
f 90/2/1 65/257/1 96/258/1
f 65/257/1 73/259/1 96/258/1
f 90/2/1 96/258/1 95/3/1
f 79/260/2 80/261/2 78/262/2 77/263/2
f 92/28/4 89/27/4 90/264/4 91/265/4
f 94/26/3 76/266/3 67/267/3
f 92/28/3 68/268/3 93/269/3
f 68/268/3 75/270/3 93/269/3
f 94/26/3 67/267/3 89/27/3
f 92/28/3 93/269/3 94/26/3
f 72/271/3 71/272/3 67/273/3 68/274/3
f 84/275/3 87/276/3 77/263/3 72/271/3
f 66/277/5 68/274/5 92/278/5 91/279/5
f 84/275/5 72/271/5 70/280/5 85/281/5
f 72/271/5 68/274/5 66/277/5 70/280/5
f 88/282/1 85/281/1 70/280/1 79/260/1
f 83/283/1 86/284/1 80/261/1 69/285/1
f 86/284/5 81/286/5 78/262/5 80/261/5
f 86/284/2 83/283/2 82/287/2 81/286/2
f 81/286/3 82/287/3 71/272/3 78/262/3
f 85/281/2 88/282/2 87/276/2 84/275/2
f 66/277/1 65/288/1 69/285/1 70/280/1
f 87/276/6 88/282/6 79/260/6 77/263/6
f 67/273/6 65/288/6 90/289/6 89/290/6
f 83/283/6 69/285/6 71/272/6 82/287/6
f 69/285/6 65/288/6 67/273/6 71/272/6
f 75/270/4 76/266/4 73/259/4 74/255/4
f 74/255/6 95/3/6 93/269/6 75/270/6
f 95/3/2 96/258/2 94/26/2 93/269/2
f 76/266/5 94/26/5 96/258/5 73/259/5
