# Blender v2.92.0 OBJ File: 'marscity.blend'
# www.blender.org
mtllib blvd_main.mtl
o blvd_main_Plane.002
v -0.800000 0.000000 0.800000
v -0.800000 0.000000 -0.800000
v -0.800000 0.000000 -0.266667
v -0.800000 0.000000 0.266667
v -0.439200 0.000000 -0.800000
v -0.439200 0.000000 0.800000
v -0.439200 0.000000 0.266667
v -0.439200 0.000000 -0.266667
v -0.439200 0.000000 0.000000
v -0.439200 0.000000 0.533333
v -0.439200 0.000000 -0.533333
v -0.439200 0.016000 0.800000
v -0.439200 0.016000 -0.800000
v -0.439200 0.016000 0.266667
v -0.439200 0.016000 -0.266667
v -0.439200 0.016000 0.000000
v -0.439200 0.016000 0.533333
v -0.439200 0.016000 -0.533333
v -0.360800 0.000000 0.800000
v -0.360800 0.000000 -0.800000
v -0.360800 0.000000 0.266667
v -0.360800 0.000000 -0.266667
v -0.360800 0.000000 -0.533333
v -0.360800 0.000000 0.533333
v -0.360800 0.000000 0.000000
v -0.360800 0.016000 0.800000
v -0.360800 0.016000 -0.533333
v -0.360800 0.016000 -0.800000
v -0.360800 0.016000 0.533333
v -0.360800 0.016000 0.266667
v -0.360800 0.016000 0.000000
v -0.360800 0.016000 -0.266667
v 0.360800 0.000000 0.800000
v 0.360800 0.000000 -0.800000
v 0.360800 0.000000 0.266667
v 0.360800 0.000000 -0.266667
v 0.360800 0.000000 -0.533333
v 0.360800 0.000000 0.533333
v 0.360800 0.000000 0.000000
v 0.360800 0.016000 -0.800000
v 0.360800 0.016000 -0.533333
v 0.360800 0.016000 0.533333
v 0.360800 0.016000 0.266667
v 0.360800 0.016000 0.000000
v 0.360800 0.016000 -0.266667
v 0.360800 0.016000 0.800000
v 0.439200 0.000000 0.800000
v 0.439200 0.000000 -0.800000
v 0.439200 0.000000 0.266667
v 0.439200 0.000000 -0.266667
v 0.439200 0.000000 0.000000
v 0.439200 0.000000 0.533333
v 0.439200 0.000000 -0.533333
v 0.439200 0.016000 -0.800000
v 0.439200 0.016000 0.266667
v 0.439200 0.016000 -0.266667
v 0.439200 0.016000 0.800000
v 0.439200 0.016000 0.000000
v 0.439200 0.016000 0.533333
v 0.439200 0.016000 -0.533333
v 0.800000 0.000000 0.800000
v 0.800000 0.000000 -0.800000
v 0.800000 0.000000 0.266667
v 0.800000 0.000000 -0.266667
vt 0.000000 0.000000
vt 0.000000 0.000000
vt 0.000000 0.000000
vt 0.000000 0.000000
vt 0.000000 0.000000
vt 0.000000 0.000000
vt 0.000000 0.000000
vt 0.000000 0.000000
vt 0.166667 1.000000
vt 0.166667 0.833333
vt 0.166667 0.833333
vt 0.166667 1.000000
vt 0.333333 0.833333
vt 0.333333 1.000000
vt 0.333333 0.833333
vt 0.333333 1.000000
vt 0.666667 1.000000
vt 0.666667 0.833333
vt 0.666667 0.833333
vt 0.666667 1.000000
vt 0.833333 0.833333
vt 0.833333 1.000000
vt 0.833333 0.833333
vt 0.833333 1.000000
vt 0.833333 0.666667
vt 1.000000 0.666667
vt 0.000000 0.000000
vt 0.166667 0.666667
vt 0.166667 0.666667
vt 0.333333 0.666667
vt 0.333333 0.666667
vt 0.666667 0.666667
vt 0.666667 0.666667
vt 0.833333 0.666667
vt 0.000000 0.000000
vt 0.000000 0.666667
vt 0.166667 0.500000
vt 0.166667 0.500000
vt 0.333333 0.500000
vt 0.333333 0.500000
vt 0.666667 0.500000
vt 0.666667 0.500000
vt 0.833333 0.500000
vt 0.833333 0.500000
vt 0.166667 0.333333
vt 0.166667 0.333333
vt 0.333333 0.333333
vt 0.333333 0.333333
vt 0.666667 0.333333
vt 0.666667 0.333333
vt 0.833333 0.333333
vt 0.833333 0.333333
vt 0.166667 0.166667
vt 0.166667 0.166667
vt 0.333333 0.166667
vt 0.333333 0.166667
vt 0.666667 0.166667
vt 0.666667 0.166667
vt 0.833333 0.166667
vt 0.833333 0.166667
vt 0.166667 0.000000
vt 0.166667 0.000000
vt 0.333333 0.000000
vt 0.333333 0.000000
vt 0.000000 0.000000
vt 0.000000 0.000000
vt 0.000000 0.000000
vt 0.000000 0.000000
vt 0.666667 0.000000
vt 0.666667 0.000000
vt 0.833333 0.000000
vt 0.833333 0.000000
vt 0.000000 0.333333
vt 0.000000 0.000000
vt 0.000000 0.000000
vt 0.000000 0.000000
vt 0.000000 0.000000
vt 0.000000 0.000000
vt 0.000000 0.000000
vt 0.000000 0.000000
vt 0.000000 0.000000
vt 0.000000 0.000000
vt 0.000000 0.000000
vt 1.000000 0.333333
vn 0.0000 0.0000 -1.0000
vn -1.0000 0.0000 0.0000
vn 0.0000 1.0000 0.0000
vn 1.0000 0.0000 0.0000
vn 0.0000 0.0000 1.0000
usemtl MARSNULL
s off
f 20/1/1 5/2/1 13/3/1 28/4/1
f 48/5/1 34/6/1 40/7/1 54/8/1
f 5/9/2 11/10/2 18/11/2 13/12/2
f 18/11/3 27/13/3 28/14/3 13/12/3
f 23/15/4 20/16/4 28/14/4 27/13/4
f 34/17/2 37/18/2 41/19/2 40/20/2
f 41/19/3 60/21/3 54/22/3 40/20/3
f 53/23/4 48/24/4 54/22/4 60/21/4
f 48/5/3 50/25/3 64/26/3 62/27/3
f 11/10/2 8/28/2 15/29/2 18/11/2
f 15/29/3 32/30/3 27/13/3 18/11/3
f 22/31/4 23/15/4 27/13/4 32/30/4
f 37/18/2 36/32/2 45/33/2 41/19/2
f 45/33/3 56/34/3 60/21/3 41/19/3
f 50/25/4 53/23/4 60/21/4 56/34/4
f 2/35/3 3/36/3 8/28/3 5/2/3
f 8/28/2 9/37/2 16/38/2 15/29/2
f 16/38/3 31/39/3 32/30/3 15/29/3
f 25/40/4 22/31/4 32/30/4 31/39/4
f 36/32/2 39/41/2 44/42/2 45/33/2
f 44/42/3 58/43/3 56/34/3 45/33/3
f 51/44/4 50/25/4 56/34/4 58/43/4
f 9/37/2 7/45/2 14/46/2 16/38/2
f 14/46/3 30/47/3 31/39/3 16/38/3
f 21/48/4 25/40/4 31/39/4 30/47/4
f 39/41/2 35/49/2 43/50/2 44/42/2
f 43/50/3 55/51/3 58/43/3 44/42/3
f 49/52/4 51/44/4 58/43/4 55/51/4
f 7/45/2 10/53/2 17/54/2 14/46/2
f 17/54/3 29/55/3 30/47/3 14/46/3
f 24/56/4 21/48/4 30/47/4 29/55/4
f 35/49/2 38/57/2 42/58/2 43/50/2
f 42/58/3 59/59/3 55/51/3 43/50/3
f 52/60/4 49/52/4 55/51/4 59/59/4
f 10/53/2 6/61/2 12/62/2 17/54/2
f 12/62/3 26/63/3 29/55/3 17/54/3
f 19/64/4 24/56/4 29/55/4 26/63/4
f 19/65/3 33/66/3 35/67/3 21/68/3
f 38/57/2 33/69/2 46/70/2 42/58/2
f 46/70/3 57/71/3 59/59/3 42/58/3
f 47/72/4 52/60/4 59/59/4 57/71/4
f 7/45/3 4/73/3 1/74/3 6/75/3
f 6/75/5 19/65/5 26/76/5 12/77/5
f 33/66/5 47/78/5 57/79/5 46/80/5
f 34/6/3 20/1/3 22/81/3 36/82/3
f 22/81/3 21/68/3 35/67/3 36/82/3
f 47/78/3 61/83/3 63/84/3 49/52/3
f 4/73/3 7/45/3 8/28/3 3/36/3
f 49/52/3 63/84/3 64/26/3 50/25/3
