# Blender v2.92.0 OBJ File: 'marscity.blend'
# www.blender.org
mtllib blvd_main.mtl
o blvd_main_Plane.002
v -0.439200 0.000000 -0.800000
v -0.439200 0.000000 0.800000
v -0.439200 0.000000 0.266667
v -0.439200 0.000000 -0.266667
v -0.439200 0.000000 0.000000
v -0.439200 0.000000 0.533333
v -0.439200 0.000000 -0.533333
v -0.439200 0.016000 0.800000
v -0.439200 0.016000 -0.800000
v -0.439200 0.016000 0.266667
v -0.439200 0.016000 -0.266667
v -0.439200 0.016000 0.000000
v -0.439200 0.016000 0.533333
v -0.439200 0.016000 -0.533333
v -0.360800 0.000000 0.800000
v -0.360800 0.000000 -0.800000
v -0.360800 0.000000 0.266667
v -0.360800 0.000000 -0.266667
v -0.360800 0.000000 -0.533333
v -0.360800 0.000000 0.533333
v -0.360800 0.000000 0.000000
v -0.360800 0.016000 0.800000
v -0.360800 0.016000 -0.533333
v -0.360800 0.016000 -0.800000
v -0.360800 0.016000 0.533333
v -0.360800 0.016000 0.266667
v -0.360800 0.016000 0.000000
v -0.360800 0.016000 -0.266667
v 0.360800 0.000000 0.800000
v 0.360800 0.000000 -0.800000
v 0.360800 0.000000 0.266667
v 0.360800 0.000000 -0.266667
v 0.360800 0.000000 -0.533333
v 0.360800 0.000000 0.533333
v 0.360800 0.000000 0.000000
v 0.360800 0.016000 -0.800000
v 0.360800 0.016000 -0.533333
v 0.360800 0.016000 0.533333
v 0.360800 0.016000 0.266667
v 0.360800 0.016000 0.000000
v 0.360800 0.016000 -0.266667
v 0.360800 0.016000 0.800000
v 0.439200 0.000000 0.800000
v 0.439200 0.000000 -0.800000
v 0.439200 0.000000 0.266667
v 0.439200 0.000000 -0.266667
v 0.439200 0.000000 0.000000
v 0.439200 0.000000 0.533333
v 0.439200 0.000000 -0.533333
v 0.439200 0.016000 -0.800000
v 0.439200 0.016000 0.266667
v 0.439200 0.016000 -0.266667
v 0.439200 0.016000 0.800000
v 0.439200 0.016000 0.000000
v 0.439200 0.016000 0.533333
v 0.439200 0.016000 -0.533333
v 0.667600 0.000000 0.800000
v -0.667600 0.000000 -0.800000
v -0.667600 0.000000 0.266667
v -0.667600 0.000000 -0.266667
v -0.667600 0.000000 0.800000
v 0.667600 0.000000 -0.800000
v 0.667600 0.000000 0.266667
v 0.667600 0.000000 -0.266667
v -0.360800 0.000000 0.533333
v 0.000000 0.000000 0.800000
v -0.439200 0.000000 0.533333
v 0.439200 0.000000 0.533333
v -0.439200 0.000000 0.000000
v 0.439200 0.000000 0.000000
v -0.439200 0.000000 -0.533333
v 0.439200 0.000000 -0.533333
v 0.667600 0.000000 0.000000
v -0.667600 0.000000 0.000000
v 0.667600 0.000000 0.533333
v -0.667600 0.000000 0.533333
v 0.000000 0.000000 0.533333
v -0.667600 0.000000 -0.533333
v 0.667600 0.000000 -0.533333
v 0.391892 0.016000 0.408108
v 0.391892 0.016000 0.391892
v 0.408108 0.016000 0.408108
v 0.408108 0.016000 0.391892
v 0.395135 0.495883 0.404865
v 0.395135 0.495883 0.395135
v 0.404865 0.495883 0.395135
v 0.404865 0.495883 0.404865
v 0.390337 0.484133 0.404089
v 0.390337 0.492311 0.404089
v 0.390337 0.484133 0.395911
v 0.390337 0.492311 0.395911
v 0.395137 0.480222 0.408000
v 0.395137 0.496222 0.408000
v 0.395137 0.480222 0.392000
v 0.395137 0.496222 0.392000
v 0.390337 0.480222 0.392000
v 0.390337 0.480222 0.408000
v 0.390337 0.496222 0.408000
v 0.390337 0.496222 0.392000
v 0.318337 0.512254 0.395911
v 0.318337 0.512254 0.404089
v 0.318337 0.520432 0.404089
v 0.318337 0.520432 0.395911
v 0.246337 0.520711 0.409465
v 0.246337 0.520711 0.390535
v 0.246337 0.511974 0.390535
v 0.246337 0.511974 0.409465
v 0.246337 0.512254 0.395911
v 0.246337 0.512254 0.404089
v 0.246337 0.520432 0.404089
v 0.246337 0.520432 0.395911
v 0.222337 0.520711 0.409465
v 0.222337 0.520711 0.390535
v 0.222337 0.511974 0.390535
v 0.222337 0.511974 0.409465
v 0.409663 0.484133 0.395911
v 0.409663 0.492311 0.395911
v 0.409663 0.484133 0.404089
v 0.409663 0.492311 0.404089
v 0.404863 0.480222 0.392000
v 0.404863 0.496222 0.392000
v 0.404863 0.480222 0.408000
v 0.404863 0.496222 0.408000
v 0.409663 0.480222 0.408000
v 0.409663 0.480222 0.392000
v 0.409663 0.496222 0.392000
v 0.409663 0.496222 0.408000
v 0.481663 0.512254 0.404089
v 0.481663 0.512254 0.395911
v 0.481663 0.520432 0.395911
v 0.481663 0.520432 0.404089
v 0.553663 0.520711 0.390535
v 0.553663 0.520711 0.409465
v 0.553663 0.511974 0.409465
v 0.553663 0.511974 0.390535
v 0.553663 0.512254 0.404089
v 0.553663 0.512254 0.395911
v 0.553663 0.520432 0.395911
v 0.553663 0.520432 0.404089
v 0.577663 0.520711 0.390535
v 0.577663 0.520711 0.409465
v 0.577663 0.511974 0.409465
v 0.577663 0.511974 0.390535
v -0.406727 0.008995 -0.273169
v -0.406727 0.008995 -0.289386
v -0.390510 0.008995 -0.273169
v -0.390510 0.008995 -0.289386
v -0.403483 0.488877 -0.276412
v -0.403483 0.488877 -0.286142
v -0.393753 0.488877 -0.286142
v -0.393753 0.488877 -0.276412
v -0.408281 0.477128 -0.277188
v -0.408281 0.485306 -0.277188
v -0.408281 0.477128 -0.285366
v -0.408281 0.485306 -0.285366
v -0.403481 0.473217 -0.273277
v -0.403481 0.489217 -0.273277
v -0.403481 0.473217 -0.289277
v -0.403481 0.489217 -0.289277
v -0.408281 0.473217 -0.289277
v -0.408281 0.473217 -0.273277
v -0.408281 0.489217 -0.273277
v -0.408281 0.489217 -0.289277
v -0.480281 0.505248 -0.285366
v -0.480281 0.505248 -0.277188
v -0.480281 0.513426 -0.277188
v -0.480281 0.513426 -0.285366
v -0.552281 0.513706 -0.271812
v -0.552281 0.513706 -0.290742
v -0.552281 0.504969 -0.290742
v -0.552281 0.504969 -0.271812
v -0.552281 0.505248 -0.285366
v -0.552281 0.505248 -0.277188
v -0.552281 0.513426 -0.277188
v -0.552281 0.513426 -0.285366
v -0.576281 0.513706 -0.271812
v -0.576281 0.513706 -0.290742
v -0.576281 0.504969 -0.290742
v -0.576281 0.504969 -0.271812
v -0.388955 0.477128 -0.285366
v -0.388955 0.485306 -0.285366
v -0.388955 0.477128 -0.277189
v -0.388955 0.485306 -0.277189
v -0.393755 0.473217 -0.289277
v -0.393755 0.489217 -0.289277
v -0.393755 0.473217 -0.273277
v -0.393755 0.489217 -0.273277
v -0.388955 0.473217 -0.273277
v -0.388955 0.473217 -0.289277
v -0.388955 0.489217 -0.289277
v -0.388955 0.489217 -0.273277
v -0.316955 0.505248 -0.277189
v -0.316955 0.505248 -0.285366
v -0.316955 0.513426 -0.285366
v -0.316955 0.513426 -0.277189
v -0.244955 0.513706 -0.290742
v -0.244955 0.513706 -0.271813
v -0.244955 0.504969 -0.271813
v -0.244955 0.504969 -0.290742
v -0.244955 0.505248 -0.277189
v -0.244955 0.505248 -0.285366
v -0.244955 0.513426 -0.285366
v -0.244955 0.513426 -0.277189
v -0.220955 0.513706 -0.290742
v -0.220955 0.513706 -0.271813
v -0.220955 0.504969 -0.271813
v -0.220955 0.504969 -0.290742
v 0.000000 0.000000 0.800000
v 0.000000 0.000000 0.533333
v 0.360800 0.000000 0.800000
v 0.360800 0.000000 0.533333
v -0.360800 0.000000 0.533333
v -0.360800 0.000000 0.266667
v 0.000000 0.000000 0.533333
v 0.000000 0.000000 0.266667
v 0.000000 0.000000 0.533333
v 0.000000 0.000000 0.266667
v 0.360800 0.000000 0.533333
v 0.360800 0.000000 0.266667
v -0.360800 0.000000 0.266667
v -0.360800 0.000000 -0.000000
v 0.000000 0.000000 0.266667
v 0.000000 0.000000 -0.000000
v 0.000000 0.000000 0.266667
v 0.000000 0.000000 -0.000000
v 0.360800 0.000000 0.266667
v 0.360800 0.000000 -0.000000
v -0.360800 0.000000 -0.000000
v -0.360800 0.000000 -0.266667
v 0.000000 0.000000 -0.000000
v 0.000000 0.000000 -0.266667
v 0.000000 0.000000 -0.000000
v 0.000000 0.000000 -0.266667
v 0.360800 0.000000 -0.000000
v 0.360800 0.000000 -0.266667
v -0.360800 0.000000 -0.266667
v -0.360800 0.000000 -0.533333
v 0.000000 0.000000 -0.266667
v 0.000000 0.000000 -0.533333
v 0.000000 0.000000 -0.266667
v 0.000000 0.000000 -0.533333
v 0.360800 0.000000 -0.266667
v 0.360800 0.000000 -0.533333
v -0.360800 0.000000 -0.533333
v -0.360800 0.000000 -0.800000
v 0.000000 0.000000 -0.533333
v 0.000000 0.000000 -0.800000
v 0.000000 0.000000 -0.533333
v 0.000000 0.000000 -0.800000
v 0.360800 0.000000 -0.533333
v 0.360800 0.000000 -0.800000
v -0.667600 0.016000 -0.800000
v -0.800000 0.016000 -0.800000
v -0.667600 0.016000 0.266667
v -0.800000 0.016000 0.266667
v -0.667600 0.016000 -0.266667
v -0.800000 0.016000 -0.266667
v -0.800000 0.016000 0.533333
v -0.800000 0.016000 0.800000
v -0.800000 0.016000 0.000000
v -0.800000 0.016000 -0.533333
v -0.667600 0.016000 0.800000
v -0.667600 0.016000 0.000000
v -0.667600 0.016000 0.533333
v -0.667600 0.016000 -0.533333
v 0.667600 0.016000 0.800000
v 0.800000 0.016000 0.800000
v 0.800000 0.016000 0.533333
v 0.800000 0.016000 0.266667
v 0.800000 0.016000 0.000000
v 0.800000 0.016000 -0.266667
v 0.800000 0.016000 -0.533333
v 0.800000 0.016000 -0.800000
v 0.667600 0.016000 -0.800000
v 0.667600 0.016000 0.266667
v 0.667600 0.016000 -0.266667
v 0.667600 0.016000 0.000000
v 0.667600 0.016000 0.533333
v 0.667600 0.016000 -0.533333
vt 0.686654 0.688346
vt 0.686654 0.561654
vt 0.686654 0.561654
vt 0.686654 0.688346
vt 0.813346 0.561654
vt 0.813346 0.688346
vt 0.813346 0.561654
vt 0.813346 0.688346
vt 0.563890 0.061110
vt 0.563890 0.188890
vt 0.563890 0.188890
vt 0.563890 0.061110
vt 0.375000 0.250000
vt 0.625000 0.250000
vt 0.625000 0.500000
vt 0.375000 0.500000
vt 0.625000 0.750000
vt 0.375000 0.750000
vt 0.625000 1.000000
vt 0.375000 1.000000
vt 0.125000 0.500000
vt 0.125000 0.750000
vt 0.875000 0.500000
vt 0.875000 0.750000
vt 0.436110 0.061110
vt 0.436110 0.188890
vt 0.375000 0.000000
vt 0.625000 0.000000
vt 0.436110 0.188890
vt 0.436110 0.061110
vt 0.436110 0.061110
vt 0.436110 0.188890
vt 0.386240 0.011239
vt 0.613760 0.011239
vt 0.613760 0.011239
vt 0.386240 0.011239
vt 0.563890 0.188890
vt 0.563890 0.061110
vt 0.386240 0.238761
vt 0.613760 0.238761
vt 0.613760 0.238761
vt 0.386240 0.238761
vt 0.563890 0.061110
vt 0.563890 0.188890
vt 0.563890 0.188890
vt 0.563890 0.061110
vt 0.375000 0.250000
vt 0.625000 0.250000
vt 0.625000 0.500000
vt 0.375000 0.500000
vt 0.625000 0.750000
vt 0.375000 0.750000
vt 0.625000 1.000000
vt 0.375000 1.000000
vt 0.125000 0.500000
vt 0.125000 0.750000
vt 0.875000 0.500000
vt 0.875000 0.750000
vt 0.436110 0.061110
vt 0.436110 0.188890
vt 0.375000 0.000000
vt 0.625000 0.000000
vt 0.436110 0.188890
vt 0.436110 0.061110
vt 0.436110 0.061110
vt 0.436110 0.188890
vt 0.386240 0.011239
vt 0.613760 0.011239
vt 0.613760 0.011239
vt 0.386240 0.011239
vt 0.563890 0.188890
vt 0.563890 0.061110
vt 0.386240 0.238761
vt 0.613760 0.238761
vt 0.613760 0.238761
vt 0.386240 0.238761
vt 0.686654 0.688346
vt 0.686654 0.561654
vt 0.686654 0.561654
vt 0.686654 0.688346
vt 0.813346 0.561654
vt 0.813346 0.688346
vt 0.813346 0.561654
vt 0.813346 0.688346
vt 0.563890 0.061110
vt 0.563890 0.188890
vt 0.563890 0.188890
vt 0.563890 0.061110
vt 0.375000 0.250000
vt 0.625000 0.250000
vt 0.625000 0.500000
vt 0.375000 0.500000
vt 0.625000 0.750000
vt 0.375000 0.750000
vt 0.625000 1.000000
vt 0.375000 1.000000
vt 0.125000 0.500000
vt 0.125000 0.750000
vt 0.875000 0.500000
vt 0.875000 0.750000
vt 0.436110 0.061110
vt 0.436110 0.188890
vt 0.375000 0.000000
vt 0.625000 0.000000
vt 0.436110 0.188890
vt 0.436110 0.061110
vt 0.436110 0.061110
vt 0.436110 0.188890
vt 0.386240 0.011239
vt 0.613760 0.011239
vt 0.613760 0.011239
vt 0.386240 0.011239
vt 0.563890 0.188890
vt 0.563890 0.061110
vt 0.386240 0.238761
vt 0.613760 0.238761
vt 0.613760 0.238761
vt 0.386240 0.238761
vt 0.563890 0.061110
vt 0.563890 0.188890
vt 0.563890 0.188890
vt 0.563890 0.061110
vt 0.375000 0.250000
vt 0.625000 0.250000
vt 0.625000 0.500000
vt 0.375000 0.500000
vt 0.625000 0.750000
vt 0.375000 0.750000
vt 0.625000 1.000000
vt 0.375000 1.000000
vt 0.125000 0.500000
vt 0.125000 0.750000
vt 0.875000 0.500000
vt 0.875000 0.750000
vt 0.436110 0.061110
vt 0.436110 0.188890
vt 0.375000 0.000000
vt 0.625000 0.000000
vt 0.436110 0.188890
vt 0.436110 0.061110
vt 0.436110 0.061110
vt 0.436110 0.188890
vt 0.386240 0.011239
vt 0.613760 0.011239
vt 0.613760 0.011239
vt 0.386240 0.011239
vt 0.563890 0.188890
vt 0.563890 0.061110
vt 0.386240 0.238761
vt 0.613760 0.238761
vt 0.613760 0.238761
vt 0.386240 0.238761
vt 0.049208 0.704375
vt 0.116304 0.704375
vt 0.116304 0.765335
vt 0.049208 0.765335
vt 0.157520 0.676603
vt 0.119282 0.623700
vt 0.175653 0.585461
vt 0.213892 0.638365
vt 0.049208 0.643416
vt 0.116304 0.643416
vt 0.101148 0.714842
vt 0.062910 0.661938
vt 0.056648 0.910387
vt 0.056648 0.922387
vt 0.048530 0.922387
vt 0.048530 0.910387
vt 0.049208 0.582456
vt 0.116304 0.582456
vt 0.044777 0.753080
vt 0.006538 0.700177
vt 0.153417 0.673716
vt 0.109294 0.630972
vt 0.154841 0.586848
vt 0.198965 0.629593
vt 0.094466 0.717073
vt 0.143026 0.677599
vt 0.181593 0.722126
vt 0.133033 0.761599
vt 0.107871 0.717840
vt 0.063747 0.675095
vt 0.055899 0.672546
vt 0.104459 0.633073
vt 0.062324 0.761963
vt 0.018201 0.719219
vt 0.017332 0.628020
vt 0.065892 0.588547
vt 0.056648 0.934387
vt 0.048530 0.934387
vt 0.116387 0.890232
vt 0.116387 0.877604
vt 0.135656 0.877604
vt 0.135656 0.890232
vt 0.097118 0.890232
vt 0.097118 0.877604
vt 0.056648 0.946387
vt 0.048530 0.946387
vt 0.077850 0.890232
vt 0.077850 0.877604
vt 0.058581 0.890232
vt 0.058581 0.877604
vt 0.048530 0.958387
vt 0.056648 0.958387
vt 0.056648 0.970387
vt 0.048530 0.970387
vt 0.268817 0.994792
vt -0.000000 0.994792
vt 0.000000 0.781250
vt 0.268817 0.781250
vt 0.056648 0.898387
vt 0.048530 0.898387
vt 0.174194 0.890232
vt 0.154925 0.890232
vt 0.154925 0.877604
vt 0.174194 0.877604
vt 0.268817 0.994792
vt -0.000000 0.994792
vt 0.000000 0.781250
vt 0.268817 0.781250
vt 0.268817 0.994792
vt -0.000000 0.994792
vt 0.000000 0.781250
vt 0.268817 0.781250
vt 0.268817 0.994792
vt -0.000000 0.994792
vt 0.000000 0.781250
vt 0.268817 0.781250
vt 0.268817 0.994792
vt -0.000000 0.994792
vt 0.000000 0.781250
vt 0.268817 0.781250
vt 0.268817 0.994792
vt -0.000000 0.994792
vt 0.000000 0.781250
vt 0.268817 0.781250
vt 0.268817 0.994792
vt -0.000000 0.994792
vt 0.000000 0.781250
vt 0.268817 0.781250
vt 0.268817 0.994792
vt -0.000000 0.994792
vt 0.000000 0.781250
vt 0.268817 0.781250
vt 0.268817 0.994792
vt -0.000000 0.994792
vt 0.000000 0.781250
vt 0.268817 0.781250
vt 0.268817 0.994792
vt -0.000000 0.994792
vt 0.000000 0.781250
vt 0.268817 0.781250
vt 0.268817 0.994792
vt -0.000000 0.994792
vt 0.000000 0.781250
vt 0.268817 0.781250
vt 0.268817 0.994792
vt -0.000000 0.994792
vt 0.000000 0.781250
vt 0.268817 0.781250
vt 0.166667 1.000000
vt 0.166667 0.833333
vt 0.166667 0.833333
vt 0.166667 1.000000
vt 0.333333 0.833333
vt 0.333333 1.000000
vt 0.333333 1.000000
vt 0.333333 0.833333
vt 0.666667 1.000000
vt 0.666667 0.833333
vt 0.666667 0.833333
vt 0.666667 1.000000
vt 0.833333 0.833333
vt 0.833333 1.000000
vt 0.833333 1.000000
vt 0.833333 0.833333
vt 0.166667 0.666667
vt 0.166667 0.666667
vt 0.333333 0.666667
vt 0.333333 0.666667
vt 0.666667 0.666667
vt 0.666667 0.666667
vt 0.833333 0.666667
vt 0.833333 0.666667
vt 0.166667 0.500000
vt 0.166667 0.500000
vt 0.333333 0.500000
vt 0.333333 0.500000
vt 0.666667 0.500000
vt 0.666667 0.500000
vt 0.833333 0.500000
vt 0.833333 0.500000
vt 0.166667 0.333333
vt 0.166667 0.333333
vt 0.333333 0.333333
vt 0.333333 0.333333
vt 0.666667 0.333333
vt 0.666667 0.333333
vt 0.833333 0.333333
vt 0.833333 0.333333
vt 0.166667 0.166667
vt 0.166667 0.166667
vt 0.333333 0.166667
vt 0.333333 0.166667
vt 0.666667 0.166667
vt 0.666667 0.166667
vt 0.833333 0.166667
vt 0.833333 0.166667
vt 0.166667 0.000000
vt 0.166667 0.000000
vt 0.333333 0.000000
vt 0.333333 0.000000
vt 0.666667 0.000000
vt 0.666667 0.000000
vt 0.833333 0.000000
vt 0.833333 0.000000
vt 0.154925 0.877604
vt 0.174194 0.877604
vt 0.056648 0.934387
vt 0.056648 0.946387
vt 0.058581 0.877604
vt 0.077850 0.877604
vt 0.056648 0.958387
vt 0.056648 0.970387
vt 0.097118 0.877604
vt 0.116387 0.877604
vt 0.056648 0.922387
vt 0.064766 0.958387
vt 0.064766 0.970387
vt 0.064766 0.934387
vt 0.064766 0.922387
vt 0.064766 0.946387
vt 0.064766 0.898387
vt 0.064766 0.910387
vt 0.056648 0.910387
vt 0.056648 0.898387
vt 0.135656 0.877604
vt 0.135656 0.864976
vt 0.154925 0.864976
vt 0.077850 0.864976
vt 0.097118 0.864976
vt 0.116387 0.864976
vt 0.058581 0.864976
vt 0.174194 0.864976
vn 1.0000 0.0068 0.0000
vn 0.0000 1.0000 0.0000
vn -1.0000 0.0068 0.0000
vn 0.0000 0.0068 1.0000
vn 0.0000 0.0068 -1.0000
vn 0.3638 0.9315 0.0000
vn 0.0000 0.0000 -1.0000
vn 1.0000 0.0000 0.0000
vn 0.0000 0.0000 1.0000
vn 0.0000 -1.0000 0.0000
vn -1.0000 0.0000 0.0000
vn -0.3638 -0.9315 0.0000
vn -0.3638 0.9315 0.0000
vn 0.3638 -0.9315 0.0000
vn -1.0000 -0.0001 0.0000
vn -1.0000 0.0001 0.0000
vn 1.0000 -0.0001 0.0000
vn 1.0000 0.0001 0.0000
usemtl MARSNULL
s off
f 82/1/1 83/2/1 86/3/1 87/4/1
f 86/3/2 85/5/2 84/6/2 87/4/2
f 81/7/3 80/8/3 84/6/3 85/5/3
f 80/8/4 82/1/4 87/4/4 84/6/4
f 83/2/5 81/7/5 85/5/5 86/3/5
f 89/9/6 91/10/6 103/11/6 102/12/6
f 96/13/7 99/14/7 95/15/7 94/16/7
f 94/16/8 95/15/8 93/17/8 92/18/8
f 92/18/9 93/17/9 98/19/9 97/20/9
f 96/21/10 94/16/10 92/18/10 97/22/10
f 95/15/2 99/23/2 98/24/2 93/17/2
f 88/25/11 90/26/11 96/13/11 97/27/11
f 89/9/11 88/25/11 97/27/11 98/28/11
f 91/10/11 89/9/11 98/28/11 99/14/11
f 90/26/11 91/10/11 99/14/11 96/13/11
f 100/29/10 101/30/10 109/31/10 108/32/10
f 90/26/12 88/25/12 101/30/12 100/29/12
f 91/10/7 90/26/7 100/29/7 103/11/7
f 88/25/9 89/9/9 102/12/9 101/30/9
f 107/33/9 104/34/9 112/35/9 115/36/9
f 103/11/7 100/29/7 108/32/7 111/37/7
f 101/30/9 102/12/9 110/38/9 109/31/9
f 102/12/2 103/11/2 111/37/2 110/38/2
f 110/38/8 104/34/8 107/33/8 109/31/8
f 109/31/8 107/33/8 106/39/8 108/32/8
f 108/32/8 106/39/8 105/40/8 111/37/8
f 111/37/8 105/40/8 104/34/8 110/38/8
f 113/41/11 114/42/11 115/36/11 112/35/11
f 105/40/7 106/39/7 114/42/7 113/41/7
f 106/39/10 107/33/10 115/36/10 114/42/10
f 104/34/2 105/40/2 113/41/2 112/35/2
f 117/43/13 119/44/13 131/45/13 130/46/13
f 124/47/9 127/48/9 123/49/9 122/50/9
f 122/50/11 123/49/11 121/51/11 120/52/11
f 120/52/7 121/51/7 126/53/7 125/54/7
f 124/55/10 122/50/10 120/52/10 125/56/10
f 123/49/2 127/57/2 126/58/2 121/51/2
f 116/59/8 118/60/8 124/47/8 125/61/8
f 117/43/8 116/59/8 125/61/8 126/62/8
f 119/44/8 117/43/8 126/62/8 127/48/8
f 118/60/8 119/44/8 127/48/8 124/47/8
f 128/63/10 129/64/10 137/65/10 136/66/10
f 118/60/14 116/59/14 129/64/14 128/63/14
f 119/44/9 118/60/9 128/63/9 131/45/9
f 116/59/7 117/43/7 130/46/7 129/64/7
f 135/67/7 132/68/7 140/69/7 143/70/7
f 131/45/9 128/63/9 136/66/9 139/71/9
f 129/64/7 130/46/7 138/72/7 137/65/7
f 130/46/2 131/45/2 139/71/2 138/72/2
f 138/72/11 132/68/11 135/67/11 137/65/11
f 137/65/15 135/67/15 134/73/15 136/66/15
f 136/66/11 134/73/11 133/74/11 139/71/11
f 139/71/16 133/74/16 132/68/16 138/72/16
f 141/75/8 142/76/8 143/70/8 140/69/8
f 133/74/9 134/73/9 142/76/9 141/75/9
f 134/73/10 135/67/10 143/70/10 142/76/10
f 132/68/2 133/74/2 141/75/2 140/69/2
f 146/77/1 147/78/1 150/79/1 151/80/1
f 150/79/2 149/81/2 148/82/2 151/80/2
f 145/83/3 144/84/3 148/82/3 149/81/3
f 144/84/4 146/77/4 151/80/4 148/82/4
f 147/78/5 145/83/5 149/81/5 150/79/5
f 153/85/6 155/86/6 167/87/6 166/88/6
f 160/89/7 163/90/7 159/91/7 158/92/7
f 158/92/8 159/91/8 157/93/8 156/94/8
f 156/94/9 157/93/9 162/95/9 161/96/9
f 160/97/10 158/92/10 156/94/10 161/98/10
f 159/91/2 163/99/2 162/100/2 157/93/2
f 152/101/11 154/102/11 160/89/11 161/103/11
f 153/85/11 152/101/11 161/103/11 162/104/11
f 155/86/11 153/85/11 162/104/11 163/90/11
f 154/102/11 155/86/11 163/90/11 160/89/11
f 164/105/10 165/106/10 173/107/10 172/108/10
f 154/102/12 152/101/12 165/106/12 164/105/12
f 155/86/7 154/102/7 164/105/7 167/87/7
f 152/101/9 153/85/9 166/88/9 165/106/9
f 171/109/9 168/110/9 176/111/9 179/112/9
f 167/87/7 164/105/7 172/108/7 175/113/7
f 165/106/9 166/88/9 174/114/9 173/107/9
f 166/88/2 167/87/2 175/113/2 174/114/2
f 174/114/8 168/110/8 171/109/8 173/107/8
f 173/107/17 171/109/17 170/115/17 172/108/17
f 172/108/8 170/115/8 169/116/8 175/113/8
f 175/113/18 169/116/18 168/110/18 174/114/18
f 177/117/11 178/118/11 179/112/11 176/111/11
f 169/116/7 170/115/7 178/118/7 177/117/7
f 170/115/10 171/109/10 179/112/10 178/118/10
f 168/110/2 169/116/2 177/117/2 176/111/2
f 181/119/13 183/120/13 195/121/13 194/122/13
f 188/123/9 191/124/9 187/125/9 186/126/9
f 186/126/11 187/125/11 185/127/11 184/128/11
f 184/128/7 185/127/7 190/129/7 189/130/7
f 188/131/10 186/126/10 184/128/10 189/132/10
f 187/125/2 191/133/2 190/134/2 185/127/2
f 180/135/8 182/136/8 188/123/8 189/137/8
f 181/119/8 180/135/8 189/137/8 190/138/8
f 183/120/8 181/119/8 190/138/8 191/124/8
f 182/136/8 183/120/8 191/124/8 188/123/8
f 192/139/10 193/140/10 201/141/10 200/142/10
f 182/136/14 180/135/14 193/140/14 192/139/14
f 183/120/9 182/136/9 192/139/9 195/121/9
f 180/135/7 181/119/7 194/122/7 193/140/7
f 199/143/7 196/144/7 204/145/7 207/146/7
f 195/121/9 192/139/9 200/142/9 203/147/9
f 193/140/7 194/122/7 202/148/7 201/141/7
f 194/122/2 195/121/2 203/147/2 202/148/2
f 202/148/11 196/144/11 199/143/11 201/141/11
f 201/141/11 199/143/11 198/149/11 200/142/11
f 200/142/11 198/149/11 197/150/11 203/147/11
f 203/147/11 197/150/11 196/144/11 202/148/11
f 205/151/8 206/152/8 207/146/8 204/145/8
f 197/150/9 198/149/9 206/152/9 205/151/9
f 198/149/10 199/143/10 207/146/10 206/152/10
f 196/144/2 197/150/2 205/151/2 204/145/2
usemtl marscity
f 14/153/2 23/154/2 24/155/2 9/156/2
f 37/157/2 56/158/2 50/159/2 36/160/2
f 11/161/2 28/162/2 23/154/2 14/153/2
f 41/163/2 52/164/2 56/158/2 37/157/2
f 78/165/2 60/166/2 4/167/2 71/168/2
f 12/169/2 27/170/2 28/162/2 11/161/2
f 40/171/2 54/172/2 52/164/2 41/163/2
f 10/173/2 26/174/2 27/175/2 12/176/2
f 39/177/2 51/178/2 54/179/2 40/180/2
f 13/181/2 25/182/2 26/174/2 10/173/2
f 38/183/2 55/184/2 51/178/2 39/177/2
f 8/185/2 22/186/2 25/182/2 13/181/2
f 42/187/2 53/188/2 55/184/2 38/183/2
f 74/189/2 69/190/2 4/167/2 60/166/2
f 70/191/2 73/192/2 64/193/2 46/194/2
f 45/195/2 63/196/2 73/192/2 70/191/2
f 59/197/2 3/198/2 69/190/2 74/189/2
f 68/199/2 75/200/2 63/196/2 45/195/2
f 43/201/2 57/202/2 75/200/2 68/199/2
f 67/203/2 76/204/2 61/205/2 2/206/2
f 3/198/2 59/197/2 76/204/2 67/203/2
f 15/207/2 66/208/2 77/209/2 65/210/2
f 58/211/2 78/165/2 71/168/2 1/212/2
f 44/213/2 72/214/2 79/215/2 62/216/2
f 72/214/2 46/194/2 64/193/2 79/215/2
f 208/217/2 210/218/2 211/219/2 209/220/2
f 212/221/2 214/222/2 215/223/2 213/224/2
f 216/225/2 218/226/2 219/227/2 217/228/2
f 220/229/2 222/230/2 223/231/2 221/232/2
f 224/233/2 226/234/2 227/235/2 225/236/2
f 228/237/2 230/238/2 231/239/2 229/240/2
f 232/241/2 234/242/2 235/243/2 233/244/2
f 236/245/2 238/246/2 239/247/2 237/248/2
f 240/249/2 242/250/2 243/251/2 241/252/2
f 244/253/2 246/254/2 247/255/2 245/256/2
f 248/257/2 250/258/2 251/259/2 249/260/2
usemtl MARSINDX_239
f 1/261/11 7/262/11 14/263/11 9/264/11
f 19/265/8 16/266/8 24/267/8 23/268/8
f 30/269/11 33/270/11 37/271/11 36/272/11
f 49/273/8 44/274/8 50/275/8 56/276/8
f 7/262/11 4/277/11 11/278/11 14/263/11
f 18/279/8 19/265/8 23/268/8 28/280/8
f 33/270/11 32/281/11 41/282/11 37/271/11
f 46/283/8 49/273/8 56/276/8 52/284/8
f 4/277/11 5/285/11 12/286/11 11/278/11
f 21/287/8 18/279/8 28/280/8 27/288/8
f 32/281/11 35/289/11 40/290/11 41/282/11
f 47/291/8 46/283/8 52/284/8 54/292/8
f 5/285/11 3/293/11 10/294/11 12/286/11
f 17/295/8 21/287/8 27/288/8 26/296/8
f 35/289/11 31/297/11 39/298/11 40/290/11
f 45/299/8 47/291/8 54/292/8 51/300/8
f 3/293/11 6/301/11 13/302/11 10/294/11
f 20/303/8 17/295/8 26/296/8 25/304/8
f 31/297/11 34/305/11 38/306/11 39/298/11
f 48/307/8 45/299/8 51/300/8 55/308/8
f 6/301/11 2/309/11 8/310/11 13/302/11
f 15/311/8 20/303/8 25/304/8 22/312/8
f 34/305/11 29/313/11 42/314/11 38/306/11
f 43/315/8 48/307/8 55/308/8 53/316/8
usemtl MARSINDX_7
f 62/216/11 79/215/11 279/317/11 274/318/11
f 59/197/8 74/189/8 263/319/8 254/320/8
f 75/200/11 57/202/11 266/321/11 278/322/11
f 61/205/8 76/204/8 264/323/8 262/324/8
f 73/192/11 63/196/11 275/325/11 277/326/11
f 74/189/8 60/166/8 256/327/8 263/319/8
f 63/196/11 75/200/11 278/322/11 275/325/11
f 264/323/2 258/328/2 259/329/2 262/324/2
f 260/330/2 263/319/2 256/327/2 257/331/2
f 255/332/2 254/320/2 263/319/2 260/330/2
f 254/320/2 255/332/2 258/328/2 264/323/2
f 253/333/2 261/334/2 265/335/2 252/336/2
f 261/334/2 257/331/2 256/327/2 265/335/2
f 78/165/8 58/211/8 252/336/8 265/335/8
f 76/204/8 59/197/8 254/320/8 264/323/8
f 60/166/8 78/165/8 265/335/8 256/327/8
f 279/317/2 276/337/2 271/338/2 272/339/2
f 278/322/2 268/340/2 269/341/2 275/325/2
f 277/326/2 270/342/2 271/338/2 276/337/2
f 275/325/2 269/341/2 270/342/2 277/326/2
f 266/321/2 267/343/2 268/340/2 278/322/2
f 274/318/2 279/317/2 272/339/2 273/344/2
f 79/215/11 64/193/11 276/337/11 279/317/11
f 64/193/11 73/192/11 277/326/11 276/337/11
