# Blender v2.92.0 OBJ File: 'marscity.blend'
# www.blender.org
mtllib blvd_kfcn.mtl
o blvd_kfcn_Plane.005
v 0.800000 0.000000 -0.800000
v 0.800000 0.000000 -0.533333
v 0.439200 0.000000 -0.800000
v 0.439200 0.000000 -0.533333
v 0.439200 0.016000 -0.800000
v 0.439200 0.016000 -0.533333
v 0.360800 0.000000 -0.800000
v 0.360800 0.000000 -0.533333
v 0.360800 0.016000 -0.800000
v 0.360800 0.016000 -0.533333
v -0.360800 0.000000 -0.800000
v -0.360800 0.000000 -0.533333
v -0.360800 0.016000 -0.533333
v -0.360800 0.016000 -0.800000
v -0.439200 0.000000 -0.800000
v -0.439200 0.000000 -0.533333
v -0.439200 0.016000 -0.800000
v -0.439200 0.016000 -0.533333
v -0.800000 0.000000 -0.800000
v -0.800000 0.000000 -0.533333
v 0.800000 0.000000 -0.533333
v -0.800000 0.000000 -0.533333
v 0.800000 0.000000 0.800001
v -0.800000 0.000000 0.800001
v 0.368000 0.016000 -0.541236
v 0.389949 0.025408 -0.566056
v 0.368000 0.016000 -0.605236
v 0.389949 0.025408 -0.580415
v 0.432000 0.016000 -0.541236
v 0.410051 0.025408 -0.566056
v 0.432000 0.016000 -0.605236
v 0.410051 0.025408 -0.580415
v 0.368000 0.025408 -0.541236
v 0.368000 0.025408 -0.605236
v 0.432000 0.025408 -0.605236
v 0.432000 0.025408 -0.541236
v 0.389949 0.415291 -0.566056
v 0.389949 0.415291 -0.580415
v 0.410051 0.415291 -0.580415
v 0.410051 0.415291 -0.566056
v 0.120992 0.362595 -0.566056
v 0.120992 0.410595 -0.566056
v 0.120992 0.362595 -0.580415
v 0.120992 0.410595 -0.580415
v 0.352992 0.362595 -0.566056
v 0.352992 0.410595 -0.566056
v 0.352992 0.362595 -0.580415
v 0.352992 0.410595 -0.580415
v 0.120992 0.372195 -0.566056
v 0.120992 0.400995 -0.566056
v 0.120992 0.400995 -0.580415
v 0.120992 0.372195 -0.580415
v 0.352992 0.402595 -0.580415
v 0.352992 0.370595 -0.580415
v 0.352992 0.402595 -0.566056
v 0.352992 0.370595 -0.566056
v 0.383926 0.370595 -0.580415
v 0.383926 0.362595 -0.580415
v 0.383926 0.362595 -0.566056
v 0.383926 0.410595 -0.580415
v 0.383926 0.410595 -0.566056
v 0.383926 0.370595 -0.566056
v 0.383926 0.402595 -0.580415
v 0.383926 0.402595 -0.566056
v 0.006833 0.362595 -0.580415
v 0.006833 0.362595 -0.566056
v 0.006833 0.410595 -0.566056
v 0.006833 0.410595 -0.580415
v 0.015633 0.400995 -0.580415
v 0.015633 0.372195 -0.580415
v 0.015633 0.400995 -0.566056
v 0.015633 0.372195 -0.566056
v 0.015633 0.372574 -0.566122
v 0.015633 0.400222 -0.566122
v 0.015633 0.378933 -0.580522
v 0.015633 0.393863 -0.580522
v 0.120273 0.372574 -0.566122
v 0.120273 0.400222 -0.566122
v 0.120273 0.378933 -0.580522
v 0.120273 0.393863 -0.580522
v 0.387329 0.264090 -0.544132
v 0.412212 0.264090 -0.544132
v 0.393052 0.264090 -0.558532
v 0.406489 0.264090 -0.558532
v 0.387329 0.188691 -0.544132
v 0.412212 0.188691 -0.544132
v 0.393052 0.188691 -0.558532
v 0.406489 0.188691 -0.558532
v 0.415937 0.410530 -0.317481
v 0.415937 0.362530 -0.317481
v 0.430296 0.410530 -0.317481
v 0.430296 0.362530 -0.317481
v 0.415937 0.410530 -0.549481
v 0.415937 0.362530 -0.549481
v 0.430296 0.410530 -0.549481
v 0.430296 0.362530 -0.549481
v 0.415937 0.400930 -0.317481
v 0.415937 0.372130 -0.317481
v 0.430296 0.372130 -0.317481
v 0.430296 0.400930 -0.317481
v 0.430296 0.370530 -0.549481
v 0.430296 0.402530 -0.549481
v 0.415937 0.370530 -0.549481
v 0.415937 0.402530 -0.549481
v 0.430296 0.402530 -0.580415
v 0.430296 0.410530 -0.580415
v 0.415937 0.410530 -0.580415
v 0.430296 0.362530 -0.580415
v 0.415937 0.362530 -0.580415
v 0.415937 0.402530 -0.580415
v 0.430296 0.370530 -0.580415
v 0.415937 0.370530 -0.580415
v 0.430296 0.410530 -0.203322
v 0.415937 0.410530 -0.203322
v 0.415937 0.362530 -0.203322
v 0.430296 0.362530 -0.203322
v 0.430296 0.372130 -0.212122
v 0.430296 0.400930 -0.212122
v 0.415937 0.372130 -0.212122
v 0.415937 0.400930 -0.212122
v 0.416003 0.400551 -0.212122
v 0.416003 0.372903 -0.212122
v 0.430403 0.394192 -0.212122
v 0.430403 0.379262 -0.212122
v 0.416003 0.400551 -0.316762
v 0.416003 0.372903 -0.316762
v 0.430403 0.394192 -0.316762
v 0.430403 0.379262 -0.316762
v 0.366345 0.264090 -0.587026
v 0.366345 0.264090 -0.562142
v 0.380745 0.264090 -0.581302
v 0.380745 0.264090 -0.567865
v 0.366345 0.188691 -0.587026
v 0.366345 0.188691 -0.562142
v 0.380745 0.188691 -0.581302
v 0.380745 0.188691 -0.567865
v 0.383901 0.398012 -0.564731
v 0.383901 0.415291 -0.564731
v 0.383901 0.398012 -0.582011
v 0.383901 0.415291 -0.582011
v 0.389949 0.398012 -0.564731
v 0.389949 0.415291 -0.564731
v 0.389949 0.398012 -0.582011
v 0.389949 0.415291 -0.582011
v 0.383901 0.358012 -0.564731
v 0.383901 0.375291 -0.564731
v 0.383901 0.358012 -0.582011
v 0.383901 0.375291 -0.582011
v 0.389949 0.358012 -0.564731
v 0.389949 0.375291 -0.564731
v 0.389949 0.358012 -0.582011
v 0.389949 0.375291 -0.582011
v 0.410051 0.398012 -0.564731
v 0.410051 0.415291 -0.564731
v 0.410051 0.398012 -0.582011
v 0.410051 0.415291 -0.582011
v 0.416099 0.398012 -0.564731
v 0.416099 0.415291 -0.564731
v 0.416099 0.398012 -0.582011
v 0.416099 0.415291 -0.582011
v 0.410051 0.358012 -0.564731
v 0.410051 0.375291 -0.564731
v 0.410051 0.358012 -0.582011
v 0.410051 0.375291 -0.582011
v 0.416099 0.358012 -0.564731
v 0.416099 0.375291 -0.564731
v 0.416099 0.358012 -0.582011
v 0.416099 0.375291 -0.582011
v 0.800000 0.000000 0.133334
v 0.000000 0.000000 -0.533333
v -0.800000 0.000000 0.133334
v 0.000000 0.000000 0.800001
v 0.000000 0.000000 0.133334
v 0.800000 0.000000 -0.199999
v -0.400000 0.000000 -0.533333
v -0.800000 0.000000 0.466668
v 0.400000 0.000000 0.800001
v 0.800000 0.000000 0.466668
v 0.400000 0.000000 -0.533333
v -0.800000 0.000000 -0.200000
v -0.400000 0.000000 0.800001
v 0.000000 0.000000 0.466668
v 0.000000 0.000000 -0.199999
v 0.400000 0.000000 0.133334
v -0.400000 0.000000 0.133334
v -0.400000 0.000000 -0.200000
v 0.400000 0.000000 -0.199999
v 0.400000 0.000000 0.466668
v -0.400000 0.000000 0.466668
v -0.507046 0.066274 -0.080525
v -0.507046 0.399608 -0.080525
v -0.107046 0.066274 -0.080525
v -0.107046 0.399608 -0.080525
vt 0.837638 0.537362
vt 0.875000 0.500000
vt 0.875000 0.750000
vt 0.662362 0.537362
vt 0.625000 0.750000
vt 0.625000 0.500000
vt 0.625000 0.250000
vt 0.458333 0.250000
vt 0.375000 0.250000
vt 0.541667 1.000000
vt 0.625000 1.000000
vt 0.375000 1.000000
vt 0.625000 1.000000
vt 0.375000 1.000000
vt 0.541667 1.000000
vt 0.375000 0.250000
vt 0.625000 0.250000
vt 0.458333 0.250000
vt 0.333333 0.166667
vt 0.333333 0.000000
vt 0.333333 0.000000
vt 0.333333 0.166667
vt 0.375000 0.500000
vt 0.375000 0.250000
vt 0.625000 0.250000
vt 0.625000 0.500000
vt 0.375000 0.000000
vt 0.625000 0.000000
vt 0.666667 0.000000
vt 0.666667 0.166667
vt 0.666667 0.166667
vt 0.666667 0.000000
vt 0.833333 0.166667
vt 0.833333 0.000000
vt 0.833333 0.000000
vt 0.833333 0.166667
vt 0.166667 0.166667
vt 0.000000 0.166667
vt 0.000000 0.000000
vt 0.166667 0.000000
vt 0.000000 0.000000
vt 0.000000 0.000000
vt 0.000000 0.000000
vt 0.000000 0.000000
vt 0.750000 0.750000
vt 1.000000 0.750000
vt 1.000000 1.000000
vt 0.750000 1.000000
vt 0.000000 0.000000
vt 0.000000 0.000000
vt 0.000000 0.000000
vt 0.000000 0.000000
vt 0.875000 0.500000
vt 0.625000 0.500000
vt 0.375000 0.500000
vt 0.125000 0.500000
vt 0.166667 0.166667
vt 0.375000 0.250000
vt 0.375000 0.000000
vt 0.625000 0.000000
vt 0.625000 0.250000
vt 0.166667 0.000000
vt 0.375000 0.500000
vt 0.375000 0.750000
vt 0.375000 1.000000
vt 0.625000 1.000000
vt 0.125000 0.750000
vt 0.125000 0.500000
vt 0.837638 0.712638
vt 0.837638 0.712638
vt 0.662362 0.712638
vt 0.662362 0.712638
vt 0.875000 0.750000
vt 0.875000 0.500000
vt 0.875000 0.750000
vt 0.625000 0.500000
vt 0.625000 0.750000
vt 0.625000 0.750000
vt 0.662362 0.537362
vt 0.837638 0.537362
vt 0.458333 0.500000
vt 0.375000 0.500000
vt 0.458333 0.500000
vt 0.541667 0.500000
vt 0.541667 0.500000
vt 0.625000 0.250000
vt 0.541667 0.250000
vt 0.541667 0.250000
vt 0.458333 0.250000
vt 0.375000 0.250000
vt 0.541667 0.750000
vt 0.541667 0.750000
vt 0.375000 0.750000
vt 0.458333 0.750000
vt 0.458333 0.750000
vt 0.375000 0.750000
vt 0.125000 0.750000
vt 0.125000 0.750000
vt 0.125000 0.500000
vt 0.458333 1.000000
vt 0.458333 1.000000
vt 0.375000 0.500000
vt 0.375000 0.250000
vt 0.625000 0.250000
vt 0.625000 0.500000
vt 0.375000 0.750000
vt 0.125000 0.750000
vt 0.125000 0.500000
vt 0.375000 0.750000
vt 0.625000 0.750000
vt 0.375000 0.000000
vt 0.625000 0.000000
vt 0.125000 0.750000
vt 0.125000 0.500000
vt 0.875000 0.500000
vt 0.875000 0.750000
vt 0.375000 0.500000
vt 0.375000 0.250000
vt 0.625000 0.250000
vt 0.625000 0.500000
vt 0.375000 0.750000
vt 0.625000 0.750000
vt 0.375000 0.250000
vt 0.375000 0.000000
vt 0.625000 0.000000
vt 0.625000 0.250000
vt 0.125000 0.750000
vt 0.125000 0.500000
vt 0.875000 0.500000
vt 0.875000 0.750000
vt 0.375000 0.500000
vt 0.625000 0.500000
vt 0.625000 0.750000
vt 0.375000 0.000000
vt 0.625000 0.000000
vt 0.875000 0.500000
vt 0.875000 0.750000
vt 0.375000 0.750000
vt 0.625000 0.750000
vt 0.375000 0.000000
vt 0.625000 0.000000
vt 0.125000 0.750000
vt 0.125000 0.500000
vt 0.875000 0.500000
vt 0.875000 0.750000
vt 0.375000 0.250000
vt 0.375000 0.000000
vt 0.625000 0.000000
vt 0.625000 0.250000
vt 0.375000 0.500000
vt 0.625000 0.500000
vt 0.375000 0.750000
vt 0.625000 0.750000
vt 0.375000 1.000000
vt 0.625000 1.000000
vt 0.125000 0.750000
vt 0.125000 0.500000
vt 0.875000 0.500000
vt 0.875000 0.750000
vt 0.375000 0.250000
vt 0.375000 0.000000
vt 0.625000 0.000000
vt 0.625000 0.250000
vt 0.375000 0.500000
vt 0.625000 0.500000
vt 0.375000 0.750000
vt 0.625000 0.750000
vt 0.375000 1.000000
vt 0.625000 1.000000
vt 0.125000 0.750000
vt 0.125000 0.500000
vt 0.875000 0.500000
vt 0.875000 0.750000
vt 0.375000 0.250000
vt 0.375000 0.000000
vt 0.625000 0.000000
vt 0.625000 0.250000
vt 0.375000 0.500000
vt 0.625000 0.500000
vt 0.375000 0.750000
vt 0.625000 0.750000
vt 0.375000 1.000000
vt 0.625000 1.000000
vt 0.125000 0.750000
vt 0.125000 0.500000
vt 0.875000 0.500000
vt 0.875000 0.750000
vt 0.375000 0.250000
vt 0.375000 0.000000
vt 0.625000 0.000000
vt 0.625000 0.250000
vt 0.375000 0.500000
vt 0.625000 0.500000
vt 0.375000 0.750000
vt 0.625000 0.750000
vt 0.375000 1.000000
vt 0.625000 1.000000
vt 0.125000 0.750000
vt 0.125000 0.500000
vt 0.875000 0.500000
vt 0.875000 0.750000
vt 0.458333 0.500000
vt 0.375000 0.500000
vt 0.375000 0.500000
vt 0.458333 0.500000
vt 0.541667 0.750000
vt 0.458333 0.750000
vt 0.541667 0.500000
vt 0.375000 0.000000
vt 0.625000 0.000000
vt 0.625000 0.750000
vt 0.541667 0.750000
vt 0.541667 0.500000
vt 0.625000 0.500000
vt 0.458333 0.750000
vt 0.375000 0.750000
vt 0.375000 0.750000
vt 0.625000 0.750000
vt 0.875000 0.750000
vt 0.875000 0.500000
vt 0.875000 0.500000
vt 0.875000 0.750000
vt 0.625000 0.500000
vt 0.125000 0.500000
vt 0.125000 0.750000
vt 0.125000 0.750000
vt 0.125000 0.500000
vt 0.541667 1.000000
vt 0.625000 1.000000
vt 0.375000 1.000000
vt 0.458333 1.000000
vt 0.541667 0.250000
vt 0.541667 1.000000
vt 0.625000 1.000000
vt 0.375000 1.000000
vt 0.458333 1.000000
vt 0.458333 0.250000
vt 0.375000 0.250000
vt 0.625000 0.250000
vt 0.541667 0.250000
vt 1.000000 0.166667
vt 1.000000 0.000000
vt 0.250000 0.750000
vt 0.500000 0.750000
vt 0.500000 1.000000
vt 0.250000 1.000000
vt 0.250000 0.250000
vt 0.500000 0.250000
vt 0.500000 0.500000
vt 0.250000 0.500000
vt 0.750000 0.250000
vt 1.000000 0.250000
vt 1.000000 0.500000
vt 0.750000 0.500000
vt 0.500000 0.000000
vt 0.750000 0.000000
vt 1.000000 0.000000
vt 0.000000 0.250000
vt 0.000000 0.500000
vt 0.000000 0.000000
vt 0.250000 0.000000
vt 0.000000 0.750000
vt 0.000000 1.000000
vt 0.291423 0.829352
vt 1.000101 0.829352
vt 1.000101 1.002224
vt 0.291423 1.002224
vt 0.645283 0.832610
vt 0.645283 0.303216
vt 0.825058 0.303216
vt 0.825058 0.832610
vt 0.998783 1.001179
vt 0.292793 1.001179
vt 0.292793 0.829435
vt 0.998783 0.829436
vt 0.646114 0.829241
vt 0.646114 0.315096
vt 0.825209 0.315096
vt 0.825209 0.829241
vt 0.322183 0.548575
vt 0.572183 0.548575
vt 0.572183 0.798575
vt 0.322183 0.798575
vn 0.0000 1.0000 0.0000
vn 1.0000 0.0000 0.0000
vn -1.0000 0.0000 0.0000
vn 0.0000 0.0000 1.0000
vn 0.0000 0.0000 -1.0000
vn 0.0000 -1.0000 0.0000
vn 0.4040 0.9148 0.0000
vn 0.0000 -0.9148 -0.4040
vn 0.0000 0.9148 -0.4040
vn -0.9293 0.0000 -0.3693
vn 0.9293 0.0000 -0.3693
vn 0.4040 -0.9148 0.0000
vn 0.3693 0.0000 -0.9293
vn 0.3693 0.0000 0.9293
usemtl MARSNULL
s off
f 28/1/1 34/2/1 33/3/1
f 32/4/1 36/5/1 35/6/1
f 116/7/2 118/8/2 113/9/2
f 119/10/3 115/11/3 114/12/3
f 67/13/4 66/14/4 71/15/4
f 65/16/5 68/17/5 70/18/5
f 10/19/3 9/20/3 7/21/3 8/22/3
f 127/23/2 123/24/2 124/25/2 128/26/2
f 114/27/4 115/28/4 116/7/4 113/9/4
f 14/29/2 13/30/2 12/31/2 11/32/2
f 18/33/3 17/34/3 15/35/3 16/36/3
f 4/37/1 2/38/1 1/39/1 3/40/1
f 9/41/5 5/42/5 3/43/5 7/44/5
f 189/45/1 176/46/1 24/47/1 181/48/1
f 17/49/5 14/50/5 11/51/5 15/52/5
f 18/33/4 16/36/4 12/31/4 13/30/4
f 92/53/2 96/54/2 95/55/2 91/56/2
f 8/22/4 4/37/4 6/57/4 10/19/4
f 27/58/3 25/59/3 33/60/3 34/61/3
f 10/19/1 6/57/1 5/62/1 9/20/1
f 31/63/5 27/58/5 34/61/5 35/6/5
f 29/64/2 31/63/2 35/6/2 36/5/2
f 25/65/4 29/64/4 36/5/4 33/66/4
f 25/67/6 27/68/6 31/63/6 29/64/6
f 37/69/4 26/70/4 30/71/4 40/72/4
f 90/73/6 92/53/6 116/74/6 115/75/6
f 36/5/1 30/71/1 26/70/1
f 28/1/1 32/4/1 35/6/1
f 33/3/1 36/5/1 26/70/1
f 28/1/1 35/6/1 34/2/1
f 33/3/1 26/70/1 28/1/1
f 108/76/6 96/54/6 94/77/6 109/78/6
f 96/54/6 92/53/6 90/73/6 94/77/6
f 40/72/1 39/79/1 38/80/1 37/69/1
f 32/4/1 30/71/1 36/5/1
f 39/79/5 32/4/5 28/1/5 38/80/5
f 40/72/2 30/71/2 32/4/2 39/79/2
f 38/80/3 28/1/3 26/70/3 37/69/3
f 105/81/2 106/82/2 95/55/2 102/83/2
f 108/76/2 111/84/2 101/85/2 96/54/2
f 116/7/2 92/86/2 117/87/2
f 92/86/2 99/88/2 117/87/2
f 100/89/2 91/90/2 118/8/2
f 91/90/2 113/9/2 118/8/2
f 116/7/2 117/87/2 118/8/2
f 112/91/3 109/78/3 94/77/3 103/92/3
f 107/93/3 110/94/3 104/95/3 93/96/3
f 110/94/6 105/81/6 102/83/6 104/95/6
f 110/94/5 107/93/5 106/82/5 105/81/5
f 109/78/5 112/91/5 111/84/5 108/76/5
f 103/92/5 104/95/5 102/83/5 101/85/5
f 91/56/1 89/97/1 114/98/1 113/99/1
f 107/93/1 93/96/1 95/55/1 106/82/1
f 93/96/1 89/97/1 91/56/1 95/55/1
f 100/89/6 118/8/6 120/100/6 97/101/6
f 79/102/5 75/103/5 76/104/5 80/105/5
f 125/106/7 121/107/7 123/108/7 127/23/7
f 77/109/2 79/102/2 80/105/2 78/110/2
f 123/24/4 121/111/4 122/112/4 124/25/4
f 73/113/8 75/114/8 79/102/8 77/109/8
f 78/110/9 80/105/9 76/115/9 74/116/9
f 87/117/5 83/118/5 84/119/5 88/120/5
f 85/121/6 87/117/6 88/120/6 86/122/6
f 131/123/1 129/124/1 130/125/1 132/126/1
f 81/127/10 83/128/10 87/117/10 85/121/10
f 86/122/11 88/120/11 84/129/11 82/130/11
f 135/131/2 131/123/2 132/126/2 136/132/2
f 125/106/5 127/23/5 128/26/5 126/133/5
f 83/118/1 81/134/1 82/135/1 84/119/1
f 126/133/12 128/26/12 124/136/12 122/137/12
f 90/73/3 89/97/3 93/96/3 94/77/3
f 133/138/6 135/131/6 136/132/6 134/139/6
f 75/103/3 73/140/3 74/141/3 76/104/3
f 129/142/13 131/143/13 135/131/13 133/138/13
f 134/139/14 136/132/14 132/144/14 130/145/14
f 139/146/3 137/147/3 138/148/3 140/149/3
f 143/150/5 139/146/5 140/149/5 144/151/5
f 141/152/2 143/150/2 144/151/2 142/153/2
f 137/154/4 141/152/4 142/153/4 138/155/4
f 137/156/6 139/157/6 143/150/6 141/152/6
f 142/153/1 144/151/1 140/158/1 138/159/1
f 147/160/3 145/161/3 146/162/3 148/163/3
f 151/164/5 147/160/5 148/163/5 152/165/5
f 149/166/2 151/164/2 152/165/2 150/167/2
f 145/168/4 149/166/4 150/167/4 146/169/4
f 145/170/6 147/171/6 151/164/6 149/166/6
f 150/167/1 152/165/1 148/172/1 146/173/1
f 155/174/3 153/175/3 154/176/3 156/177/3
f 159/178/5 155/174/5 156/177/5 160/179/5
f 157/180/2 159/178/2 160/179/2 158/181/2
f 153/182/4 157/180/4 158/181/4 154/183/4
f 153/184/6 155/185/6 159/178/6 157/180/6
f 158/181/1 160/179/1 156/186/1 154/187/1
f 163/188/3 161/189/3 162/190/3 164/191/3
f 167/192/5 163/188/5 164/191/5 168/193/5
f 165/194/2 167/192/2 168/193/2 166/195/2
f 161/196/4 165/194/4 166/195/4 162/197/4
f 161/198/6 163/199/6 167/192/6 165/194/6
f 166/195/1 168/193/1 164/200/1 162/201/1
f 57/202/5 58/203/5 47/204/5 54/205/5
f 111/84/1 112/91/1 103/92/1 101/85/1
f 55/206/2 56/207/2 54/205/2 53/208/2
f 65/16/3 66/209/3 67/210/3 68/17/3
f 61/211/2 64/212/2 63/213/2 60/214/2
f 62/215/2 59/216/2 58/203/2 57/202/2
f 62/215/1 57/202/1 54/205/1 56/207/1
f 59/216/4 62/215/4 56/207/4 45/217/4
f 64/212/4 61/211/4 46/218/4 55/206/4
f 42/219/1 44/220/1 68/221/1 67/222/1
f 60/214/1 48/223/1 46/218/1 61/211/1
f 48/223/1 44/220/1 42/219/1 46/218/1
f 60/214/5 63/213/5 53/208/5 48/223/5
f 63/213/6 64/212/6 55/206/6 53/208/6
f 43/224/6 41/225/6 66/226/6 65/227/6
f 18/33/1 13/30/1 14/29/1 17/34/1
f 119/10/3 98/228/3 90/229/3
f 114/12/3 89/230/3 120/100/3
f 89/230/3 97/101/3 120/100/3
f 119/10/3 90/229/3 115/11/3
f 114/12/3 120/100/3 119/10/3
f 7/21/1 11/32/1 12/31/1 8/22/1
f 45/217/6 41/225/6 43/224/6 47/204/6
f 59/216/6 45/217/6 47/204/6 58/203/6
f 71/15/2 72/231/2 70/18/2 69/232/2
f 50/233/4 42/234/4 71/15/4
f 42/234/4 67/13/4 71/15/4
f 66/14/4 41/235/4 72/231/4
f 41/235/4 49/236/4 72/231/4
f 66/14/4 72/231/4 71/15/4
f 52/237/5 43/238/5 70/18/5
f 43/238/5 65/16/5 70/18/5
f 68/17/5 44/239/5 69/232/5
f 44/239/5 51/240/5 69/232/5
f 68/17/5 69/232/5 70/18/5
f 52/237/1 70/18/1 72/231/1 49/236/1
f 51/240/3 52/237/3 49/236/3 50/233/3
f 50/233/6 71/15/6 69/232/6 51/240/6
f 99/88/4 100/89/4 97/101/4 98/228/4
f 98/228/1 119/10/1 117/87/1 99/88/1
f 119/10/5 120/100/5 118/8/5 117/87/5
f 42/219/4 41/225/4 45/217/4 46/218/4
f 48/223/5 47/204/5 43/224/5 44/220/5
f 20/241/1 16/36/1 15/35/1 19/242/1
f 5/62/2 6/57/2 4/37/2 3/40/2
f 188/243/1 182/244/1 172/245/1 177/246/1
f 187/247/1 183/248/1 173/249/1 184/250/1
f 186/251/1 180/252/1 171/253/1 185/254/1
f 183/248/1 186/251/1 185/254/1 173/249/1
f 170/255/1 175/256/1 186/251/1 183/248/1
f 175/256/1 22/257/1 180/252/1 186/251/1
f 174/258/1 187/247/1 184/250/1 169/259/1
f 21/260/1 179/261/1 187/247/1 174/258/1
f 179/261/1 170/255/1 183/248/1 187/247/1
f 178/262/1 188/243/1 177/246/1 23/263/1
f 169/259/1 184/250/1 188/243/1 178/262/1
f 184/250/1 173/249/1 182/244/1 188/243/1
f 182/244/1 189/45/1 181/48/1 172/245/1
f 173/249/1 185/254/1 189/45/1 182/244/1
f 185/254/1 171/253/1 176/46/1 189/45/1
usemtl marscity.002
f 73/264/4 77/265/4 78/266/4 74/267/4
f 81/268/4 85/269/4 86/270/4 82/271/4
f 121/272/3 125/273/3 126/274/3 122/275/3
f 129/276/3 133/277/3 134/278/3 130/279/3
f 193/280/4 191/281/4 190/282/4 192/283/4
