# Blender v2.92.0 OBJ File: 'marscity.blend'
# www.blender.org
mtllib city_floor.mtl
o city_floor_Plane.008
v -0.800000 0.000000 0.799999
v 0.800000 0.000000 0.799999
v -0.800000 0.000000 -0.800001
v 0.800000 0.000000 -0.800001
v -0.800000 0.000000 -0.000001
v 0.000000 0.000000 0.799999
v 0.800000 0.000000 -0.000001
v 0.000000 0.000000 -0.800001
v 0.000000 0.000000 -0.000001
vt 0.000000 0.500000
vt 0.000000 0.000000
vt 0.500000 0.000000
vt 0.500000 0.500000
vt 1.000000 0.000000
vt 1.000000 0.500000
vt 1.000000 1.000000
vt 0.500000 1.000000
vt 0.000000 1.000000
vn 0.0000 1.0000 0.0000
usemtl MARSNULL
s off
f 5/1/1 1/2/1 6/3/1 9/4/1
f 9/4/1 6/3/1 2/5/1 7/6/1
f 7/6/1 4/7/1 8/8/1 9/4/1
f 8/8/1 3/9/1 5/1/1 9/4/1
