# Blender v2.92.0 OBJ File: 'marscity.blend'
# www.blender.org
mtllib city_kfc.mtl
o city_kfc_Plane.003
v -0.800000 0.016000 0.800000
v 0.800000 0.016000 0.800000
v -0.800000 0.016000 -0.800000
v 0.800000 0.016000 -0.800000
v -0.350746 0.016000 0.657439
v -0.350746 0.400000 0.657439
v -0.350746 0.016000 -0.465093
v -0.350746 0.400000 -0.465093
v 0.092000 0.016000 0.657439
v 0.092000 0.400000 0.657439
v 0.092000 0.016000 -0.465093
v 0.092000 0.400000 -0.465093
v -0.350746 0.016000 0.125247
v -0.350746 0.016000 0.381404
v -0.350746 0.400000 0.381404
v -0.350746 0.400000 0.125247
v 0.092000 0.016000 0.381404
v 0.092000 0.016000 0.125247
v 0.092000 0.400000 0.125247
v 0.092000 0.400000 0.381404
v -0.350746 0.233989 0.657439
v -0.350746 0.337989 0.657439
v -0.350746 0.337989 -0.465093
v -0.350746 0.233989 -0.465093
v 0.092000 0.337989 -0.465093
v 0.092000 0.233989 -0.465093
v 0.092000 0.337989 0.657439
v 0.092000 0.233989 0.657439
v 0.092000 0.337989 0.125247
v 0.092000 0.233989 0.125247
v 0.092000 0.337989 0.381404
v 0.092000 0.233989 0.381404
v -0.350746 0.337989 0.381404
v -0.350746 0.233989 0.381404
v -0.350746 0.337989 0.125247
v -0.350746 0.233989 0.125247
v -0.430746 0.233989 0.657439
v -0.430746 0.273989 0.657439
v -0.430746 0.273989 -0.465093
v -0.430746 0.233989 -0.465093
v -0.430746 0.273989 0.381404
v -0.430746 0.233989 0.381404
v -0.430746 0.273989 0.125247
v -0.430746 0.233989 0.125247
v -0.350746 0.357072 0.381404
v -0.350746 0.357072 0.125247
v -0.490244 0.233989 0.381404
v -0.490244 0.233989 0.125247
v -0.490244 0.277072 0.381404
v -0.490244 0.277072 0.125247
v -0.350746 0.432000 0.381404
v -0.350746 0.432000 0.125247
v 0.092000 0.432000 0.125247
v 0.092000 0.432000 0.381404
v -0.800000 0.016000 -0.266667
v -0.800000 0.016000 0.266667
v -0.266667 0.016000 0.800000
v 0.266667 0.016000 0.800000
v 0.800000 0.016000 0.266667
v 0.800000 0.016000 -0.266667
v 0.266667 0.016000 -0.800000
v -0.266667 0.016000 -0.800000
v -0.266667 0.016000 0.266667
v -0.266667 0.016000 -0.266667
v 0.266667 0.016000 0.266667
v 0.266667 0.016000 -0.266667
v -0.350746 0.233989 0.737439
v -0.350746 0.273989 0.737439
v 0.092000 0.273989 0.737439
v 0.092000 0.233989 0.737439
v -0.689333 0.931532 0.514134
v -0.661705 0.903903 0.514134
v -0.687981 0.922994 0.514134
v -0.684057 0.915292 0.514134
v -0.677944 0.909180 0.514134
v -0.670242 0.905255 0.514134
v -0.661705 1.103903 0.514134
v -0.689333 1.076274 0.514134
v -0.670242 1.102551 0.514134
v -0.677944 1.098626 0.514134
v -0.684057 1.092514 0.514134
v -0.687981 1.084812 0.514134
v -0.661705 0.903903 0.552534
v -0.689333 0.931532 0.552534
v -0.670242 0.905255 0.552534
v -0.677944 0.909180 0.552534
v -0.684057 0.915292 0.552534
v -0.687981 0.922994 0.552534
v -0.689333 1.076274 0.552534
v -0.661705 1.103903 0.552534
v -0.687981 1.084812 0.552534
v -0.684057 1.092514 0.552534
v -0.677944 1.098626 0.552534
v -0.670242 1.102551 0.552534
v -0.404962 0.903903 0.514134
v -0.377333 0.931532 0.514134
v -0.396425 0.905255 0.514134
v -0.388722 0.909180 0.514134
v -0.382610 0.915292 0.514134
v -0.378686 0.922994 0.514134
v -0.377333 1.076274 0.514134
v -0.404962 1.103903 0.514134
v -0.378686 1.084812 0.514134
v -0.382610 1.092514 0.514134
v -0.388722 1.098626 0.514134
v -0.396425 1.102551 0.514134
v -0.377333 0.931532 0.552534
v -0.404962 0.903903 0.552534
v -0.378686 0.922994 0.552534
v -0.382610 0.915292 0.552534
v -0.388722 0.909180 0.552534
v -0.396425 0.905255 0.552534
v -0.404962 1.103903 0.552534
v -0.377333 1.076274 0.552534
v -0.396425 1.102551 0.552534
v -0.388722 1.098626 0.552534
v -0.382610 1.092514 0.552534
v -0.378686 1.084812 0.552534
v -0.533333 0.016000 0.523333
v -0.533333 0.903903 0.523333
v -0.527456 0.016000 0.525243
v -0.527456 0.903903 0.525243
v -0.523823 0.016000 0.530243
v -0.523823 0.903903 0.530243
v -0.523823 0.016000 0.536424
v -0.523823 0.903903 0.536424
v -0.527456 0.016000 0.541424
v -0.527456 0.903903 0.541424
v -0.533333 0.016000 0.543333
v -0.533333 0.903903 0.543333
v -0.539211 0.016000 0.541424
v -0.539211 0.903903 0.541424
v -0.542844 0.016000 0.536424
v -0.542844 0.903903 0.536424
v -0.542844 0.016000 0.530243
v -0.542844 0.903903 0.530243
v -0.539211 0.016000 0.525243
v -0.539211 0.903903 0.525243
vt 0.666667 0.666667
vt 1.000000 0.666667
vt 1.000000 1.000000
vt 0.666667 1.000000
vt 0.584628 0.133759
vt 0.625000 0.133759
vt 0.625000 0.250000
vt 0.584628 0.250000
vt 0.625000 0.500000
vt 0.584628 0.500000
vt 0.584628 0.699574
vt 0.625000 0.699574
vt 0.625000 0.750000
vt 0.584628 0.750000
vt 0.625000 1.000000
vt 0.584628 1.000000
vt 0.875000 0.699574
vt 0.875000 0.750000
vt 0.875000 0.500000
vt 0.875000 0.616241
vt 0.625000 0.616241
vt 0.875000 0.616241
vt 0.625000 0.616241
vt 0.584628 0.616241
vt 0.584628 0.000000
vt 0.625000 0.000000
vt 0.625000 0.050426
vt 0.584628 0.050426
vt 0.000000 0.000000
vt 0.000000 0.000000
vt 0.375000 0.050426
vt 0.501295 0.050426
vt 0.501295 0.133759
vt 0.375000 0.133759
vt 0.501295 0.000000
vt 0.501295 0.000000
vt 0.501295 0.050426
vt 0.375000 0.000000
vt 0.584628 0.250000
vt 0.584628 0.133759
vt 0.375000 0.616241
vt 0.501295 0.616241
vt 0.501295 0.699574
vt 0.375000 0.699574
vt 0.375000 0.500000
vt 0.501295 0.500000
vt 0.375000 0.750000
vt 0.501295 0.750000
vt 0.501295 1.000000
vt 0.375000 1.000000
vt 0.501295 0.750000
vt 0.501295 1.000000
vt 0.375000 0.250000
vt 0.501295 0.250000
vt 0.000000 0.000000
vt 0.000000 0.000000
vt 0.000000 0.000000
vt 0.000000 0.000000
vt 0.000000 0.000000
vt 0.000000 0.000000
vt 0.000000 0.000000
vt 0.000000 0.000000
vt 0.584628 0.000000
vt 0.584628 0.050426
vt 0.501295 0.133759
vt 0.501295 0.250000
vt 0.584628 1.000000
vt 0.501295 1.000000
vt 0.501295 0.050426
vt 0.501295 0.133759
vt 0.000000 0.000000
vt 0.000000 0.000000
vt 0.000000 0.000000
vt 0.000000 0.000000
vt 0.875000 0.699574
vt 0.625000 0.699574
vt 0.000000 0.666667
vt 0.333333 0.666667
vt 0.333333 1.000000
vt 0.000000 1.000000
vt 0.000000 0.000000
vt 0.333333 0.000000
vt 0.333333 0.333333
vt 0.000000 0.333333
vt 0.666667 0.000000
vt 0.666667 0.333333
vt 1.000000 0.000000
vt 1.000000 0.333333
vt 0.584628 0.750000
vt 0.584628 1.000000
vt 0.625000 0.977861
vt 0.611818 0.995772
vt 0.593022 1.000000
vt 0.406978 0.500000
vt 0.593022 0.500000
vt 0.593022 0.750000
vt 0.406978 0.750000
vt 0.647139 0.500000
vt 0.852862 0.500000
vt 0.852862 0.750000
vt 0.647139 0.750000
vt 0.406978 0.000000
vt 0.593022 0.000000
vt 0.593022 0.250000
vt 0.406978 0.250000
vt 0.397096 0.499639
vt 0.370952 0.496958
vt 0.375000 0.477861
vt 0.147139 0.500000
vt 0.147139 0.750000
vt 0.140297 0.750000
vt 0.140297 0.500000
vt 0.134126 0.750000
vt 0.134126 0.500000
vt 0.125000 0.750000
vt 0.125000 0.500000
vt 0.388182 0.250000
vt 0.388182 0.000000
vt 0.397096 0.000000
vt 0.397096 0.250000
vt 0.859703 0.500000
vt 0.859703 0.750000
vt 0.865874 0.500000
vt 0.865874 0.750000
vt 0.625000 0.000000
vt 0.625000 0.250000
vt 0.611818 0.250000
vt 0.611818 0.000000
vt 0.602904 0.250000
vt 0.602904 0.000000
vt 0.352861 0.750000
vt 0.352861 0.500000
vt 0.365323 0.494901
vt 0.365323 0.755099
vt 0.370952 0.753042
vt 0.388182 0.498591
vt 0.388182 0.751409
vt 0.397096 0.750361
vt 0.634676 0.755099
vt 0.634677 0.494901
vt 0.629048 0.753042
vt 0.629048 0.496958
vt 0.611818 0.751409
vt 0.611818 0.498591
vt 0.602904 0.750361
vt 0.602904 0.499639
vt 0.375000 0.272139
vt 0.376565 0.265297
vt 0.388182 0.254228
vt 0.625000 0.272139
vt 0.381107 0.259126
vt 0.397096 0.251084
vt 0.602904 0.251084
vt 0.611818 0.254228
vt 0.618893 0.259126
vt 0.623435 0.265297
vt 0.375000 0.772139
vt 0.625000 0.477861
vt 0.625000 0.772139
vt 0.623435 0.984703
vt 0.375000 0.977861
vt 0.618893 0.990874
vt 0.602904 0.998916
vt 0.406978 1.000000
vt 0.397096 0.998916
vt 0.388182 0.995772
vt 0.381107 0.990874
vt 0.376565 0.984703
vt 1.000000 0.500000
vt 1.000000 1.000000
vt 0.900000 1.000000
vt 0.900000 0.500000
vt 0.800000 1.000000
vt 0.800000 0.500000
vt 0.700000 1.000000
vt 0.700000 0.500000
vt 0.600000 1.000000
vt 0.600000 0.500000
vt 0.500000 1.000000
vt 0.500000 0.500000
vt 0.400000 1.000000
vt 0.400000 0.500000
vt 0.300000 1.000000
vt 0.300000 0.500000
vt 0.200000 1.000000
vt 0.200000 0.500000
vt 0.391068 0.444164
vt 0.250000 0.489999
vt 0.108931 0.444164
vt 0.021745 0.324162
vt 0.021745 0.175835
vt 0.108931 0.055835
vt 0.250000 0.009999
vt 0.391068 0.055835
vt 0.478254 0.175835
vt 0.478254 0.324162
vt 0.100000 1.000000
vt 0.100000 0.500000
vt -0.000000 1.000000
vt -0.000000 0.500000
vt 0.750000 0.489999
vt 0.891068 0.444164
vt 0.978254 0.324162
vt 0.978254 0.175835
vt 0.891068 0.055835
vt 0.750000 0.009999
vt 0.608931 0.055835
vt 0.521745 0.175835
vt 0.521745 0.324162
vt 0.608931 0.444164
vn 0.0000 1.0000 0.0000
vn -1.0000 0.0000 0.0000
vn 0.0000 0.0000 -1.0000
vn 1.0000 0.0000 0.0000
vn 0.0000 0.0000 1.0000
vn 0.0000 -1.0000 0.0000
vn -0.6247 0.7809 0.0000
vn -0.4975 0.8675 0.0000
vn 0.0000 0.7809 0.6247
vn 0.1564 0.9877 0.0000
vn 0.4540 0.8910 0.0000
vn 0.7071 0.7071 0.0000
vn 0.8910 0.4540 0.0000
vn 0.9877 0.1564 0.0000
vn 0.1564 -0.9877 0.0000
vn 0.4540 -0.8910 0.0000
vn 0.7071 -0.7071 0.0000
vn 0.8910 -0.4540 0.0000
vn 0.9877 -0.1564 0.0000
vn -0.1564 0.9877 0.0000
vn -0.4540 0.8910 0.0000
vn -0.7071 0.7071 0.0000
vn -0.8910 0.4540 0.0000
vn -0.9877 0.1564 0.0000
vn -0.1564 -0.9877 0.0000
vn -0.4540 -0.8910 0.0000
vn -0.7071 -0.7071 0.0000
vn -0.8910 -0.4540 0.0000
vn -0.9877 -0.1564 0.0000
vn 0.3090 0.0000 -0.9511
vn 0.8090 0.0000 -0.5878
vn 0.8090 0.0000 0.5878
vn 0.3090 0.0000 0.9511
vn -0.3090 0.0000 0.9511
vn -0.8090 0.0000 0.5878
vn -0.8090 0.0000 -0.5878
vn -0.3090 0.0000 -0.9511
usemtl MARSNULL
s off
f 66/1/1 60/2/1 4/3/1 61/4/1
f 35/5/2 16/6/2 8/7/2 23/8/2
f 23/8/3 8/7/3 12/9/3 25/10/3
f 31/11/4 20/12/4 10/13/4 27/14/4
f 27/14/5 10/13/5 6/15/5 22/16/5
f 20/12/1 15/17/1 6/18/1 10/13/1
f 12/9/1 8/19/1 16/20/1 19/21/1
f 19/21/3 16/20/3 52/22/3 53/23/3
f 25/10/4 12/9/4 19/21/4 29/24/4
f 29/24/4 19/21/4 20/12/4 31/11/4
f 22/25/2 6/26/2 15/27/2 33/28/2
f 16/20/2 46/29/2 45/30/2 15/17/2
f 14/31/2 34/32/2 36/33/2 13/34/2
f 34/32/6 21/35/6 37/36/6 42/37/6
f 5/38/2 21/35/2 34/32/2 14/31/2
f 35/5/7 23/8/7 39/39/7 43/40/7
f 18/41/4 30/42/4 32/43/4 17/44/4
f 30/42/4 29/24/4 31/11/4 32/43/4
f 11/45/4 26/46/4 30/42/4 18/41/4
f 26/46/4 25/10/4 29/24/4 30/42/4
f 9/47/5 28/48/5 21/49/5 5/50/5
f 21/49/6 28/48/6 70/51/6 67/52/6
f 17/44/4 32/43/4 28/48/4 9/47/4
f 32/43/4 31/11/4 27/14/4 28/48/4
f 7/53/3 24/54/3 26/46/3 11/45/3
f 24/54/3 23/8/3 25/10/3 26/46/3
f 13/34/2 36/33/2 24/54/2 7/53/2
f 42/55/3 41/56/3 33/57/3 34/58/3
f 36/59/5 35/60/5 43/61/5 44/62/5
f 37/36/2 38/63/2 41/64/2 42/37/2
f 44/65/2 43/40/2 39/39/2 40/66/2
f 23/8/3 24/54/3 40/66/3 39/39/3
f 21/49/5 22/16/5 38/67/5 37/68/5
f 24/54/6 36/33/6 44/65/6 40/66/6
f 22/25/7 33/28/7 41/64/7 38/63/7
f 36/33/6 34/32/6 47/69/6 48/70/6
f 48/70/2 47/69/2 49/71/2 50/72/2
f 45/30/8 46/29/8 50/72/8 49/71/8
f 34/58/5 45/30/5 49/71/5 47/73/5
f 46/29/3 36/59/3 48/74/3 50/72/3
f 53/23/1 52/22/1 51/75/1 54/76/1
f 15/17/5 20/12/5 54/76/5 51/75/5
f 20/12/4 19/21/4 53/23/4 54/76/4
f 16/20/2 15/17/2 51/75/2 52/22/2
f 55/77/1 64/78/1 62/79/1 3/80/1
f 64/78/1 66/1/1 61/4/1 62/79/1
f 1/81/1 57/82/1 63/83/1 56/84/1
f 56/84/1 63/83/1 64/78/1 55/77/1
f 57/82/1 58/85/1 65/86/1 63/83/1
f 63/83/1 65/86/1 66/1/1 64/78/1
f 58/85/1 2/87/1 59/88/1 65/86/1
f 65/86/1 59/88/1 60/2/1 66/1/1
f 70/51/5 69/89/5 68/90/5 67/52/5
f 28/48/4 27/14/4 69/89/4 70/51/4
f 27/14/9 22/16/9 68/90/9 69/89/9
f 22/16/2 21/49/2 67/52/2 68/90/2
f 77/91/5 81/92/5 78/93/5
f 107/94/2 114/95/2 101/96/2 96/97/2
f 113/98/6 90/99/6 77/100/6 102/101/6
f 71/102/4 78/103/4 89/104/4 84/105/4
f 109/106/3 111/107/3 108/108/3
f 83/109/10 72/110/10 76/111/10 85/112/10
f 85/112/11 76/111/11 75/113/11 86/114/11
f 86/114/12 75/113/12 74/115/12 87/116/12
f 87/117/13 74/118/13 73/119/13 88/120/13
f 88/120/14 73/119/14 71/102/14 84/105/14
f 77/100/15 90/99/15 94/121/15 79/122/15
f 79/122/16 94/121/16 93/123/16 80/124/16
f 80/125/17 93/126/17 92/127/17 81/128/17
f 81/128/18 92/127/18 91/129/18 82/130/18
f 82/130/19 91/129/19 89/104/19 78/103/19
f 95/131/20 108/132/20 112/133/20 97/134/20
f 97/134/21 112/133/21 111/107/21 98/135/21
f 98/135/22 111/107/22 110/136/22 99/137/22
f 99/137/23 110/136/23 109/106/23 100/138/23
f 100/138/24 109/106/24 107/94/24 96/97/24
f 113/98/25 102/101/25 106/139/25 115/140/25
f 115/140/26 106/139/26 105/141/26 116/142/26
f 116/142/27 105/141/27 104/143/27 117/144/27
f 117/144/28 104/143/28 103/145/28 118/146/28
f 118/146/29 103/145/29 101/96/29 114/95/29
f 83/109/1 108/132/1 95/131/1 72/110/1
f 83/147/3 85/148/3 87/149/3
f 90/150/3 83/147/3 84/105/3
f 85/148/3 86/151/3 87/149/3
f 87/149/3 88/152/3 84/105/3
f 84/105/3 89/104/3 90/150/3
f 89/104/3 91/153/3 90/150/3
f 91/153/3 92/154/3 93/155/3
f 93/155/3 94/156/3 91/153/3
f 94/156/3 90/150/3 91/153/3
f 95/157/5 97/134/5 99/137/5
f 113/158/3 115/140/3 117/144/3
f 108/108/3 113/158/3 114/95/3
f 115/140/3 116/142/3 117/144/3
f 117/144/3 118/146/3 114/95/3
f 114/95/3 107/94/3 108/108/3
f 107/94/3 109/106/3 108/108/3
f 109/106/3 110/136/3 111/107/3
f 111/107/3 112/133/3 108/108/3
f 83/147/3 87/149/3 84/105/3
f 113/158/3 117/144/3 114/95/3
f 90/150/3 113/158/3 108/108/3 83/147/3
f 102/159/5 95/157/5 96/97/5
f 97/134/5 98/135/5 99/137/5
f 99/137/5 100/138/5 96/97/5
f 96/97/5 101/96/5 102/159/5
f 101/96/5 103/145/5 102/159/5
f 103/145/5 104/143/5 105/141/5
f 105/141/5 106/139/5 103/145/5
f 106/139/5 102/159/5 103/145/5
f 77/91/5 79/160/5 81/92/5
f 72/161/5 77/91/5 78/93/5
f 79/160/5 80/162/5 81/92/5
f 81/92/5 82/163/5 78/93/5
f 78/93/5 71/164/5 72/161/5
f 71/164/5 73/165/5 72/161/5
f 73/165/5 74/166/5 72/161/5
f 74/166/5 75/167/5 72/161/5
f 75/167/5 76/168/5 72/161/5
f 95/157/5 99/137/5 96/97/5
f 102/159/5 77/91/5 72/161/5 95/157/5
f 119/169/30 120/170/30 122/171/30 121/172/30
f 121/172/31 122/171/31 124/173/31 123/174/31
f 123/174/4 124/173/4 126/175/4 125/176/4
f 125/176/32 126/175/32 128/177/32 127/178/32
f 127/178/33 128/177/33 130/179/33 129/180/33
f 129/180/34 130/179/34 132/181/34 131/182/34
f 131/182/35 132/181/35 134/183/35 133/184/35
f 133/184/2 134/183/2 136/185/2 135/186/2
f 122/187/1 120/188/1 138/189/1 136/190/1 134/191/1 132/192/1 130/193/1 128/194/1 126/195/1 124/196/1
f 135/186/36 136/185/36 138/197/36 137/198/36
f 137/198/37 138/197/37 120/199/37 119/200/37
f 119/201/6 121/202/6 123/203/6 125/204/6 127/205/6 129/206/6 131/207/6 133/208/6 135/209/6 137/210/6
