# Blender v2.92.0 OBJ File: 'marscity.blend'
# www.blender.org
mtllib city_kfc.mtl
o city_kfc_Plane.003
v -0.800000 0.016000 0.800000
v 0.800000 0.016000 0.800000
v -0.800000 0.016000 -0.800000
v 0.800000 0.016000 -0.800000
v -0.350746 0.016000 0.657439
v -0.350746 0.400000 0.657439
v -0.350746 0.016000 -0.465093
v -0.350746 0.400000 -0.465093
v 0.092000 0.016000 0.657439
v 0.092000 0.400000 0.657439
v 0.092000 0.016000 -0.465093
v 0.092000 0.400000 -0.465093
v -0.350746 0.016000 0.125247
v -0.350746 0.016000 0.381404
v -0.350746 0.400000 0.381404
v -0.350746 0.400000 0.125247
v 0.092000 0.016000 0.381404
v 0.092000 0.016000 0.125247
v 0.092000 0.400000 0.125247
v 0.092000 0.400000 0.381404
v -0.350746 0.233989 0.657439
v -0.350746 0.337989 0.657439
v -0.350746 0.337989 -0.465093
v -0.350746 0.233989 -0.465093
v 0.092000 0.337989 -0.465093
v 0.092000 0.233989 -0.465093
v 0.092000 0.337989 0.657439
v 0.092000 0.233989 0.657439
v 0.092000 0.337989 0.125247
v 0.092000 0.233989 0.125247
v 0.092000 0.337989 0.381404
v 0.092000 0.233989 0.381404
v -0.350746 0.337989 0.381404
v -0.350746 0.233989 0.381404
v -0.350746 0.337989 0.125247
v -0.350746 0.233989 0.125247
v -0.430746 0.233989 0.657439
v -0.430746 0.273989 0.657439
v -0.430746 0.273989 -0.465093
v -0.430746 0.233989 -0.465093
v -0.430746 0.273989 0.381404
v -0.430746 0.233989 0.381404
v -0.430746 0.273989 0.125247
v -0.430746 0.233989 0.125247
v -0.350746 0.357072 0.381404
v -0.350746 0.357072 0.125247
v -0.490244 0.233989 0.381404
v -0.490244 0.233989 0.125247
v -0.490244 0.277072 0.381404
v -0.490244 0.277072 0.125247
v -0.350746 0.432000 0.381404
v -0.350746 0.432000 0.125247
v 0.092000 0.432000 0.125247
v 0.092000 0.432000 0.381404
v -0.800000 0.016000 -0.266667
v -0.800000 0.016000 0.266667
v -0.266667 0.016000 0.800000
v 0.266667 0.016000 0.800000
v 0.800000 0.016000 0.266667
v 0.800000 0.016000 -0.266667
v 0.266667 0.016000 -0.800000
v -0.266667 0.016000 -0.800000
v -0.266667 0.016000 0.266667
v -0.266667 0.016000 -0.266667
v 0.266667 0.016000 0.266667
v 0.266667 0.016000 -0.266667
v -0.350746 0.233989 0.737439
v -0.350746 0.273989 0.737439
v 0.092000 0.273989 0.737439
v 0.092000 0.233989 0.737439
v -0.689333 0.931532 0.514134
v -0.661705 0.903903 0.514134
v -0.687981 0.922994 0.514134
v -0.684057 0.915292 0.514134
v -0.677944 0.909180 0.514134
v -0.670242 0.905255 0.514134
v -0.661705 1.103903 0.514134
v -0.689333 1.076274 0.514134
v -0.670242 1.102551 0.514134
v -0.677944 1.098626 0.514134
v -0.684057 1.092514 0.514134
v -0.687981 1.084812 0.514134
v -0.661705 0.903903 0.552534
v -0.689333 0.931532 0.552534
v -0.670242 0.905255 0.552534
v -0.677944 0.909180 0.552534
v -0.684057 0.915292 0.552534
v -0.687981 0.922994 0.552534
v -0.689333 1.076274 0.552534
v -0.661705 1.103903 0.552534
v -0.687981 1.084812 0.552534
v -0.684057 1.092514 0.552534
v -0.677944 1.098626 0.552534
v -0.670242 1.102551 0.552534
v -0.404962 0.903903 0.514134
v -0.377333 0.931532 0.514134
v -0.396425 0.905255 0.514134
v -0.388722 0.909180 0.514134
v -0.382610 0.915292 0.514134
v -0.378686 0.922994 0.514134
v -0.377333 1.076274 0.514134
v -0.404962 1.103903 0.514134
v -0.378686 1.084812 0.514134
v -0.382610 1.092514 0.514134
v -0.388722 1.098626 0.514134
v -0.396425 1.102551 0.514134
v -0.377333 0.931532 0.552534
v -0.404962 0.903903 0.552534
v -0.378686 0.922994 0.552534
v -0.382610 0.915292 0.552534
v -0.388722 0.909180 0.552534
v -0.396425 0.905255 0.552534
v -0.404962 1.103903 0.552534
v -0.377333 1.076274 0.552534
v -0.396425 1.102551 0.552534
v -0.388722 1.098626 0.552534
v -0.382610 1.092514 0.552534
v -0.378686 1.084812 0.552534
v -0.533333 0.016000 0.523333
v -0.533333 0.903903 0.523333
v -0.527456 0.016000 0.525243
v -0.527456 0.903903 0.525243
v -0.523823 0.016000 0.530243
v -0.523823 0.903903 0.530243
v -0.523823 0.016000 0.536424
v -0.523823 0.903903 0.536424
v -0.527456 0.016000 0.541424
v -0.527456 0.903903 0.541424
v -0.533333 0.016000 0.543333
v -0.533333 0.903903 0.543333
v -0.539211 0.016000 0.541424
v -0.539211 0.903903 0.541424
v -0.542844 0.016000 0.536424
v -0.542844 0.903903 0.536424
v -0.542844 0.016000 0.530243
v -0.542844 0.903903 0.530243
v -0.539211 0.016000 0.525243
v -0.539211 0.903903 0.525243
vt 0.666667 0.666667
vt 1.000000 0.666667
vt 1.000000 1.000000
vt 0.666667 1.000000
vt 0.625000 0.616241
vt 0.875000 0.616241
vt 0.875000 0.616241
vt 0.625000 0.616241
vt 0.000000 0.000000
vt 0.000000 0.000000
vt 0.000000 0.000000
vt 0.000000 0.000000
vt 0.000000 0.000000
vt 0.000000 0.000000
vt 0.000000 0.000000
vt 0.000000 0.000000
vt 0.000000 0.666667
vt 0.333333 0.666667
vt 0.333333 1.000000
vt 0.000000 1.000000
vt 0.000000 0.000000
vt 0.333333 0.000000
vt 0.333333 0.333333
vt 0.000000 0.333333
vt 0.666667 0.000000
vt 0.666667 0.333333
vt 1.000000 0.000000
vt 1.000000 0.333333
vt 0.000712 0.152853
vt 0.682002 0.152853
vt 0.682002 0.263813
vt 0.000712 0.263813
vt -0.000546 0.290996
vt -0.000546 0.206976
vt 0.345389 0.206976
vt 0.345389 0.290996
vt 0.001762 0.279454
vt 0.001762 0.199713
vt 0.678787 0.199713
vt 0.678787 0.279454
vt 0.173086 0.149403
vt 0.513114 0.149403
vt 0.513114 0.275604
vt 0.173086 0.275604
vt 0.169413 0.225939
vt 0.511423 0.225939
vt 0.511423 0.283462
vt 0.169413 0.283462
vt 0.341905 0.291063
vt -0.001925 0.291063
vt -0.001925 0.075215
vt 0.341905 0.075215
vt 0.651823 0.205957
vt 0.651823 0.257668
vt 0.041931 0.257668
vt 0.041931 0.205957
vt 0.647474 0.274063
vt 0.042038 0.274063
vt 0.042038 0.142586
vt 0.647474 0.142586
vt 0.662550 0.503411
vt 0.689061 0.491496
vt 0.695320 0.474507
vt 0.722232 0.309995
vt 0.717978 0.287815
vt 0.687673 0.291249
vt 0.361205 0.291249
vt 0.350349 0.292577
vt 0.332783 0.302432
vt 0.361205 0.503337
vt 0.326073 0.318378
vt 0.340555 0.296430
vt 0.327792 0.309995
vt 0.326073 0.476209
vt 0.327792 0.484592
vt 0.332783 0.492154
vt 0.340555 0.498156
vt 0.350349 0.502009
vt 0.358037 0.294180
vt 0.347911 0.295595
vt 0.331526 0.306095
vt 0.687673 0.503337
vt 0.714713 0.511546
vt 0.720568 0.492154
vt 0.722805 0.476208
vt 0.717978 0.506771
vt 0.722232 0.484592
vt 0.722805 0.318378
vt 0.720568 0.302432
vt 0.714713 0.283040
vt 0.358037 0.503411
vt 0.325267 0.323084
vt 0.338775 0.299701
vt 0.326871 0.314153
vt 0.325267 0.474507
vt 0.326871 0.483439
vt 0.331526 0.491496
vt 0.338775 0.497891
vt 0.347911 0.501996
vt 0.672676 0.501996
vt 0.662550 0.294180
vt 0.681812 0.497891
vt 0.693716 0.483439
vt 0.695320 0.323085
vt 0.693716 0.314153
vt 0.689061 0.306095
vt 0.681812 0.299701
vt 0.672676 0.295595
vt 0.501295 0.050426
vt 0.501295 0.000000
vt 0.501295 0.000000
vt 0.501295 0.050426
vt 0.501295 1.000000
vt 0.501295 0.750000
vt 0.501295 0.750000
vt 0.501295 1.000000
vt 0.584628 0.250000
vt 0.501295 0.250000
vt 0.501295 0.250000
vt 0.584628 0.250000
vt 0.584628 1.000000
vt 0.584628 1.000000
vt 0.501295 1.000000
vt 0.501295 0.133759
vt 0.501295 0.133759
vt 0.501295 0.050426
vt 0.501295 0.133759
vt 0.000000 0.000000
vt 0.000000 0.000000
vt 0.000000 0.000000
vt 0.000000 0.000000
vt 0.000000 0.000000
vt 0.000000 0.000000
vt 0.584628 0.750000
vt 0.584628 0.750000
vt 0.584628 1.000000
vt 0.584628 0.133759
vt 0.625000 0.133759
vt 0.625000 0.250000
vt 0.625000 0.500000
vt 0.584628 0.500000
vt 0.584628 0.699574
vt 0.625000 0.699574
vt 0.625000 0.750000
vt 0.625000 1.000000
vt 0.875000 0.699574
vt 0.875000 0.750000
vt 0.875000 0.500000
vt 0.584628 0.616241
vt 0.584628 0.000000
vt 0.625000 0.000000
vt 0.625000 0.050426
vt 0.584628 0.050426
vt 0.375000 0.050426
vt 0.375000 0.133759
vt 0.375000 0.000000
vt 0.375000 0.616241
vt 0.501295 0.616241
vt 0.501295 0.699574
vt 0.375000 0.699574
vt 0.375000 0.500000
vt 0.501295 0.500000
vt 0.375000 0.750000
vt 0.375000 1.000000
vt 0.375000 0.250000
vt 0.875000 0.699574
vt 0.625000 0.699574
vt 0.406978 0.500000
vt 0.593022 0.500000
vt 0.593022 0.750000
vt 0.406978 0.750000
vt 0.647139 0.500000
vt 0.852862 0.500000
vt 0.852862 0.750000
vt 0.647139 0.750000
vt 0.406978 0.000000
vt 0.593022 0.000000
vt 0.593022 0.250000
vt 0.406978 0.250000
vt 0.147139 0.500000
vt 0.147139 0.750000
vt 0.140297 0.750000
vt 0.140297 0.500000
vt 0.134126 0.750000
vt 0.134126 0.500000
vt 0.125000 0.750000
vt 0.125000 0.500000
vt 0.388182 0.250000
vt 0.388182 0.000000
vt 0.397096 0.000000
vt 0.397096 0.250000
vt 0.859703 0.500000
vt 0.859703 0.750000
vt 0.865874 0.500000
vt 0.865874 0.750000
vt 0.625000 0.000000
vt 0.625000 0.250000
vt 0.611818 0.250000
vt 0.611818 0.000000
vt 0.602904 0.250000
vt 0.602904 0.000000
vt 0.352861 0.750000
vt 0.352861 0.500000
vt 0.365323 0.494901
vt 0.365323 0.755099
vt 0.370952 0.496958
vt 0.370952 0.753042
vt 0.388182 0.498591
vt 0.388182 0.751409
vt 0.397096 0.499639
vt 0.397096 0.750361
vt 0.634676 0.755099
vt 0.634677 0.494901
vt 0.629048 0.753042
vt 0.629048 0.496958
vt 0.611818 0.751409
vt 0.611818 0.498591
vt 0.602904 0.750361
vt 0.602904 0.499639
vt 1.000000 0.500000
vt 1.000000 1.000000
vt 0.900000 1.000000
vt 0.900000 0.500000
vt 0.800000 1.000000
vt 0.800000 0.500000
vt 0.700000 1.000000
vt 0.700000 0.500000
vt 0.600000 1.000000
vt 0.600000 0.500000
vt 0.500000 1.000000
vt 0.500000 0.500000
vt 0.400000 1.000000
vt 0.400000 0.500000
vt 0.300000 1.000000
vt 0.300000 0.500000
vt 0.200000 1.000000
vt 0.200000 0.500000
vt 0.391068 0.444164
vt 0.250000 0.489999
vt 0.108931 0.444164
vt 0.021745 0.324162
vt 0.021745 0.175835
vt 0.108931 0.055835
vt 0.250000 0.009999
vt 0.391068 0.055835
vt 0.478254 0.175835
vt 0.478254 0.324162
vt 0.100000 1.000000
vt 0.100000 0.500000
vt -0.000000 1.000000
vt -0.000000 0.500000
vt 0.750000 0.489999
vt 0.891068 0.444164
vt 0.978254 0.324162
vt 0.978254 0.175835
vt 0.891068 0.055835
vt 0.750000 0.009999
vt 0.608931 0.055835
vt 0.521745 0.175835
vt 0.521745 0.324162
vt 0.608931 0.444164
vn 0.0000 1.0000 0.0000
vn 0.0000 0.0000 -1.0000
vn -0.0000 0.0000 1.0000
vn -0.6247 0.7809 0.0000
vn -1.0000 0.0000 0.0000
vn -0.4975 0.8675 0.0000
vn 0.0000 0.7809 0.6247
vn 0.0000 -1.0000 0.0000
vn 1.0000 0.0000 0.0000
vn 0.1564 0.9877 0.0000
vn 0.4540 0.8910 0.0000
vn 0.7071 0.7071 0.0000
vn 0.8910 0.4540 0.0000
vn 0.9877 0.1564 0.0000
vn 0.1564 -0.9877 0.0000
vn 0.4540 -0.8910 0.0000
vn 0.7071 -0.7071 0.0000
vn 0.8910 -0.4540 0.0000
vn 0.9877 -0.1564 0.0000
vn -0.1564 0.9877 0.0000
vn -0.4540 0.8910 0.0000
vn -0.7071 0.7071 0.0000
vn -0.8910 0.4540 0.0000
vn -0.9877 0.1564 0.0000
vn -0.1564 -0.9877 0.0000
vn -0.4540 -0.8910 0.0000
vn -0.7071 -0.7071 0.0000
vn -0.8910 -0.4540 0.0000
vn -0.9877 -0.1564 0.0000
vn 0.3090 0.0000 -0.9511
vn 0.8090 0.0000 -0.5878
vn 0.8090 0.0000 0.5878
vn 0.3090 0.0000 0.9511
vn -0.3090 0.0000 0.9511
vn -0.8090 0.0000 0.5878
vn -0.8090 0.0000 -0.5878
vn -0.3090 0.0000 -0.9511
usemtl MARSNULL
s off
f 66/1/1 60/2/1 4/3/1 61/4/1
f 19/5/2 16/6/2 52/7/2 53/8/2
f 42/9/2 41/10/2 33/11/2 34/12/2
f 36/13/3 35/14/3 43/15/3 44/16/3
f 55/17/1 64/18/1 62/19/1 3/20/1
f 64/18/1 66/1/1 61/4/1 62/19/1
f 1/21/1 57/22/1 63/23/1 56/24/1
f 56/24/1 63/23/1 64/18/1 55/17/1
f 57/22/1 58/25/1 65/26/1 63/23/1
f 63/23/1 65/26/1 66/1/1 64/18/1
f 58/25/1 2/27/1 59/28/1 65/26/1
f 65/26/1 59/28/1 60/2/1 66/1/1
usemtl marscity
f 35/29/4 23/30/4 39/31/4 43/32/4
f 37/33/5 38/34/5 41/35/5 42/36/5
f 44/37/5 43/38/5 39/39/5 40/40/5
f 22/41/4 33/42/4 41/43/4 38/44/4
f 48/45/5 47/46/5 49/47/5 50/48/5
f 45/49/6 46/50/6 50/51/6 49/52/6
f 70/53/3 69/54/3 68/55/3 67/56/3
f 27/57/7 22/58/7 68/59/7 69/60/7
f 77/61/3 81/62/3 78/63/3
f 109/64/2 111/65/2 108/66/2
f 83/67/2 85/68/2 87/69/2
f 90/70/2 83/67/2 84/71/2
f 85/68/2 86/72/2 87/69/2
f 87/69/2 88/73/2 84/71/2
f 84/71/2 89/74/2 90/70/2
f 89/74/2 91/75/2 90/70/2
f 91/75/2 92/76/2 93/77/2
f 93/77/2 94/78/2 91/75/2
f 94/78/2 90/70/2 91/75/2
f 95/79/3 97/80/3 99/81/3
f 113/82/2 115/83/2 117/84/2
f 108/66/2 113/82/2 114/85/2
f 115/83/2 116/86/2 117/84/2
f 117/84/2 118/87/2 114/85/2
f 114/85/2 107/88/2 108/66/2
f 107/88/2 109/64/2 108/66/2
f 109/64/2 110/89/2 111/65/2
f 111/65/2 112/90/2 108/66/2
f 83/67/2 87/69/2 84/71/2
f 113/82/2 117/84/2 114/85/2
f 90/70/2 113/82/2 108/66/2 83/67/2
f 102/91/3 95/79/3 96/92/3
f 97/80/3 98/93/3 99/81/3
f 99/81/3 100/94/3 96/92/3
f 96/92/3 101/95/3 102/91/3
f 101/95/3 103/96/3 102/91/3
f 103/96/3 104/97/3 105/98/3
f 105/98/3 106/99/3 103/96/3
f 106/99/3 102/91/3 103/96/3
f 77/61/3 79/100/3 81/62/3
f 72/101/3 77/61/3 78/63/3
f 79/100/3 80/102/3 81/62/3
f 81/62/3 82/103/3 78/63/3
f 78/63/3 71/104/3 72/101/3
f 71/104/3 73/105/3 72/101/3
f 73/105/3 74/106/3 72/101/3
f 74/106/3 75/107/3 72/101/3
f 75/107/3 76/108/3 72/101/3
f 95/79/3 99/81/3 96/92/3
f 102/91/3 77/61/3 72/101/3 95/79/3
usemtl MARSINDX_14
f 34/109/8 21/110/8 37/111/8 42/112/8
f 21/113/8 28/114/8 70/115/8 67/116/8
f 23/117/2 24/118/2 40/119/2 39/120/2
f 21/113/3 22/121/3 38/122/3 37/123/3
f 24/118/8 36/124/8 44/125/8 40/119/8
f 36/124/8 34/109/8 47/126/8 48/127/8
f 34/12/3 45/128/3 49/129/3 47/130/3
f 46/131/2 36/13/2 48/132/2 50/133/2
f 28/114/9 27/134/9 69/135/9 70/115/9
f 22/121/5 21/113/5 67/116/5 68/136/5
usemtl MARSINDX_255
f 35/137/5 16/138/5 8/139/5 23/117/5
f 23/117/2 8/139/2 12/140/2 25/141/2
f 31/142/9 20/143/9 10/144/9 27/134/9
f 27/134/3 10/144/3 6/145/3 22/121/3
f 20/143/1 15/146/1 6/147/1 10/144/1
f 12/140/1 8/148/1 16/6/1 19/5/1
f 25/141/9 12/140/9 19/5/9 29/149/9
f 29/149/9 19/5/9 20/143/9 31/142/9
f 22/150/5 6/151/5 15/152/5 33/153/5
f 16/6/5 46/131/5 45/128/5 15/146/5
f 14/154/5 34/109/5 36/124/5 13/155/5
f 5/156/5 21/110/5 34/109/5 14/154/5
f 18/157/9 30/158/9 32/159/9 17/160/9
f 30/158/9 29/149/9 31/142/9 32/159/9
f 11/161/9 26/162/9 30/158/9 18/157/9
f 26/162/9 25/141/9 29/149/9 30/158/9
f 9/163/3 28/114/3 21/113/3 5/164/3
f 17/160/9 32/159/9 28/114/9 9/163/9
f 32/159/9 31/142/9 27/134/9 28/114/9
f 7/165/2 24/118/2 26/162/2 11/161/2
f 24/118/2 23/117/2 25/141/2 26/162/2
f 13/155/5 36/124/5 24/118/5 7/165/5
f 53/8/1 52/7/1 51/166/1 54/167/1
f 15/146/3 20/143/3 54/167/3 51/166/3
f 20/143/9 19/5/9 53/8/9 54/167/9
f 16/6/5 15/146/5 51/166/5 52/7/5
f 107/168/5 114/169/5 101/170/5 96/171/5
f 113/172/8 90/173/8 77/174/8 102/175/8
f 71/176/9 78/177/9 89/178/9 84/179/9
f 83/180/10 72/181/10 76/182/10 85/183/10
f 85/183/11 76/182/11 75/184/11 86/185/11
f 86/185/12 75/184/12 74/186/12 87/187/12
f 87/188/13 74/189/13 73/190/13 88/191/13
f 88/191/14 73/190/14 71/176/14 84/179/14
f 77/174/15 90/173/15 94/192/15 79/193/15
f 79/193/16 94/192/16 93/194/16 80/195/16
f 80/196/17 93/197/17 92/198/17 81/199/17
f 81/199/18 92/198/18 91/200/18 82/201/18
f 82/201/19 91/200/19 89/178/19 78/177/19
f 95/202/20 108/203/20 112/204/20 97/205/20
f 97/205/21 112/204/21 111/206/21 98/207/21
f 98/207/22 111/206/22 110/208/22 99/209/22
f 99/209/23 110/208/23 109/210/23 100/211/23
f 100/211/24 109/210/24 107/168/24 96/171/24
f 113/172/25 102/175/25 106/212/25 115/213/25
f 115/213/26 106/212/26 105/214/26 116/215/26
f 116/215/27 105/214/27 104/216/27 117/217/27
f 117/217/28 104/216/28 103/218/28 118/219/28
f 118/219/29 103/218/29 101/170/29 114/169/29
f 83/180/1 108/203/1 95/202/1 72/181/1
f 119/220/30 120/221/30 122/222/30 121/223/30
f 121/223/31 122/222/31 124/224/31 123/225/31
f 123/225/9 124/224/9 126/226/9 125/227/9
f 125/227/32 126/226/32 128/228/32 127/229/32
f 127/229/33 128/228/33 130/230/33 129/231/33
f 129/231/34 130/230/34 132/232/34 131/233/34
f 131/233/35 132/232/35 134/234/35 133/235/35
f 133/235/5 134/234/5 136/236/5 135/237/5
f 122/238/1 120/239/1 138/240/1 136/241/1 134/242/1 132/243/1 130/244/1 128/245/1 126/246/1 124/247/1
f 135/237/36 136/236/36 138/248/36 137/249/36
f 137/249/37 138/248/37 120/250/37 119/251/37
f 119/252/8 121/253/8 123/254/8 125/255/8 127/256/8 129/257/8 131/258/8 133/259/8 135/260/8 137/261/8
