# Blender v2.92.0 OBJ File: 'marscity.blend'
# www.blender.org
mtllib city_septm.mtl
o city_septm_Plane.008
v -0.800000 0.000000 0.799999
v 0.800000 0.000000 0.799999
v -0.800000 0.000000 -0.800001
v 0.800000 0.000000 -0.800001
v -0.800000 0.000000 -0.000001
v 0.000000 0.000000 0.799999
v 0.800000 0.000000 -0.000001
v 0.000000 0.000000 -0.800001
v 0.000000 0.000000 -0.000001
v 0.000000 0.000000 -0.560001
v 0.000000 0.000000 0.559999
v -0.800000 0.000000 0.559999
v 0.400000 0.000000 0.799999
v 0.800000 0.000000 -0.560001
v -0.400000 0.000000 -0.800001
v -0.800000 0.000000 -0.560001
v -0.400000 0.000000 0.799999
v 0.800000 0.000000 0.559999
v 0.400000 0.000000 -0.800001
v -0.400000 0.000000 -0.000001
v 0.400000 0.000000 -0.000001
v -0.400000 0.000000 -0.560001
v 0.400000 0.000000 -0.560001
v 0.400000 0.000000 0.559999
v -0.400000 0.000000 0.559999
v -0.800000 0.016000 0.559999
v -0.800000 0.016000 0.799999
v 0.400000 0.016000 0.799999
v 0.800000 0.016000 0.799999
v 0.800000 0.016000 -0.560001
v 0.800000 0.016000 -0.800001
v -0.400000 0.016000 -0.800001
v -0.800000 0.016000 -0.800001
v -0.400000 0.016000 0.799999
v 0.000000 0.016000 0.799999
v 0.400000 0.016000 -0.800001
v 0.000000 0.016000 -0.800001
v 0.000000 0.016000 -0.560001
v 0.000000 0.016000 0.559999
v -0.800000 0.016000 -0.560001
v 0.800000 0.016000 0.559999
v -0.400000 0.016000 -0.560001
v 0.400000 0.016000 -0.560001
v 0.400000 0.016000 0.559999
v -0.400000 0.016000 0.559999
vt 0.500000 0.250000
vt 0.250000 0.250000
vt 0.250000 0.250000
vt 0.500000 0.250000
vt 0.000000 0.000000
vt 0.000000 0.000000
vt 0.000000 0.000000
vt 0.000000 0.000000
vt 0.500000 0.750000
vt 0.750000 0.750000
vt 0.750000 0.750000
vt 0.500000 0.750000
vt 0.250000 0.750000
vt 0.000000 0.750000
vt 0.000000 0.500000
vt 0.250000 0.500000
vt 0.500000 0.500000
vt 0.000000 0.000000
vt 0.000000 0.000000
vt 0.000000 0.000000
vt 0.000000 0.000000
vt 0.000000 0.000000
vt 0.000000 0.000000
vt 0.000000 0.000000
vt 0.000000 0.000000
vt 0.750000 0.500000
vt 1.000000 0.500000
vt 1.000000 0.750000
vt 0.250000 0.750000
vt 0.000000 0.750000
vt 0.750000 0.250000
vt 1.000000 0.250000
vt 0.000000 0.000000
vt 0.000000 0.000000
vt 0.000000 0.000000
vt 0.000000 0.000000
vt 0.000000 0.250000
vt 0.000000 0.000000
vt 0.000000 0.000000
vt 0.250000 0.000000
vt 0.500000 0.000000
vt 0.750000 0.250000
vt 0.750000 0.000000
vt 1.000000 0.000000
vt 1.000000 0.250000
vt 0.750000 1.000000
vt 0.500000 1.000000
vt 0.250000 1.000000
vt 0.000000 1.000000
vt 1.000000 0.750000
vt 1.000000 1.000000
vt 0.000000 0.250000
vt 0.000000 0.000000
vt 0.000000 0.000000
vt 0.000000 0.000000
vt 0.000000 0.000000
vt 0.000000 0.000000
vt 0.000000 0.000000
vt 0.000000 0.000000
vt 0.000000 0.000000
vt 0.000000 0.000000
vt 0.000000 0.000000
vn 0.0000 0.0000 -1.0000
vn 0.0000 0.0000 1.0000
vn 0.0000 1.0000 0.0000
vn 1.0000 0.0000 0.0000
vn -1.0000 0.0000 0.0000
usemtl MARSNULL
s off
f 11/1/1 25/2/1 45/3/1 39/4/1
f 4/5/1 19/6/1 36/7/1 31/8/1
f 10/9/2 23/10/2 43/11/2 38/12/2
f 22/13/3 16/14/3 5/15/3 20/16/3
f 10/9/3 22/13/3 20/16/3 9/17/3
f 2/18/4 18/19/4 41/20/4 29/21/4
f 15/22/1 3/23/1 33/24/1 32/25/1
f 21/26/3 23/10/3 10/9/3 9/17/3
f 7/27/3 14/28/3 23/10/3 21/26/3
f 16/14/2 22/13/2 42/29/2 40/30/2
f 21/26/3 24/31/3 18/32/3 7/27/3
f 9/17/3 11/1/3 24/31/3 21/26/3
f 1/33/2 17/34/2 34/35/2 27/36/2
f 20/16/3 25/2/3 11/1/3 9/17/3
f 5/15/3 12/37/3 25/2/3 20/16/3
f 14/38/4 4/5/4 31/8/4 30/39/4
f 45/3/3 34/40/3 35/41/3 39/4/3
f 44/42/3 28/43/3 29/44/3 41/45/3
f 43/11/3 36/46/3 37/47/3 38/12/3
f 37/47/3 32/48/3 42/29/3 38/12/3
f 32/48/3 33/49/3 40/30/3 42/29/3
f 30/50/3 31/51/3 36/46/3 43/11/3
f 39/4/3 35/41/3 28/43/3 44/42/3
f 26/52/3 27/36/3 34/40/3 45/3/3
f 23/10/2 14/28/2 30/50/2 43/11/2
f 17/34/2 6/53/2 35/54/2 34/35/2
f 25/2/1 12/37/1 26/52/1 45/3/1
f 6/53/2 13/55/2 28/56/2 35/54/2
f 19/6/1 8/57/1 37/58/1 36/7/1
f 12/59/5 1/33/5 27/36/5 26/60/5
f 8/57/1 15/22/1 32/25/1 37/58/1
f 18/32/1 24/31/1 44/42/1 41/45/1
f 13/55/2 2/18/2 29/21/2 28/56/2
f 3/23/5 16/61/5 40/62/5 33/24/5
f 24/31/1 11/1/1 39/4/1 44/42/1
f 22/13/2 10/9/2 38/12/2 42/29/2
