# Blender v2.93.0 OBJ File: 'marscity.blend'
# www.blender.org
mtllib 0B_carls_s.mtl
o 0B_carls_s_Plane.004
v 0.800000 0.016000 -0.307103
v 0.640899 0.688000 -0.801315
v 0.640899 0.016000 -0.801315
v 0.165723 0.688000 -0.326140
v 0.165723 0.016000 -0.326140
v 0.400000 0.016000 -0.307103
v 0.800000 0.016000 -0.801315
v -0.071865 0.688000 -0.409119
v -0.071865 0.016000 -0.409119
v -0.309453 0.688000 -0.409119
v -0.309453 0.016000 -0.409119
v -0.800000 0.016000 -0.801315
v -0.800000 0.688000 -0.801315
v -0.800000 0.688000 -0.409119
v -0.800000 0.016000 -0.409119
v 0.165723 0.016000 -0.307103
v -0.071865 0.016000 -0.307103
v -0.800000 0.016000 -0.307103
v 0.165723 0.688000 -0.307103
v 0.400000 0.688000 -0.307103
v -0.800000 0.016000 0.798685
v 0.800000 0.016000 0.798685
v -0.800000 0.016000 0.061493
v -0.800000 0.016000 0.430089
v -0.266666 0.016000 0.798685
v 0.266667 0.016000 0.798685
v 0.266667 0.016000 -0.307103
v -0.266666 0.016000 -0.307103
v 0.800000 0.016000 0.061493
v 0.800000 0.016000 0.430089
v -0.266666 0.016000 0.061493
v -0.266666 0.016000 0.430089
v 0.266667 0.016000 0.061493
v 0.266667 0.016000 0.430089
v -0.086842 0.688000 -0.801315
vt 0.000000 0.000000
vt 0.000000 0.000000
vt 0.000000 0.000000
vt 0.000000 0.000000
vt 0.625000 1.000000
vt 0.000000 0.000000
vt 0.375000 1.000000
vt 0.500000 0.250000
vt 0.000000 0.000000
vt 0.625000 0.625000
vt 0.625000 0.750000
vt 0.375000 0.750000
vt 0.375000 0.625000
vt 0.000000 0.000000
vt 0.000000 0.000000
vt 0.375000 0.000000
vt 0.000000 0.000000
vt 0.000000 0.000000
vt 0.000000 0.000000
vt 0.000000 0.000000
vt 0.000000 0.000000
vt 0.000000 0.000000
vt 0.000000 0.000000
vt 0.000000 0.000000
vt 0.000000 0.000000
vt 0.000000 0.000000
vt 0.000000 0.000000
vt 0.000000 0.000000
vt 0.000000 0.000000
vt 0.000000 0.000000
vt 0.000000 0.000000
vt 0.000000 0.000000
vt 0.000000 0.000000
vt 0.000000 0.000000
vt 0.000000 0.000000
vt 0.000000 0.000000
vt 0.000000 0.000000
vt 0.000000 0.000000
vn 0.0000 -1.0000 0.0000
vn 0.0000 1.0000 0.0000
vn -0.3297 0.0000 0.9441
vn -1.0000 0.0000 0.0000
vn 0.0000 0.0000 1.0000
vn 0.8989 0.0000 0.4382
usemtl MARSINDX_17
s off
f 5/1/1 6/2/1 16/3/1
usemtl MARSINDX_247
f 20/4/2 4/5/2 19/6/2
f 5/7/3 4/5/3 8/8/3 9/9/3
f 14/10/4 13/11/4 12/12/4 15/13/4
f 16/3/4 19/6/4 4/5/4 5/1/4
f 10/14/5 11/15/5 9/9/5 8/8/5
f 20/4/5 19/6/5 16/3/5 6/2/5
f 20/4/2 2/16/2 4/5/2
f 6/2/6 3/17/6 2/16/6 20/4/6
f 10/14/5 14/18/5 15/13/5 11/15/5
f 10/14/2 8/8/2 35/19/2 13/11/2 14/18/2
f 2/20/2 35/19/2 8/8/2 4/5/2
usemtl MARSINDX_7
f 18/21/1 11/15/1 17/22/1
f 9/9/2 11/15/2 17/22/2
f 7/23/1 1/24/1 6/2/1 3/17/1
f 26/25/1 34/26/1 30/27/1 22/28/1
f 18/21/1 15/13/1 11/15/1
f 5/1/2 9/9/2 17/22/2 16/3/2
f 21/29/1 24/30/1 32/31/1 25/32/1
f 32/31/1 31/33/1 33/34/1 34/26/1
f 29/35/1 33/34/1 27/36/1 1/24/1
f 23/37/1 18/21/1 28/38/1 31/33/1
f 31/33/1 28/38/1 27/36/1 33/34/1
f 24/30/1 23/37/1 31/33/1 32/31/1
f 25/32/1 32/31/1 34/26/1 26/25/1
f 30/27/1 34/26/1 33/34/1 29/35/1
