# Blender v2.93.0 OBJ File: 'marscity.blend'
# www.blender.org
mtllib 0E_hut_l.mtl
o 0E_hut_l_Plane.018
v 0.800000 0.016000 -0.800000
v -0.736000 -0.000000 0.400000
v 0.800000 0.016000 0.800000
v 0.800000 0.016000 -0.000000
v -0.000000 0.016000 -0.800000
v 0.096000 0.016000 0.800000
v 0.032000 0.016000 -0.000000
v 0.064000 0.016000 0.400000
v -0.000000 0.016000 -0.640000
v 0.800000 0.016000 -0.640001
v -0.000000 -0.000000 -0.640000
v 0.400000 0.016000 0.800000
v 0.800000 0.016000 0.400000
v 0.400000 0.016000 -0.800000
v 0.400000 0.016000 -0.000000
v 0.400000 0.016000 0.400000
v 0.400000 0.016000 -0.640000
v 0.800000 -0.000000 -0.800000
v 0.032000 -0.000000 -0.000000
v -0.000000 -0.000000 -0.800000
v 0.064000 -0.000000 0.400000
v 0.400000 -0.000000 -0.800000
v -0.704000 -0.000000 0.800000
v -0.800000 -0.000000 -0.640000
v -0.768000 -0.000000 -0.000000
v -0.304000 -0.000000 0.800000
v 0.096000 -0.000000 0.800000
v -0.368000 -0.000000 -0.000000
v -0.336000 -0.000000 0.400000
v -0.400000 -0.000000 -0.640000
v -0.736000 0.016000 0.400000
v -0.704000 0.016000 0.800000
v -0.800000 0.016000 -0.640000
v -0.768000 0.016000 -0.000000
v -0.800000 0.016000 -0.800000
v -0.800000 -0.000000 -0.800000
v -0.800000 -0.000000 0.800000
v -0.800000 0.016000 0.800000
vt 1.000000 0.750000
vt 1.000000 1.000000
vt 0.750000 1.000000
vt 0.750000 0.750000
vt 0.500000 1.000000
vt 0.500000 0.750000
vt 0.500000 0.750000
vt 0.500000 1.000000
vt 0.500000 0.500000
vt 0.500000 0.250000
vt 0.500000 0.250000
vt 0.500000 0.500000
vt 1.000000 0.500000
vt 0.750000 0.500000
vt 0.750000 0.250000
vt 1.000000 0.250000
vt 1.000000 0.750000
vt 1.000000 1.000000
vt 0.500000 0.000000
vt 0.000000 0.000000
vt 1.000000 1.000000
vt 1.000000 1.000000
vt 1.000000 0.500000
vt 1.000000 0.250000
vt 0.250000 0.250000
vt 0.250000 0.000000
vt 0.500000 0.000000
vt 0.000000 0.250000
vt 0.000000 0.000000
vt 0.000000 0.000000
vt 0.250000 0.000000
vt 0.000000 0.000000
vt 0.049686 0.876181
vt 0.049686 0.897181
vt 0.028686 0.897181
vt 0.028686 0.876181
vt 0.049686 0.855181
vt 0.028686 0.855181
vt 0.070686 0.855181
vt 0.070686 0.876181
vt 0.070686 0.897181
vt 0.007686 0.876181
vt 0.007686 0.855181
vt 0.007686 0.897181
vn 0.0000 1.0000 0.0000
vn -0.9968 0.0000 0.0797
vn -0.9988 0.0000 0.0499
vn 0.9968 0.0000 -0.0797
vn -0.0000 0.0000 1.0000
vn 0.9988 0.0000 -0.0499
vn -0.0000 -0.0000 -1.0000
vn -1.0000 -0.0000 0.0000
vn 1.0000 0.0000 0.0000
usemtl MARSINDX_17
s off
f 2/1/1 23/2/1 26/3/1 29/4/1
f 6/5/2 8/6/2 21/7/2 27/8/2
f 7/9/3 9/10/3 11/11/3 19/12/3
f 25/13/1 2/1/1 29/4/1 28/14/1
f 28/14/1 29/4/1 21/7/1 19/12/1
f 29/4/1 26/3/1 27/8/1 21/7/1
f 28/14/1 30/15/1 24/16/1 25/13/1
f 19/12/1 11/11/1 30/15/1 28/14/1
f 8/6/2 7/9/2 19/12/2 21/7/2
f 23/2/4 2/1/4 31/17/4 32/18/4
f 20/19/1 36/20/1 24/16/1 11/11/1
f 23/2/5 32/18/5 38/21/5 37/22/5
f 34/23/6 25/13/6 24/16/6 33/24/6
f 31/17/4 2/1/4 25/13/4 34/23/4
usemtl MARSINDX_7
f 17/25/1 14/26/1 5/27/1 9/10/1
f 10/28/1 1/29/1 14/26/1 17/25/1
f 14/26/7 1/29/7 18/30/7 22/31/7
f 5/27/7 14/26/7 22/31/7 20/19/7
f 5/27/8 20/19/8 11/11/8 9/10/8
f 36/20/9 35/32/9 33/24/9 24/16/9
f 34/23/1 38/21/1 31/17/1
f 34/23/1 33/24/1 38/21/1
f 38/21/1 32/18/1 31/17/1
usemtl marscity
f 16/33/1 13/34/1 4/35/1 15/36/1
f 8/37/1 16/33/1 15/36/1 7/38/1
f 6/39/1 12/40/1 16/33/1 8/37/1
f 12/40/1 3/41/1 13/34/1 16/33/1
f 15/36/1 17/42/1 9/43/1 7/38/1
f 4/35/1 10/44/1 17/42/1 15/36/1
