# Blender v2.92.0 OBJ File: 'marscity.blend'
# www.blender.org
mtllib city_carls_n.mtl
o city_carls_n_Plane.004
v 0.800000 0.016000 -0.307103
v 0.640899 0.688000 -0.801315
v 0.640899 0.016000 -0.801315
v 0.165723 0.688000 -0.326140
v 0.165723 0.016000 -0.326140
v 0.400000 0.016000 -0.307103
v 0.800000 0.016000 -0.707103
v -0.309453 0.688000 -0.801315
v -0.309453 0.016000 -0.801315
v -0.071865 0.688000 -0.409119
v -0.071865 0.016000 -0.409119
v 0.403311 0.688000 -1.038903
v 0.403311 0.016000 -1.038903
v -0.309453 0.688000 -0.409119
v -0.309453 0.016000 -0.409119
v -0.800000 0.016000 -0.801315
v -0.800000 0.688000 -0.801315
v -0.800000 0.688000 -0.409119
v -0.800000 0.016000 -0.409119
v 0.165723 0.016000 -0.307103
v -0.071865 0.016000 -0.307103
v -0.800000 0.016000 -0.307103
v 0.165723 0.688000 -0.307103
v 0.400000 0.688000 -0.307103
v -0.800000 0.016000 0.798685
v 0.800000 0.016000 0.798685
v -0.800000 0.016000 0.061493
v -0.800000 0.016000 0.430089
v -0.266666 0.016000 0.798685
v 0.266667 0.016000 0.798685
v 0.266667 0.016000 -0.307103
v -0.266666 0.016000 -0.307103
v 0.800000 0.016000 0.061493
v 0.800000 0.016000 0.430089
v -0.266666 0.016000 0.061493
v -0.266666 0.016000 0.430089
v 0.266667 0.016000 0.061493
v 0.266667 0.016000 0.430089
vt 0.000000 0.000000
vt 0.000000 0.000000
vt 0.000000 0.000000
vt 0.000000 0.000000
vt 0.000000 0.000000
vt 0.000000 0.000000
vt 0.625000 0.500000
vt 0.500000 0.500000
vt 0.500000 0.250000
vt 0.625000 0.250000
vt 0.000000 0.000000
vt 0.000000 0.000000
vt 0.000000 0.000000
vt 0.000000 0.000000
vt 0.000000 0.000000
vt 0.000000 0.000000
vt 0.000000 0.000000
vt 0.625000 1.000000
vt 0.000000 0.000000
vt 0.375000 1.000000
vt 0.500000 0.250000
vt 0.625000 0.625000
vt 0.625000 0.750000
vt 0.375000 0.750000
vt 0.375000 0.625000
vt 0.875000 0.500000
vt 0.875000 0.500000
vt 0.625000 0.500000
vt 0.625000 0.500000
vt 0.375000 0.250000
vt 0.375000 0.000000
vt 0.500000 0.000000
vt 0.000000 0.000000
vt 0.000000 0.000000
vt 0.000000 0.000000
vt 0.000000 0.000000
vt 0.000000 0.000000
vt 0.000000 0.000000
vt 0.000000 0.000000
vt 0.000000 0.000000
vt 0.000000 0.000000
vt 0.000000 0.000000
vt 0.000000 0.000000
vt 0.000000 0.000000
vt 0.000000 0.000000
vt 0.000000 0.000000
vt 0.000000 0.000000
vt 0.000000 0.000000
vt 0.000000 0.000000
vt 0.000000 0.000000
vt 0.000000 0.000000
vt 0.000000 0.000000
vn 0.0000 -1.0000 -0.0000
vn 0.0000 1.0000 0.0000
vn -0.3297 0.0000 0.9441
vn -1.0000 0.0000 0.0000
vn -0.0000 0.0000 -1.0000
vn 0.0000 0.0000 1.0000
vn 0.8989 0.0000 0.4382
usemtl MARSINDX_1
s off
f 15/1/1 9/2/1 11/3/1
f 5/4/1 6/5/1 20/6/1
f 5/7/1 11/8/1 13/9/1 3/10/1
f 5/4/1 3/11/1 6/5/1
f 16/12/1 9/2/1 15/1/1 19/13/1
usemtl MARSINDX_225
f 14/14/2 10/15/2 8/16/2
f 24/17/2 4/18/2 23/19/2
f 5/20/3 4/18/3 10/21/3 11/3/3
f 18/22/4 17/23/4 16/24/4 19/25/4
f 20/6/4 23/19/4 4/18/4 5/4/4
f 17/26/5 8/27/5 9/28/5 16/29/5
f 14/14/6 15/1/6 11/3/6 10/21/6
f 24/17/6 23/19/6 20/6/6 6/5/6
f 4/30/2 2/31/2 12/32/2 10/21/2
f 24/17/2 2/31/2 4/18/2
f 6/5/7 3/11/7 2/31/7 24/17/7
f 17/33/2 18/34/2 14/14/2 8/16/2
f 14/14/6 18/34/6 19/25/6 15/1/6
usemtl MARSINDX_7
f 22/35/1 15/1/1 21/36/1
f 11/3/2 15/1/2 21/36/2
f 7/37/1 1/38/1 6/5/1 3/11/1
f 30/39/1 38/40/1 34/41/1 26/42/1
f 22/35/1 19/25/1 15/1/1
f 5/4/2 11/3/2 21/36/2 20/6/2
f 25/43/1 28/44/1 36/45/1 29/46/1
f 36/45/1 35/47/1 37/48/1 38/40/1
f 33/49/1 37/48/1 31/50/1 1/38/1
f 27/51/1 22/35/1 32/52/1 35/47/1
f 35/47/1 32/52/1 31/50/1 37/48/1
f 28/44/1 27/51/1 35/47/1 36/45/1
f 29/46/1 36/45/1 38/40/1 30/39/1
f 34/41/1 38/40/1 37/48/1 33/49/1
