# Blender v2.92.0 OBJ File: 'marscity.blend'
# www.blender.org
mtllib city_carls_s.mtl
o city_carls_s_Plane.015
v 0.800000 0.016000 -0.801316
v -0.800000 0.016000 -0.801315
v 0.800000 0.016000 0.265351
v -0.000000 0.016000 -0.801315
v 0.640899 0.688000 0.798685
v 0.640899 0.016000 0.798685
v -0.000000 0.016000 -0.374649
v 0.800000 0.016000 -0.374649
v -0.400000 0.016000 -0.801315
v 0.165723 0.688000 0.323509
v 0.800000 0.016000 0.892897
v 0.400000 0.016000 -0.801315
v -0.800000 0.016000 -0.374649
v 0.165723 0.016000 0.265351
v 0.400000 0.016000 0.265351
v -0.309453 0.688000 0.798685
v -0.309453 0.016000 0.798685
v -0.400000 0.016000 -0.374649
v 0.400000 0.016000 -0.374649
v 0.800000 -0.000000 -0.801316
v -0.800000 -0.000000 -0.801315
v -0.000000 -0.000000 -0.801315
v -0.400000 -0.000000 -0.801315
v 0.400000 -0.000000 -0.801315
v -0.071865 0.688000 1.190881
v -0.071865 0.016000 1.190881
v 0.403311 0.688000 0.561097
v 0.403311 0.016000 0.561097
v -0.800000 0.016000 0.798685
v -0.800000 0.016000 0.265351
v 0.510500 -0.064000 -0.598931
v 0.510500 0.903903 -0.598931
v 0.521981 -0.064000 -0.596648
v 0.521981 0.903903 -0.596648
v 0.531713 -0.064000 -0.590145
v 0.531713 0.903903 -0.590145
v 0.538217 -0.064000 -0.580412
v 0.538217 0.903903 -0.580412
v 0.540500 -0.064000 -0.568931
v 0.540500 0.903903 -0.568931
v 0.538217 -0.064000 -0.557451
v 0.538217 0.903903 -0.557451
v 0.531713 -0.064000 -0.547718
v 0.531713 0.903903 -0.547718
v 0.521981 -0.064000 -0.541215
v 0.521981 0.903903 -0.541215
v 0.510500 -0.064000 -0.538931
v 0.510500 0.903903 -0.538931
v 0.499020 -0.064000 -0.541215
v 0.499020 0.903903 -0.541215
v 0.489287 -0.064000 -0.547718
v 0.489287 0.903903 -0.547718
v 0.482784 -0.064000 -0.557451
v 0.482784 0.903903 -0.557451
v 0.480500 -0.064000 -0.568931
v 0.480500 0.903903 -0.568931
v 0.482784 -0.064000 -0.580412
v 0.482784 0.903903 -0.580412
v 0.489287 -0.064000 -0.590145
v 0.489287 0.903903 -0.590145
v 0.499020 -0.064000 -0.596648
v 0.499020 0.903903 -0.596648
vt 0.375000 0.250000
vt 0.500000 0.250000
vt 0.500000 0.500000
vt 0.375000 0.500000
vt 1.000000 0.500000
vt 1.000000 1.000000
vt 0.937500 1.000000
vt 0.937500 0.500000
vt 0.875000 1.000000
vt 0.875000 0.500000
vt 0.812500 1.000000
vt 0.812500 0.500000
vt 0.750000 1.000000
vt 0.750000 0.500000
vt 0.687500 1.000000
vt 0.687500 0.500000
vt 0.625000 1.000000
vt 0.625000 0.500000
vt 0.562500 1.000000
vt 0.562500 0.500000
vt 0.500000 1.000000
vt 0.500000 0.500000
vt 0.437500 1.000000
vt 0.437500 0.500000
vt 0.375000 1.000000
vt 0.375000 0.500000
vt 0.312500 1.000000
vt 0.312500 0.500000
vt 0.250000 1.000000
vt 0.250000 0.500000
vt 0.187500 1.000000
vt 0.187500 0.500000
vt 0.125000 1.000000
vt 0.125000 0.500000
vt 0.341844 0.471731
vt 0.250000 0.490000
vt 0.158156 0.471731
vt 0.080295 0.419706
vt 0.028269 0.341844
vt 0.010001 0.250000
vt 0.028269 0.158156
vt 0.080295 0.080294
vt 0.158156 0.028269
vt 0.250000 0.010000
vt 0.341844 0.028269
vt 0.419706 0.080294
vt 0.471732 0.158156
vt 0.490000 0.250000
vt 0.471732 0.341844
vt 0.419706 0.419706
vt 0.062500 1.000000
vt 0.062500 0.500000
vt 0.000000 1.000000
vt 0.000000 0.500000
vt 0.750000 0.490000
vt 0.841844 0.471731
vt 0.919706 0.419706
vt 0.971732 0.341844
vt 0.990000 0.250000
vt 0.971732 0.158156
vt 0.919706 0.080294
vt 0.841844 0.028269
vt 0.750000 0.010000
vt 0.658156 0.028269
vt 0.580295 0.080294
vt 0.528269 0.158156
vt 0.510001 0.250000
vt 0.528269 0.341844
vt 0.580295 0.419706
vt 0.658156 0.471731
vt 0.125000 0.500000
vt 0.000000 0.000000
vt 0.250000 0.250000
vt 0.500000 0.250000
vt 0.750000 0.250000
vt 0.000000 0.000000
vt 1.000000 0.250000
vt 0.000000 0.250000
vt 0.000000 0.000000
vt 0.500000 0.000000
vt 0.625000 0.000000
vt 0.625000 0.250000
vt 0.500000 0.250000
vt 0.125000 0.625000
vt 0.375000 0.625000
vt 0.375000 0.750000
vt 0.125000 0.750000
vt 0.625000 0.500000
vt 0.875000 0.500000
vt 0.875000 0.750000
vt 0.625000 0.750000
vt 0.375000 0.500000
vt 0.250000 0.000000
vt 0.500000 0.000000
vt 0.750000 0.000000
vt 1.000000 0.000000
vt 0.000000 0.000000
vt 0.000000 0.000000
vt 0.000000 0.000000
vt 0.250000 0.000000
vt 0.500000 0.000000
vt 0.750000 0.000000
vt 1.000000 0.000000
vt 0.000000 0.000000
vt 0.000000 0.000000
vt 0.000000 0.000000
vt 0.000000 0.000000
vt 0.000000 0.000000
vn 0.0000 -1.0000 -0.0000
vn 0.1951 0.0000 -0.9808
vn 0.5556 0.0000 -0.8315
vn 0.8315 0.0000 -0.5556
vn 0.9808 0.0000 -0.1951
vn 0.9808 0.0000 0.1951
vn 0.8315 0.0000 0.5556
vn 0.5556 0.0000 0.8315
vn 0.1951 0.0000 0.9808
vn -0.1951 0.0000 0.9808
vn -0.5556 0.0000 0.8315
vn -0.8315 0.0000 0.5556
vn -0.9808 0.0000 0.1951
vn -0.9808 0.0000 -0.1951
vn -0.8315 0.0000 -0.5556
vn 0.0000 1.0000 0.0000
vn -0.5556 0.0000 -0.8315
vn -0.1951 0.0000 -0.9808
vn 0.7071 0.0000 -0.7071
vn -0.7275 0.0297 -0.6855
vn 0.7463 0.0288 -0.6649
vn -0.0000 -0.0000 -1.0000
usemtl MARSINDX_1
s off
f 14/1/1 28/2/1 26/3/1 17/4/1
f 31/5/2 32/6/2 34/7/2 33/8/2
f 33/8/3 34/7/3 36/9/3 35/10/3
f 35/10/4 36/9/4 38/11/4 37/12/4
f 37/12/5 38/11/5 40/13/5 39/14/5
f 39/14/6 40/13/6 42/15/6 41/16/6
f 41/16/7 42/15/7 44/17/7 43/18/7
f 43/18/8 44/17/8 46/19/8 45/20/8
f 45/20/9 46/19/9 48/21/9 47/22/9
f 47/22/10 48/21/10 50/23/10 49/24/10
f 49/24/11 50/23/11 52/25/11 51/26/11
f 51/26/12 52/25/12 54/27/12 53/28/12
f 53/28/13 54/27/13 56/29/13 55/30/13
f 55/30/14 56/29/14 58/31/14 57/32/14
f 57/32/15 58/31/15 60/33/15 59/34/15
f 34/35/16 32/36/16 62/37/16 60/38/16 58/39/16 56/40/16 54/41/16 52/42/16 50/43/16 48/44/16 46/45/16 44/46/16 42/47/16 40/48/16 38/49/16 36/50/16
f 59/34/17 60/33/17 62/51/17 61/52/17
f 61/52/18 62/51/18 32/53/18 31/54/18
f 31/55/1 33/56/1 35/57/1 37/58/1 39/59/1 41/60/1 43/61/1 45/62/1 47/63/1 49/64/1 51/65/1 53/66/1 55/67/1 57/68/1 59/69/1 61/70/1
f 14/71/16 15/72/16 19/73/16 7/74/16
f 18/75/16 30/76/16 14/71/16 7/74/16
f 18/75/16 13/77/16 30/76/16
f 8/78/16 19/73/16 15/72/16 3/79/16
usemtl MARSINDX_225
f 27/80/16 10/81/16 16/82/16 25/83/16
f 28/84/19 27/85/19 5/86/19 6/87/19
f 17/88/20 16/89/20 10/90/20 14/91/20
f 14/71/21 10/92/21 27/85/21 28/84/21
usemtl MARSINDX_7
f 19/73/16 12/93/16 4/94/16 7/74/16
f 18/75/16 9/95/16 2/96/16 13/77/16
f 3/79/16 15/72/16 28/97/16
f 7/74/16 4/94/16 9/95/16 18/75/16
f 8/78/16 1/98/16 12/93/16 19/73/16
f 12/93/22 1/98/22 20/99/22 24/100/22
f 9/95/22 4/94/22 22/101/22 23/102/22
f 4/94/22 12/93/22 24/100/22 22/101/22
f 2/96/22 9/95/22 23/102/22 21/103/22
f 28/84/1 14/71/1 15/72/1
f 30/76/1 14/104/1 17/105/1 29/106/1
f 28/97/16 6/107/16 3/79/16
f 6/107/16 11/108/16 3/79/16
