# Blender v2.91.0 OBJ File: ''
# www.blender.org
mtllib cube.mtl
o Grid
v -0.992361 0.015304 -0.992162
v -0.990140 0.012977 -0.769973
v -0.990748 0.015062 -0.548554
v -0.990000 0.000000 -0.330000
v -0.990000 0.014780 -0.110000
v -0.990041 0.065685 0.110003
v -0.990000 0.077744 0.330000
v -0.990215 0.066210 0.549989
v -0.992031 0.027020 0.769894
v -0.990042 0.000368 0.989998
v -0.774876 0.067944 -1.002100
v -0.783897 0.130168 -0.769657
v -0.788798 0.088016 -0.536942
v -0.778497 0.017804 -0.328270
v -0.786138 0.097208 -0.114021
v -0.789281 0.118677 0.113718
v -0.775719 0.060734 0.336172
v -0.769678 0.062460 0.547956
v -0.777909 0.125472 0.770346
v -0.773404 0.055863 0.990702
v -0.551957 0.061013 -1.006274
v -0.577737 0.244866 -0.775547
v -0.676942 0.285062 -0.505994
v -0.644683 0.213068 -0.300497
v -0.579438 0.181139 -0.107139
v -0.571748 0.199345 0.120294
v -0.567773 0.155632 0.347860
v -0.550816 0.045248 0.550047
v -0.551170 0.119760 0.771134
v -0.550856 0.044592 0.992145
v -0.331722 0.031227 -1.006193
v -0.352499 0.369778 -0.797009
v -0.388656 0.421486 -0.484135
v -0.413011 0.432644 -0.275770
v -0.354612 0.237620 -0.098113
v -0.334319 0.158275 0.113358
v -0.338241 0.171638 0.340276
v -0.332385 0.071828 0.551529
v -0.329244 0.119142 0.770844
v -0.329896 0.005986 0.990186
v -0.110194 0.016077 -0.993936
v -0.112167 0.266198 -0.776348
v -0.102559 0.243180 -0.517217
v -0.123485 0.346394 -0.312760
v -0.123007 0.327471 -0.089590
v -0.108528 0.220187 0.124153
v -0.113182 0.134958 0.324909
v -0.112396 0.104827 0.545294
v -0.109943 0.063491 0.770048
v -0.110000 0.000000 0.990000
v 0.109817 0.037249 -1.008148
v 0.110877 0.255247 -0.777194
v 0.109271 0.183917 -0.519645
v 0.097934 0.256969 -0.329716
v 0.100645 0.308261 -0.089626
v 0.118202 0.291202 0.157135
v 0.107856 0.137530 0.332765
v 0.104413 0.116445 0.546341
v 0.108915 0.034155 0.769839
v 0.110000 0.001896 0.990000
v 0.331151 0.058786 -1.015897
v 0.331001 0.264970 -0.774425
v 0.325142 0.115759 -0.534099
v 0.302473 0.204483 -0.320321
v 0.307834 0.285259 -0.085415
v 0.332007 0.212429 0.136558
v 0.335151 0.128463 0.329882
v 0.322392 0.161337 0.544940
v 0.325149 0.111854 0.775970
v 0.329778 0.013289 0.990717
v 0.552490 0.054123 -1.005987
v 0.552873 0.241148 -0.770246
v 0.555242 0.156380 -0.522194
v 0.544282 0.195833 -0.313735
v 0.549963 0.234579 -0.095929
v 0.553628 0.179733 0.125545
v 0.550145 0.091437 0.334468
v 0.535175 0.123924 0.552429
v 0.542926 0.102018 0.777500
v 0.549657 0.026873 0.990783
v 0.770001 0.022973 -0.990003
v 0.770190 0.126746 -0.769857
v 0.782168 0.094528 -0.538528
v 0.780470 0.101270 -0.325660
v 0.771035 0.101277 -0.107050
v 0.774041 0.113185 0.115815
v 0.771778 0.133386 0.331385
v 0.764229 0.152890 0.552631
v 0.767180 0.079246 0.773047
v 0.769858 0.015866 0.990181
v 0.990000 0.006728 -0.990000
v 0.991220 0.054157 -0.769441
v 0.997299 0.037579 -0.547122
v 0.995115 0.022226 -0.328760
v 0.990852 0.005667 -0.109813
v 0.990642 0.010658 0.110451
v 0.990065 0.024695 0.330105
v 0.989990 0.057232 0.550005
v 0.990000 0.040297 0.770000
v 0.990000 0.000641 0.990000
vt 0.969012 0.326274
vt 0.970535 0.378853
vt 0.942326 0.384576
vt 0.942240 0.327347
vt 0.973370 0.430841
vt 0.948585 0.438705
vt 0.976227 0.481503
vt 0.952595 0.485630
vt 0.976100 0.535888
vt 0.948749 0.536019
vt 0.974352 0.590928
vt 0.948780 0.591996
vt 0.974158 0.644563
vt 0.948241 0.647204
vt 0.974118 0.699025
vt 0.946724 0.697647
vt 0.976146 0.754205
vt 0.947865 0.752400
vt 0.976227 0.808233
vt 0.948741 0.807414
vt 0.915175 0.389697
vt 0.915978 0.323616
vt 0.924404 0.446001
vt 0.927284 0.491556
vt 0.921583 0.538985
vt 0.920628 0.593109
vt 0.921319 0.647204
vt 0.920635 0.700245
vt 0.921225 0.754034
vt 0.921469 0.809922
vt 0.889872 0.396943
vt 0.890450 0.314894
vt 0.894063 0.454548
vt 0.896172 0.491597
vt 0.894045 0.543296
vt 0.892502 0.595075
vt 0.894369 0.646887
vt 0.894811 0.701727
vt 0.895240 0.754454
vt 0.893921 0.812500
vt 0.863836 0.389176
vt 0.864860 0.312500
vt 0.859859 0.445105
vt 0.866464 0.492539
vt 0.866287 0.541265
vt 0.865762 0.594602
vt 0.867201 0.645595
vt 0.867797 0.699430
vt 0.867913 0.755318
vt 0.867227 0.811084
vt 0.838217 0.385732
vt 0.838699 0.312542
vt 0.836480 0.444796
vt 0.839996 0.488780
vt 0.841540 0.543067
vt 0.839345 0.595736
vt 0.840588 0.648170
vt 0.841294 0.699798
vt 0.841019 0.756891
vt 0.840286 0.810077
vt 0.814126 0.385900
vt 0.812364 0.314559
vt 0.812464 0.443408
vt 0.816576 0.490915
vt 0.818007 0.545680
vt 0.814362 0.598642
vt 0.813332 0.647215
vt 0.814909 0.697589
vt 0.813982 0.752042
vt 0.813564 0.808128
vt 0.790322 0.387084
vt 0.785578 0.320960
vt 0.787368 0.444723
vt 0.789057 0.493985
vt 0.790136 0.543952
vt 0.787963 0.596276
vt 0.788032 0.648659
vt 0.789630 0.699158
vt 0.788218 0.752507
vt 0.786865 0.806379
vt 0.762612 0.384555
vt 0.759511 0.327043
vt 0.759471 0.439577
vt 0.759311 0.489954
vt 0.760076 0.541756
vt 0.760401 0.594715
vt 0.761696 0.646319
vt 0.762902 0.698077
vt 0.761132 0.751721
vt 0.760106 0.805726
vt 0.734755 0.383333
vt 0.733076 0.329769
vt 0.732828 0.436183
vt 0.731933 0.488268
vt 0.731320 0.540772
vt 0.731509 0.593447
vt 0.732318 0.646175
vt 0.734101 0.699010
vt 0.733972 0.751701
vt 0.733429 0.805267
vn -0.3715 0.9197 -0.1267
vn -0.4229 0.9031 0.0746
vn -0.2163 0.9564 0.1965
vn -0.2304 0.9501 -0.2101
vn -0.3137 0.9370 -0.1537
vn -0.0884 0.9905 0.1054
vn 0.0475 0.9986 0.0220
vn -0.2127 0.9754 -0.0574
vn -0.3298 0.9213 0.2062
vn -0.2253 0.8533 -0.4703
vn -0.6875 0.7126 -0.1397
vn -0.8366 0.4860 0.2528
vn -0.6340 0.7733 -0.0005
vn -0.3585 0.9303 -0.0775
vn -0.3803 0.8989 0.2179
vn -0.1811 0.9487 0.2591
vn 0.0510 0.9542 -0.2949
vn 0.0344 0.9497 0.3112
vn -0.1702 0.6258 -0.7612
vn -0.4403 0.8655 -0.2389
vn -0.5680 0.8126 0.1303
vn -0.4556 0.6837 0.5701
vn -0.0336 0.9896 0.1400
vn 0.0555 0.9962 0.0665
vn -0.0781 0.8869 0.4552
vn -0.0560 0.9624 -0.2659
vn 0.0831 0.9162 0.3919
vn 0.2052 0.5796 -0.7886
vn 0.4715 0.8816 -0.0223
vn 0.3878 0.8984 -0.2064
vn 0.0195 0.8832 0.4686
vn -0.3034 0.8631 0.4036
vn -0.0535 0.9849 0.1644
vn 0.0219 0.9574 0.2879
vn 0.0513 0.9986 -0.0141
vn 0.1299 0.9199 0.3701
vn -0.0405 0.6912 -0.7215
vn 0.1582 0.9718 0.1750
vn 0.2865 0.8832 -0.3713
vn 0.2341 0.9697 -0.0694
vn -0.1294 0.9550 0.2669
vn -0.1845 0.8331 0.5214
vn -0.0345 0.9925 0.1169
vn 0.0387 0.9634 0.2651
vn 0.0611 0.9753 0.2120
vn -0.0601 0.7428 -0.6668
vn 0.1322 0.9056 0.4031
vn 0.2555 0.9047 -0.3410
vn 0.1823 0.9465 -0.2663
vn 0.2378 0.9576 0.1625
vn 0.1924 0.8233 0.5340
vn -0.0805 0.9963 -0.0304
vn -0.2642 0.9252 0.2724
vn -0.1962 0.9383 0.2848
vn 0.0696 0.7699 -0.6344
vn -0.0488 0.9009 0.4313
vn -0.0531 0.9543 -0.2939
vn 0.1156 0.9597 -0.2562
vn 0.1825 0.9478 0.2614
vn 0.1508 0.9087 0.3893
vn 0.1736 0.9754 -0.1361
vn 0.1047 0.9829 0.1514
vn -0.0093 0.9265 0.3762
vn 0.2895 0.8068 -0.5150
vn 0.3671 0.9061 0.2101
vn 0.3134 0.9449 -0.0942
vn 0.4417 0.8940 -0.0756
vn 0.4142 0.9065 0.0814
vn 0.0594 0.9855 0.1589
vn -0.1550 0.9801 -0.1240
vn -0.0114 0.9776 0.2100
vn 0.0756 0.9497 0.3040
vn 0.1874 0.9289 -0.3193
vn 0.2851 0.9541 0.0913
vn 0.3022 0.9530 0.0218
vn 0.3731 0.9266 0.0467
vn 0.4125 0.9102 -0.0373
vn 0.4350 0.8979 -0.0678
vn 0.4153 0.9042 -0.0995
vn 0.2843 0.9394 0.1913
vn 0.1199 0.9665 0.2271
usemtl marscity
s off
f 1/1/1 2/2/1 12/3/1 11/4/1
f 2/2/2 3/5/2 13/6/2 12/3/2
f 3/5/3 4/7/3 14/8/3 13/6/3
f 4/7/4 5/9/4 15/10/4 14/8/4
f 5/9/5 6/11/5 16/12/5 15/10/5
f 6/11/6 7/13/6 17/14/6 16/12/6
f 7/13/7 8/15/7 18/16/7 17/14/7
f 8/15/8 9/17/8 19/18/8 18/16/8
f 9/17/9 10/19/9 20/20/9 19/18/9
f 11/4/10 12/3/10 22/21/10 21/22/10
f 12/3/11 13/6/11 23/23/11 22/21/11
f 13/6/12 14/8/12 24/24/12 23/23/12
f 14/8/13 15/10/13 25/25/13 24/24/13
f 15/10/14 16/12/14 26/26/14 25/25/14
f 16/12/15 17/14/15 27/27/15 26/26/15
f 17/14/16 18/16/16 28/28/16 27/27/16
f 18/16/17 19/18/17 29/29/17 28/28/17
f 19/18/18 20/20/18 30/30/18 29/29/18
f 21/22/19 22/21/19 32/31/19 31/32/19
f 22/21/20 23/23/20 33/33/20 32/31/20
f 23/23/21 24/24/21 34/34/21 33/33/21
f 24/24/22 25/25/22 35/35/22 34/34/22
f 25/25/23 26/26/23 36/36/23 35/35/23
f 26/26/24 27/27/24 37/37/24 36/36/24
f 27/27/25 28/28/25 38/38/25 37/37/25
f 28/28/26 29/29/26 39/39/26 38/38/26
f 29/29/27 30/30/27 40/40/27 39/39/27
f 31/32/28 32/31/28 42/41/28 41/42/28
f 32/31/29 33/33/29 43/43/29 42/41/29
f 33/33/30 34/34/30 44/44/30 43/43/30
f 34/34/31 35/35/31 45/45/31 44/44/31
f 35/35/32 36/36/32 46/46/32 45/45/32
f 36/36/33 37/37/33 47/47/33 46/46/33
f 37/37/34 38/38/34 48/48/34 47/47/34
f 38/38/35 39/39/35 49/49/35 48/48/35
f 39/39/36 40/40/36 50/50/36 49/49/36
f 41/42/37 42/41/37 52/51/37 51/52/37
f 42/41/38 43/43/38 53/53/38 52/51/38
f 43/43/39 44/44/39 54/54/39 53/53/39
f 44/44/40 45/45/40 55/55/40 54/54/40
f 45/45/41 46/46/41 56/56/41 55/55/41
f 46/46/42 47/47/42 57/57/42 56/56/42
f 47/47/43 48/48/43 58/58/43 57/57/43
f 48/48/44 49/49/44 59/59/44 58/58/44
f 49/49/45 50/50/45 60/60/45 59/59/45
f 51/52/46 52/51/46 62/61/46 61/62/46
f 52/51/47 53/53/47 63/63/47 62/61/47
f 53/53/48 54/54/48 64/64/48 63/63/48
f 54/54/49 55/55/49 65/65/49 64/64/49
f 55/55/50 56/56/50 66/66/50 65/65/50
f 56/56/51 57/57/51 67/67/51 66/66/51
f 57/57/52 58/58/52 68/68/52 67/67/52
f 58/58/53 59/59/53 69/69/53 68/68/53
f 59/59/54 60/60/54 70/70/54 69/69/54
f 61/62/55 62/61/55 72/71/55 71/72/55
f 62/61/56 63/63/56 73/73/56 72/71/56
f 63/63/57 64/64/57 74/74/57 73/73/57
f 64/64/58 65/65/58 75/75/58 74/74/58
f 65/65/59 66/66/59 76/76/59 75/75/59
f 66/66/60 67/67/60 77/77/60 76/76/60
f 67/67/61 68/68/61 78/78/61 77/77/61
f 68/68/62 69/69/62 79/79/62 78/78/62
f 69/69/63 70/70/63 80/80/63 79/79/63
f 71/72/64 72/71/64 82/81/64 81/82/64
f 72/71/65 73/73/65 83/83/65 82/81/65
f 73/73/66 74/74/66 84/84/66 83/83/66
f 74/74/67 75/75/67 85/85/67 84/84/67
f 75/75/68 76/76/68 86/86/68 85/85/68
f 76/76/69 77/77/69 87/87/69 86/86/69
f 77/77/70 78/78/70 88/88/70 87/87/70
f 78/78/71 79/79/71 89/89/71 88/88/71
f 79/79/72 80/80/72 90/90/72 89/89/72
f 81/82/73 82/81/73 92/91/73 91/92/73
f 82/81/74 83/83/74 93/93/74 92/91/74
f 83/83/75 84/84/75 94/94/75 93/93/75
f 84/84/76 85/85/76 95/95/76 94/94/76
f 85/85/77 86/86/77 96/96/77 95/95/77
f 86/86/78 87/87/78 97/97/78 96/96/78
f 87/87/79 88/88/79 98/98/79 97/97/79
f 88/88/80 89/89/80 99/99/80 98/98/80
f 89/89/81 90/90/81 100/100/81 99/99/81
