# Blender v2.91.0 OBJ File: 'marscity.blend'
# www.blender.org
mtllib cube.mtl
o Grid.001
v 1.002500 0.000000 -1.002500
v -1.002500 0.000000 -1.002500
v 1.002500 0.000000 1.002500
v -1.002500 0.000000 1.002500
v 3.007499 0.000000 -1.002500
v 1.002500 0.000000 -1.002500
v 3.007500 0.000000 1.002500
v 1.002500 0.000000 1.002500
v -1.002500 0.000000 -1.002500
v -3.007500 0.000000 -1.002500
v -1.002500 0.000000 1.002500
v -3.007499 0.000000 1.002500
vt 0.299507 0.671875
vt 0.465025 0.671875
vt 0.465025 1.000000
vt 0.299507 1.000000
vt 0.299507 0.671875
vt 0.465025 0.671875
vt 0.465025 1.000000
vt 0.299507 1.000000
vt 0.299507 0.671875
vt 0.465025 0.671875
vt 0.465025 1.000000
vt 0.299507 1.000000
vn 0.0000 1.0000 0.0000
usemtl MARSNULL
s off
f 4/1/1 3/2/1 1/3/1 2/4/1
f 8/5/1 7/6/1 5/7/1 6/8/1
f 12/9/1 11/10/1 9/11/1 10/12/1
