# Blender v2.92.0 OBJ File: 'intro.blend'
# www.blender.org
mtllib intro_2.mtl
o 20XX_Cube.001
v 0.284110 0.011530 -0.058881
v 0.339723 -0.061199 -0.062629
v 0.343936 -0.065344 -0.063030
v 0.352779 -0.068741 -0.064330
v 0.352791 -0.072485 -0.064009
v 0.290266 -0.071722 -0.052812
v 0.290254 -0.067978 -0.053132
v 0.295976 -0.065296 -0.054394
v 0.297170 -0.061979 -0.054896
v 0.262464 -0.014060 -0.052774
v 0.231627 -0.054812 -0.043706
v 0.230931 -0.065266 -0.042679
v 0.236745 -0.067326 -0.043549
v 0.236756 -0.071069 -0.043229
v 0.176197 -0.070331 -0.032382
v 0.176185 -0.066587 -0.032703
v 0.183393 -0.064400 -0.034190
v 0.187917 -0.060098 -0.035376
v 0.243666 0.010269 -0.051486
v 0.191618 0.079082 -0.048044
v 0.188255 0.082598 -0.047740
v 0.182957 0.084951 -0.046989
v 0.179173 0.085575 -0.046361
v 0.179046 0.089320 -0.046661
v 0.242379 0.088548 -0.058004
v 0.242391 0.084804 -0.057683
v 0.238544 0.083226 -0.056855
v 0.236240 0.080876 -0.056237
v 0.235479 0.077752 -0.055830
v 0.265312 0.035858 -0.057592
v 0.292707 0.071000 -0.065557
v 0.293077 0.082443 -0.066611
v 0.287811 0.084250 -0.065818
v 0.287799 0.087994 -0.066139
v 0.349399 0.087243 -0.077171
v 0.349411 0.083499 -0.076851
v 0.346067 0.083000 -0.076205
v 0.340508 0.080168 -0.074959
v -0.087819 0.095383 0.000891
v -0.068254 0.092869 -0.002416
v -0.059343 0.089917 -0.003768
v -0.043263 0.080622 -0.005863
v -0.029005 0.066033 -0.007174
v -0.020775 0.051902 -0.007438
v -0.014285 0.029771 -0.006699
v -0.012863 0.006485 -0.004947
v -0.017380 -0.019092 -0.001928
v -0.023650 -0.034068 0.000493
v -0.033296 -0.047576 0.003396
v -0.042515 -0.056004 0.005783
v -0.053229 -0.062619 0.008283
v -0.063771 -0.066780 0.010541
v -0.087183 -0.069926 0.015031
v -0.097253 -0.069231 0.016784
v -0.115630 -0.064432 0.019681
v -0.123938 -0.060327 0.020823
v -0.138793 -0.048707 0.022498
v -0.149985 -0.034168 0.023260
v -0.158525 -0.013384 0.023007
v -0.162103 0.013697 0.021317
v -0.159926 0.036117 0.018992
v -0.154943 0.052083 0.016717
v -0.147576 0.065585 0.014225
v -0.139594 0.075236 0.011955
v -0.129963 0.083204 0.009533
v -0.119201 0.089242 0.007074
v -0.111436 0.092135 0.005426
v -0.093649 0.067855 0.004315
v -0.101733 0.065548 0.005970
v -0.106598 0.062858 0.007078
v -0.111042 0.059247 0.008191
v -0.118519 0.049516 0.010377
v -0.121295 0.044032 0.011349
v -0.123510 0.038132 0.012258
v -0.126262 0.025082 0.013878
v -0.126775 0.010470 0.015230
v -0.123360 -0.009810 0.016364
v -0.118296 -0.021317 0.016444
v -0.110751 -0.031231 0.015940
v -0.103872 -0.036469 0.015152
v -0.098761 -0.038823 0.014435
v -0.090304 -0.040644 0.013068
v -0.078466 -0.039872 0.010868
v -0.073142 -0.038104 0.009757
v -0.068258 -0.035415 0.008645
v -0.059809 -0.027270 0.006421
v -0.056374 -0.022077 0.005354
v -0.051382 -0.010810 0.003484
v -0.048629 0.001967 0.001886
v -0.048698 0.023873 0.000010
v -0.049837 0.030828 -0.000385
v -0.053786 0.043296 -0.000749
v -0.060066 0.054007 -0.000541
v -0.068586 0.062281 0.000281
v -0.073506 0.065090 0.000925
v -0.081712 0.067644 0.002183
v -0.280511 -0.031683 0.048371
v -0.273507 -0.025988 0.046618
v -0.213961 0.001039 0.033560
v -0.199595 0.011362 0.030082
v -0.190960 0.021785 0.027627
v -0.186763 0.030757 0.026098
v -0.184205 0.044257 0.024474
v -0.185161 0.058646 0.023404
v -0.189727 0.071251 0.023140
v -0.195523 0.079421 0.023480
v -0.206184 0.088399 0.024627
v -0.219301 0.094487 0.026465
v -0.226751 0.096430 0.027639
v -0.243437 0.098115 0.030500
v -0.266993 0.095920 0.034933
v -0.287888 0.088727 0.039317
v -0.301813 0.080052 0.042574
v -0.311229 0.072276 0.044940
v -0.313271 0.071329 0.045390
v -0.316648 0.071399 0.045992
v -0.321483 0.073330 0.046697
v -0.324248 0.070790 0.047414
v -0.293401 0.036839 0.044784
v -0.290866 0.039499 0.044098
v -0.292528 0.045186 0.043907
v -0.292359 0.049682 0.043489
v -0.288011 0.056502 0.042118
v -0.281035 0.061798 0.040404
v -0.271450 0.066644 0.038260
v -0.253149 0.070862 0.034599
v -0.239183 0.070305 0.032131
v -0.232185 0.068368 0.031038
v -0.226634 0.065213 0.030310
v -0.224421 0.063192 0.030085
v -0.221851 0.059640 0.029929
v -0.220639 0.056925 0.029944
v -0.219415 0.050661 0.030264
v -0.219725 0.044404 0.030859
v -0.221393 0.038883 0.031636
v -0.222733 0.036339 0.032096
v -0.226437 0.031667 0.033167
v -0.238769 0.022920 0.036143
v -0.294246 -0.004543 0.048505
v -0.309345 -0.017991 0.052384
v -0.318665 -0.032391 0.055305
v -0.324520 -0.063389 0.059033
v -0.324381 -0.070878 0.059653
v -0.320682 -0.070923 0.058990
v -0.319394 -0.067078 0.058427
v -0.186758 -0.065069 0.034360
v -0.184561 -0.065278 0.033983
v -0.180722 -0.067398 0.033474
v -0.178298 -0.072660 0.033490
v -0.174599 -0.072705 0.032828
v -0.174737 -0.028950 0.029080
v -0.178435 -0.028905 0.029742
v -0.179275 -0.031417 0.030110
v -0.181741 -0.034976 0.030861
v -0.185166 -0.036208 0.031584
v -0.283351 -0.035113 0.049177
v 0.044320 -0.036867 -0.013026
v 0.142505 -0.037962 -0.030620
v 0.145930 -0.036730 -0.031343
v 0.148396 -0.033171 -0.032094
v 0.149236 -0.030660 -0.032462
v 0.152934 -0.030705 -0.033124
v 0.153072 -0.074459 -0.029376
v 0.149373 -0.074414 -0.028713
v 0.146949 -0.069153 -0.028730
v 0.143110 -0.067033 -0.028221
v 0.140913 -0.066824 -0.027844
v 0.018060 -0.065326 -0.005841
v 0.006989 -0.072678 -0.003213
v 0.003290 -0.072633 -0.002551
v 0.003151 -0.065144 -0.003171
v 0.003494 -0.055750 -0.004043
v 0.014106 -0.025251 -0.008585
v 0.023202 -0.014580 -0.011144
v 0.041827 -0.001213 -0.015651
v 0.095922 0.025484 -0.027698
v 0.103260 0.032184 -0.029598
v 0.106278 0.037129 -0.030568
v 0.107281 0.039817 -0.030980
v 0.108274 0.045625 -0.031660
v 0.107844 0.052177 -0.032147
v 0.107032 0.055171 -0.032260
v 0.105063 0.059139 -0.032247
v 0.101037 0.063458 -0.031893
v 0.098443 0.065188 -0.031575
v 0.092168 0.067734 -0.030666
v 0.084447 0.069063 -0.029389
v 0.063870 0.067392 -0.025537
v 0.056221 0.064890 -0.023944
v 0.042759 0.057413 -0.020874
v 0.037338 0.052046 -0.019435
v 0.035143 0.043432 -0.018297
v 0.036805 0.037744 -0.018105
v 0.034270 0.035085 -0.017420
v 0.003423 0.069036 -0.014790
v 0.006188 0.071576 -0.015507
v 0.011023 0.069645 -0.016211
v 0.014400 0.069575 -0.016814
v 0.016442 0.070521 -0.017264
v 0.034975 0.084393 -0.021799
v 0.049898 0.091193 -0.025073
v 0.072123 0.095888 -0.029481
v 0.092874 0.095885 -0.033220
v 0.108370 0.092732 -0.035739
v 0.115226 0.090055 -0.036743
v 0.127153 0.082501 -0.038241
v 0.136238 0.072342 -0.039002
v 0.140679 0.063439 -0.039034
v 0.143438 0.049854 -0.038359
v 0.142621 0.035533 -0.036978
v 0.138327 0.022911 -0.035116
v 0.132827 0.014599 -0.033408
v 0.122507 0.005040 -0.030724
v 0.113710 -0.000715 -0.028643
v 0.050156 -0.030569 -0.014620
vt 0.138728 0.000000
vt 0.034682 0.000000
vt 0.011561 0.000000
vt 0.150289 0.000000
vt 0.075145 0.000000
vt 0.060694 0.000000
vt 0.786611 0.000000
vt 0.309623 0.000000
vt 0.799163 0.000000
vt 0.941423 0.000000
vt 0.924686 0.000000
vt 0.071130 0.000000
vt 0.260116 0.000000
vt 0.222543 0.000000
vt 0.153179 0.000000
vt 0.829480 0.000000
vt 0.427746 0.000000
vt 0.841040 0.000000
vt 0.531792 0.000000
vt 0.511561 0.000000
vt 0.745665 0.000000
vt 0.416185 0.000000
vt 0.410405 0.000000
vt 0.849711 0.000000
vt 0.494220 0.000000
vt 0.482659 0.000000
vt 0.768786 0.000000
vt 0.450867 0.000000
vt 0.439306 0.000000
vt 0.817919 0.000000
vt 0.549133 0.000000
vt 0.531792 0.000000
vt 0.731214 0.000000
vt 0.025105 0.000000
vt 0.016736 0.000000
vt 0.983264 0.000000
vt 0.315029 0.000000
vt 0.300578 0.000000
vt 0.000000 0.000000
vt 0.797688 0.000000
vt 0.456647 0.000000
vt 0.806358 0.000000
vt 0.610879 0.000000
vt 0.995816 0.000000
vt 0.000000 0.000000
vt 0.586705 0.000000
vt 0.569364 0.000000
vt 0.670520 0.000000
vt 0.778243 0.000000
vt 0.326360 0.000000
vt 0.301255 0.000000
vt 0.815900 0.000000
vt 0.916318 0.000000
vt 0.108787 0.000000
vt 0.087866 0.000000
vt 0.465318 0.000000
vt 0.786127 0.000000
vt 0.707113 0.000000
vt 0.690377 0.000000
vt 0.451883 0.000000
vt 0.384937 0.000000
vt 0.748954 0.000000
vt 0.732218 0.000000
vt 0.615607 0.000000
vt 0.612717 0.000000
vt 0.965318 0.000000
vt 0.881503 0.000000
vt 0.375723 0.000000
vt 0.774566 0.000000
vt 0.471098 0.000000
vt 0.260116 0.000000
vt 0.991329 0.000000
vt 0.332370 0.000000
vt 0.398844 0.000000
vt 0.109827 0.000000
vt 0.739884 0.000000
vt 0.523121 0.000000
vt 0.080925 0.000000
vt 0.078035 0.000000
vt 0.974895 0.000000
vt 0.958159 0.000000
vt 0.041841 0.000000
vt 0.309249 0.000000
vt 0.271676 0.000000
vt 0.000000 0.000000
vt 0.445087 0.000000
vt 0.433526 0.000000
vt 0.823699 0.000000
vt 0.725434 0.000000
vt 0.543353 0.000000
vt 0.734104 0.000000
vt 0.765690 0.000000
vt 0.334728 0.000000
vt 0.849372 0.000000
vt 0.832636 0.000000
vt 0.234310 0.000000
vt 0.539749 0.000000
vt 0.640167 0.000000
vt 0.631799 0.000000
vt 0.556485 0.000000
vt 0.874477 0.000000
vt 0.857741 0.000000
vt 0.192469 0.000000
vt 0.623431 0.000000
vt 0.569038 0.000000
vt 0.641618 0.000000
vt 0.861272 0.000000
vt 0.757225 0.000000
vt 0.824268 0.000000
vt 0.267782 0.000000
vt 0.251046 0.000000
vt 0.693642 0.000000
vt 0.554913 0.000000
vt 0.072254 0.000000
vt 0.217573 0.000000
vt 0.855491 0.000000
vt 0.416185 0.000000
vt 0.404624 0.000000
vt 0.673640 0.000000
vt 0.489540 0.000000
vt 0.472803 0.000000
vt 0.058577 0.000000
vt 0.205202 0.000000
vt 0.421965 0.000000
vt 0.835260 0.000000
vt 0.618497 0.000000
vt 0.891213 0.000000
vt 0.500000 0.000000
vt 0.751445 0.000000
vt 0.225434 0.000000
vt 0.222543 0.000000
vt 0.656904 0.000000
vt 0.523013 0.000000
vt 0.158996 0.000000
vt 0.418410 0.000000
vt 0.459538 0.000000
vt 0.450867 0.000000
vt 0.803468 0.000000
vt 0.351464 0.000000
vt 0.488439 0.000000
vt 0.763006 0.000000
vt 0.506276 0.000000
vt 0.609827 0.000000
vt 0.665272 0.000000
vt 0.471098 0.000000
vt 0.791907 0.000000
vt 0.641618 0.000000
vt 0.586705 0.000000
vt 0.670520 0.000000
vt 0.225434 0.000000
vt 0.270142 0.000000
vt 0.464455 0.000000
vt 0.341232 0.000000
vt 0.618497 0.000000
vt 0.615607 0.000000
vt 0.109827 0.000000
vt 0.078035 0.000000
vt 0.075145 0.000000
vt 0.387283 0.000000
vt 0.869942 0.000000
vt 0.034682 0.000000
vt 0.476879 0.000000
vt 0.780347 0.000000
vt 0.774566 0.000000
vt 0.812139 0.000000
vt 0.693642 0.000000
vt 0.138728 0.000000
vt 0.881503 0.000000
vt 0.560694 0.000000
vt 0.080925 0.000000
vt 0.979769 0.000000
vt 0.320809 0.000000
vt 0.011561 0.000000
vt 0.150289 0.000000
vt 0.612717 0.000000
vt 0.609827 0.000000
vt 0.072254 0.000000
vt 0.060694 0.000000
vt 0.343931 0.000000
vt 0.846821 0.000000
vt 0.431280 0.000000
vt 0.383886 0.000000
vt 0.379147 0.000000
vt 0.374408 0.000000
vt 0.369668 0.000000
vt 0.502370 0.000000
vt 0.753555 0.000000
vt 0.540284 0.000000
vt 0.691943 0.000000
vt 0.000000 0.000000
vt 0.952607 0.000000
vt 0.772512 0.000000
vt 0.848341 0.000000
vt 0.625592 0.000000
vt 0.620853 0.000000
vt 0.601896 0.000000
vt 0.635071 0.000000
vt 0.630332 0.000000
vt 0.654028 0.000000
vt 0.563981 0.000000
vt 0.672986 0.000000
vt 0.165877 0.000000
vt 0.132701 0.000000
vt 0.127962 0.000000
vt 0.123223 0.000000
vt 0.066351 0.000000
vt 0.118483 0.000000
vt 0.037915 0.000000
vt 0.189573 0.000000
vt 0.876777 0.000000
vt 0.872038 0.000000
vt 0.886256 0.000000
vt 0.881517 0.000000
vt 0.905213 0.000000
vt 0.251185 0.000000
vn 0.1766 0.0846 0.9806
vn 0.1767 0.0845 0.9806
vn 0.1766 0.0845 0.9806
vn 0.1765 0.0843 0.9807
vn 0.1767 0.0846 0.9806
vn 0.1769 0.0844 0.9806
vn 0.1768 0.0846 0.9806
vn 0.1767 0.0843 0.9806
vn 0.1766 0.0847 0.9806
vn 0.1767 0.0844 0.9806
vn 0.1768 0.0847 0.9806
vn 0.1765 0.0845 0.9807
vn 0.1768 0.0845 0.9806
vn 0.1765 0.0846 0.9807
vn 0.1766 0.0844 0.9807
vn 0.0120 0.9936 -0.1120
vn 0.1766 0.0848 0.9806
vn 0.1767 0.0847 0.9806
vn 0.1768 0.0848 0.9806
vn 0.1766 0.0845 0.9807
usemtl MARSINDX_7
s off
f 147/1/1 154/2/1 155/3/1 146/4/1
f 151/5/2 153/6/2 154/2/2
f 81/7/2 54/8/2 82/9/2
f 92/10/1 91/11/1 44/12/1
f 171/13/2 169/14/2 168/15/2
f 103/16/3 134/17/3 102/18/3
f 125/19/1 126/20/1 111/21/1
f 135/22/4 136/23/4 101/24/4
f 127/25/2 128/26/2 109/27/2
f 132/28/5 133/29/5 104/30/5
f 133/29/1 134/17/1 103/16/1
f 190/31/5 189/32/5 200/33/5
f 41/34/2 40/35/2 95/36/2
f 140/37/2 141/38/2 156/39/2
f 106/40/2 131/41/2 105/42/2
f 68/43/5 96/44/5 39/45/5
f 121/46/5 122/47/5 115/48/5
f 81/7/1 80/49/1 55/50/1
f 82/9/5 53/51/5 83/52/5
f 90/53/5 46/54/5 45/55/5
f 130/56/2 106/40/2 107/57/2
f 76/58/5 75/59/5 60/60/5
f 58/61/2 78/62/2 77/63/2
f 118/64/3 119/65/3 121/46/3
f 98/66/5 99/67/5 138/68/5
f 108/69/1 109/27/1 128/26/1
f 107/57/6 129/70/6 130/56/6
f 146/4/5 155/3/5 156/39/5 142/71/5
f 97/72/5 98/66/5 139/73/5
f 138/68/5 99/67/5 137/74/5
f 148/75/1 151/5/1 154/2/1
f 201/76/3 189/32/3 188/77/3
f 148/75/2 149/78/2 150/79/2
f 94/80/2 93/81/2 42/82/2
f 173/83/5 172/84/5 157/85/5
f 54/8/1 53/51/1 82/9/1
f 181/86/5 180/87/5 209/88/5
f 113/89/2 124/90/2 112/91/2
f 41/34/1 95/36/1 94/80/1
f 79/92/2 56/93/2 80/49/2
f 86/94/3 85/95/3 50/96/3
f 125/19/5 111/21/5 112/91/5
f 65/97/2 71/98/2 70/99/2 66/100/2
f 96/44/1 95/36/1 40/35/1
f 88/101/3 87/102/3 48/103/3
f 69/104/3 67/105/3 66/100/3
f 116/106/7 121/46/7 115/48/7
f 137/74/5 99/67/5 100/107/5
f 126/20/5 127/25/5 110/108/5
f 84/109/5 52/110/5 51/111/5
f 114/112/1 123/113/1 113/89/1
f 131/41/8 132/28/8 105/42/8
f 124/90/3 125/19/3 112/91/3
f 151/5/9 152/114/9 153/6/9
f 55/50/1 80/49/1 56/93/1
f 87/102/5 86/94/5 49/115/5
f 212/116/3 178/117/3 177/118/3
f 74/119/5 62/120/5 61/121/5
f 139/73/3 140/37/3 97/72/3
f 115/48/5 122/47/5 114/112/5
f 93/81/2 92/10/2 43/122/2
f 145/123/10 146/4/10 142/71/10
f 180/87/5 179/124/5 210/125/5
f 117/126/9 118/64/9 116/106/9
f 148/75/2 150/79/2 151/5/2
f 90/53/2 89/127/2 46/54/2
f 188/77/2 187/128/2 202/129/2
f 134/17/5 135/22/5 102/18/5
f 122/47/3 123/113/3 114/112/3
f 143/130/2 144/131/2 145/123/2 142/71/2
f 74/119/2 61/121/2 75/59/2
f 98/66/5 138/68/5 139/73/5
f 108/69/1 128/26/1 129/70/1
f 123/113/5 124/90/5 113/89/5
f 130/56/1 131/41/1 106/40/1
f 110/108/5 111/21/5 126/20/5
f 72/132/5 71/98/5 64/133/5
f 89/127/5 88/101/5 47/134/5
f 51/111/5 85/95/5 84/109/5
f 105/42/2 132/28/2 104/30/2
f 107/57/5 108/69/5 129/70/5
f 100/107/5 101/24/5 136/23/5
f 69/104/3 66/100/3 70/99/3
f 60/60/2 59/135/2 76/58/2
f 147/1/5 148/75/5 154/2/5
f 49/115/5 86/94/5 50/96/5
f 133/29/1 103/16/1 104/30/1
f 183/136/2 182/137/2 207/138/2
f 101/24/3 102/18/3 135/22/3
f 127/25/5 109/27/5 110/108/5
f 52/110/3 84/109/3 83/52/3
f 76/58/1 59/135/1 77/63/1
f 90/53/5 45/55/5 91/11/5
f 79/92/1 78/62/1 57/139/1
f 136/23/11 137/74/11 100/107/11
f 187/128/5 186/140/5 203/141/5
f 64/133/5 63/142/5 72/132/5
f 119/65/12 120/143/12 121/46/12
f 72/132/3 63/142/3 73/144/3
f 65/97/3 64/133/3 71/98/3
f 116/106/2 118/64/2 121/46/2
f 184/145/13 183/136/13 206/146/13
f 74/119/5 73/144/5 62/120/5
f 197/147/7 192/148/7 198/149/7
f 170/150/2 169/14/2 171/13/2
f 11/151/2 18/152/2 12/153/2
f 196/154/9 195/155/9 197/147/9
f 165/156/5 163/157/5 162/158/5
f 177/118/5 176/159/5 213/160/5
f 165/156/1 162/158/1 159/161/1
f 185/162/5 184/145/5 205/163/5 204/164/5
f 208/165/1 207/138/1 182/137/1
f 208/165/5 181/86/5 209/88/5
f 200/33/5 199/166/5 190/31/5
f 166/167/5 165/156/5 159/161/5
f 197/147/2 195/155/2 192/148/2
f 187/128/5 203/141/5 202/129/5
f 176/159/3 214/168/3 213/160/3
f 186/140/14 185/162/14 204/164/14
f 191/169/5 199/166/5 198/149/5
f 165/156/2 164/170/2 163/157/2
f 215/171/3 174/172/3 157/85/3
f 180/87/2 210/125/2 209/88/2
f 191/169/3 190/31/3 199/166/3
f 166/167/1 159/161/1 158/173/1 167/174/1
f 177/118/5 213/160/5 212/116/5
f 194/175/12 193/176/12 192/148/12
f 183/136/5 207/138/5 206/146/5
f 162/158/9 161/177/9 160/178/9
f 186/140/1 204/164/1 203/141/1
f 215/171/5 214/168/5 175/179/5
f 212/116/5 211/180/5 178/117/5
f 195/155/2 194/175/2 192/148/2
f 205/163/2 184/145/2 206/146/2
f 210/125/5 179/124/5 211/180/5
f 175/179/5 174/172/5 215/171/5
f 174/172/2 173/83/2 157/85/2
f 162/158/3 160/178/3 159/161/3
f 201/76/3 200/33/3 189/32/3
f 176/159/2 175/179/2 214/168/2
f 178/117/15 211/180/15 179/124/15
f 167/174/5 158/173/5 157/85/5 171/13/5
f 168/15/16 167/174/16 171/13/16
f 208/165/17 182/137/17 181/86/17
f 172/84/2 171/13/2 157/85/2
f 192/148/5 191/169/5 198/149/5
f 17/181/2 16/182/2 15/183/2
f 15/183/2 14/184/2 17/181/2
f 14/184/2 13/185/2 12/153/2
f 14/184/10 12/153/10 17/181/10
f 17/181/5 12/153/5 18/152/5
f 19/186/5 30/187/5 20/188/5
f 29/189/2 20/188/2 30/187/2
f 94/80/5 42/82/5 41/34/5
f 1/190/5 38/191/5 31/192/5 30/187/5
f 32/193/1 31/192/1 38/191/1
f 188/77/1 202/129/1 201/76/1
f 24/194/2 23/195/2 22/196/2
f 26/197/1 25/198/1 27/199/1
f 25/198/5 24/194/5 21/200/5
f 27/199/1 25/198/1 28/201/1
f 24/194/4 22/196/4 21/200/4
f 25/198/5 21/200/5 28/201/5
f 28/201/10 21/200/10 20/188/10
f 29/189/18 28/201/18 20/188/18
f 96/44/1 40/35/1 39/45/1
f 42/82/5 93/81/5 43/122/5
f 8/202/3 7/203/3 6/204/3
f 6/204/1 5/205/1 3/206/1
f 5/205/19 4/207/19 3/206/19
f 8/202/2 6/204/2 3/206/2
f 8/202/5 3/206/5 2/208/5
f 9/209/18 8/202/18 2/208/18
f 34/210/20 33/211/20 32/193/20
f 36/212/13 35/213/13 37/214/13
f 35/213/5 34/210/5 38/191/5
f 37/214/5 35/213/5 38/191/5
f 34/210/3 32/193/3 38/191/3
f 142/71/5 156/39/5 141/38/5
f 67/105/3 69/104/3 68/43/3
f 11/151/1 10/215/1 19/186/1 18/152/1
f 156/39/15 97/72/15 140/37/15
f 30/187/1 19/186/1 10/215/1 1/190/1
f 2/208/5 1/190/5 10/215/5
f 10/215/2 9/209/2 2/208/2
f 92/10/2 44/12/2 43/122/2
f 45/55/5 44/12/5 91/11/5
f 46/54/5 89/127/5 47/134/5
f 88/101/2 48/103/2 47/134/2
f 48/103/5 87/102/5 49/115/5
f 50/96/3 85/95/3 51/111/3
f 52/110/5 83/52/5 53/51/5
f 55/50/2 54/8/2 81/7/2
f 79/92/2 57/139/2 56/93/2
f 58/61/1 57/139/1 78/62/1
f 59/135/3 58/61/3 77/63/3
f 61/121/5 60/60/5 75/59/5
f 63/142/5 62/120/5 73/144/5
f 68/43/5 39/45/5 67/105/5
