# Blender v2.92.0 OBJ File: 'intro.blend'
# www.blender.org
mtllib intro.mtl
o Plane
v -0.559150 0.067603 -0.538970
v 1.101041 0.057876 0.576231
v -0.525039 0.664897 -0.584539
v 1.135151 0.655170 0.530661
v -1.737689 0.639053 -32.917782
v 2.211965 0.942970 -33.729637
v -1.826441 1.627318 -33.054581
v 2.123212 1.931236 -33.866425
vt 0.000000 0.500000
vt 0.750000 0.500000
vt 0.750000 1.000000
vt 0.000000 1.000000
vt 0.000000 0.000000
vt 1.000000 0.000000
vt 1.000000 0.500000
vt 0.000000 0.505263
vn -0.5547 0.0947 0.8266
vn 0.1878 0.1512 0.9705
usemtl intro
s off
f 1/1/1 2/2/1 4/3/1 3/4/1
f 5/5/2 6/6/2 8/7/2 7/8/2
