# Blender v2.91.0 OBJ File: 'test.blend'
# www.blender.org
mtllib test.mtl
v -7.999999 0.000000 8.000001
v 8.000001 0.000000 7.999999
v -8.000001 0.000000 -7.999999
v 7.999999 0.000000 -8.000001
v -1.599999 0.000000 8.000000
v 0.000001 0.000000 8.000000
v 1.600001 0.000000 8.000000
v -8.000001 0.000000 -3.999999
v -8.000000 0.000000 0.000001
v -8.000000 0.000000 4.000001
v 1.599999 0.000000 -8.000000
v -0.000001 0.000000 -8.000000
v -1.600001 0.000000 -8.000000
v 8.000001 0.000000 3.999999
v 8.000000 0.000000 -0.000001
v 8.000000 0.000000 -4.000001
v 1.599999 0.000000 -4.000000
v 1.600000 0.000000 -0.000000
v 1.600001 0.000000 4.000000
v -0.000001 0.000000 -4.000000
v 0.000000 0.000000 0.000000
v 0.000001 0.000000 4.000000
v -1.600001 0.000000 -4.000000
v -1.600000 0.000000 0.000000
v -1.599999 0.000000 4.000000
v 2.880001 0.000000 8.000000
v 2.879999 0.000000 -8.000000
v 2.879999 0.000000 -4.000000
v 2.880000 0.000000 -0.000000
v 2.880001 0.000000 4.000000
v -2.880001 0.000000 -8.000000
v -2.879999 0.000000 8.000000
v -2.880001 0.000000 -4.000000
v -2.880000 0.000000 0.000000
v -2.879999 0.000000 4.000000
vt 0.722854 0.633146
vt 0.589521 0.466869
vt 0.769943 0.391869
vt 0.903276 0.558146
vt 0.406212 0.008566
vt 0.406212 0.140866
vt 0.065934 0.140866
vt 0.065934 0.008566
vt 0.406212 0.273166
vt 0.065934 0.273166
vt 0.793329 0.006216
vt 0.793329 0.138866
vt 0.418329 0.138866
vt 0.418329 0.006216
vt 0.043329 0.138866
vt 0.043329 0.006216
vt 0.746489 0.008566
vt 0.746489 0.140866
vt 0.793329 0.271517
vt 0.418329 0.271517
vt 0.043329 0.271517
vt 0.746489 0.273166
vt 0.181588 0.858146
vt 0.048255 0.691869
vt 0.228677 0.616869
vt 0.362010 0.783146
vt 0.409099 0.541869
vt 0.542432 0.708146
vt 0.459387 0.550273
vt 0.617779 0.664315
vt 0.494035 0.753411
vt 0.335643 0.639369
vt 0.583130 0.461178
vt 0.741522 0.575220
vt 0.706874 0.372082
vt 0.865266 0.486124
vt 0.370291 0.842506
vt 0.211899 0.728464
vt 0.200000 0.750000
vt 0.250000 0.750000
vt 0.250000 1.000000
vt 0.200000 1.000000
vt 0.200000 0.000000
vt 0.250000 0.000000
vt 0.250000 0.250000
vt 0.200000 0.250000
vt 0.250000 0.500000
vt 0.200000 0.500000
vt 0.750000 0.500000
vt 0.800000 0.500000
vt 0.800000 0.750000
vt 0.750000 0.750000
vt 0.750000 0.250000
vt 0.800000 0.250000
vt 0.750000 0.000000
vt 0.800000 0.000000
vt 0.800000 1.000000
vt 0.750000 1.000000
vn 0.0000 1.0000 0.0000
usemtl marscity
s off
f 35/1/1 10/2/1 1/3/1 32/4/1
f 19/5/1 22/6/1 6/7/1 7/8/1
f 22/6/1 25/9/1 5/10/1 6/7/1
f 11/11/1 12/12/1 20/13/1 17/14/1
f 17/14/1 20/13/1 21/15/1 18/16/1
f 18/17/1 21/18/1 22/6/1 19/5/1
f 12/12/1 13/19/1 23/20/1 20/13/1
f 20/13/1 23/20/1 24/21/1 21/15/1
f 21/18/1 24/22/1 25/9/1 22/6/1
f 31/23/1 3/24/1 8/25/1 33/26/1
f 33/26/1 8/25/1 9/27/1 34/28/1
f 34/28/1 9/27/1 10/2/1 35/1/1
f 15/29/1 29/30/1 30/31/1 14/32/1
f 16/33/1 28/34/1 29/30/1 15/29/1
f 4/35/1 27/36/1 28/34/1 16/33/1
f 14/32/1 30/31/1 26/37/1 2/38/1
usemtl MARSINDX_10
f 30/39/1 19/40/1 7/41/1 26/42/1
f 27/43/1 11/44/1 17/45/1 28/46/1
f 28/46/1 17/45/1 18/47/1 29/48/1
f 29/48/1 18/47/1 19/40/1 30/39/1
f 24/49/1 34/50/1 35/51/1 25/52/1
f 23/53/1 33/54/1 34/50/1 24/49/1
f 13/55/1 31/56/1 33/54/1 23/53/1
f 25/52/1 35/51/1 32/57/1 5/58/1
