# Blender v2.91.0 OBJ File: 'marscity.blend'
# www.blender.org
mtllib test3.mtl
v 8.000202 0.000000 -8.000000
v -8.000000 0.000000 -8.000000
v 8.000202 0.000000 8.000000
v -8.000000 0.000000 8.000000
v 1.600000 0.000000 -8.000000
v -1.600000 0.000000 -8.000000
v 8.000202 0.000000 3.040000
v 8.000202 0.000000 -3.040000
v -1.600000 0.000000 8.000000
v 1.600000 0.000000 8.000000
v -8.000000 0.000000 -3.040000
v -8.000000 0.000000 3.040000
v -1.600000 0.000000 4.000000
v -1.600000 0.000000 -4.000000
v 1.600000 0.000000 4.000000
v 1.600000 0.000000 -4.000000
v -2.880000 0.000000 -8.000000
v -2.880000 0.000000 8.000000
v -2.880000 0.000000 3.040000
v -2.880000 0.000000 -3.040000
v 2.880000 0.000000 8.000000
v 2.880202 0.000000 -8.000000
v 2.880202 0.000000 3.040000
v 2.880202 0.000000 -3.040000
v 8.000202 0.000000 1.628769
v 8.000202 0.000000 -1.598065
v -8.000000 0.000000 -1.598065
v -8.000000 0.000000 1.628769
v -1.600000 0.000000 1.628769
v -1.600000 0.000000 -1.598065
v 1.600202 0.000000 1.628769
v 1.600202 0.000000 -1.598065
v -5.440000 0.000000 1.628769
v -5.440000 0.000000 -1.598065
v 5.440202 0.000000 -1.598065
v 5.440000 0.000000 1.628769
vt 0.917081 0.615018
vt 0.917081 0.904009
vt 0.502756 0.904009
vt 0.502756 0.615018
vt 0.315437 0.009280
vt 0.770299 0.009280
vt 0.770299 0.271280
vt 0.315437 0.271280
vt 0.502756 0.904009
vt 0.088431 0.904009
vt 0.088431 0.615018
vt 0.502756 0.615018
vt 0.042299 0.271280
vt 0.042299 0.009263
vt 0.043156 0.006418
vt 0.480955 0.006418
vt 0.480978 0.271315
vt 0.043156 0.271315
vt 0.755449 0.004719
vt 0.313717 0.004719
vt 0.313717 0.276983
vt 0.755449 0.276983
vt 0.772860 0.006418
vt 0.772860 0.271315
vt 0.013717 0.276983
vt 0.013717 0.004719
vt 0.489808 0.316692
vt 0.891185 0.316692
vt 0.891185 0.615006
vt 0.489808 0.615006
vt 0.795422 0.007242
vt 0.795422 0.274443
vt 0.331531 0.274443
vt 0.331531 0.007242
vt 0.088431 0.615018
vt 0.088431 0.316692
vt 0.489808 0.316692
vt 0.489808 0.615006
vt 0.056533 0.274460
vt 0.056533 0.007242
vt 0.000000 0.000000
vt 0.000000 0.000000
vt 0.233181 0.861249
vt 0.153985 0.782053
vt 0.000000 0.400000
vt 0.250000 0.400000
vt 0.250000 0.600000
vt 0.000000 0.600000
vt 0.000000 0.000000
vt 0.054990 0.881048
vt 0.435740 0.791183
vt 0.000000 0.000000
vt 0.000000 0.000000
vt 0.532158 0.906090
vt 0.343815 0.868318
vt 0.000000 0.000000
vt 0.242904 0.561370
vt 0.000000 0.000000
vt 0.000000 0.000000
vt 0.150979 0.638504
vt 0.146486 0.446463
vt 0.000000 0.000000
vt 0.351975 0.584063
vt 0.000000 0.000000
vt 0.000000 0.000000
vt 0.450970 0.485068
vt 0.431171 0.663259
vt 0.000000 0.000000
vn 0.0000 1.0000 0.0000
vn 0.0000 -1.0000 0.0000
usemtl marscity
s off
f 18/1/1 19/2/1 12/3/1 4/4/1
f 16/5/1 5/6/1 6/7/1 14/8/1
f 24/9/1 8/10/1 1/11/1 22/12/1
f 16/5/1 14/8/1 30/13/1 32/14/1
f 31/15/1 36/16/1 35/17/1 32/18/1
f 29/19/2 33/20/2 34/21/2 30/22/2
f 36/16/1 25/23/1 26/24/1 35/17/1
f 33/20/1 34/21/1 27/25/1 28/26/1
f 2/27/1 11/28/1 20/29/1 17/30/1
f 9/31/1 10/32/1 15/33/1 13/34/1
f 21/35/1 3/36/1 7/37/1 23/38/1
f 31/39/1 29/40/1 13/34/1 15/33/1
usemtl MARSINDX_10
f 32/41/1 26/42/1 8/43/1 24/44/1
f 31/45/1 32/46/1 30/47/1 29/48/1
f 5/49/1 32/41/1 24/44/1 22/50/1
f 20/51/1 30/52/1 6/53/1 17/54/1
f 20/51/1 11/55/1 27/56/1 30/52/1
f 19/57/1 29/58/1 28/59/1 12/60/1
f 19/57/1 18/61/1 9/62/1 29/58/1
f 23/63/1 31/64/1 10/65/1 21/66/1
f 23/63/1 7/67/1 25/68/1 31/64/1
