# Blender v2.82 (sub 7) OBJ File: ''
# www.blender.org
mtllib cube.mtl
o Plane_Plane.002
v -2.424469 2.424469 0.000000
v 2.424469 2.424469 0.000000
v -2.424469 -2.424469 -0.000000
v 2.424469 -2.424469 -0.000000
vt 0.000000 0.000000
vt 1.000000 0.000000
vt 1.000000 1.000000
vt 0.000000 1.000000
vn 0.0000 0.0000 -1.0000
usemtl MARSNULL
s off
f 1/1/1 2/2/1 4/3/1 3/4/1
o Plane.001_Plane.003
v 1.103459 2.080947 1.702452
v -1.803361 2.080947 1.702452
v 1.103459 4.987767 1.702452
v -1.803361 4.987767 1.702452
vt 0.000000 0.000000
vt 0.000000 1.000000
vt 1.000000 1.000000
vt 1.000000 0.000000
vn 0.0000 -0.0000 1.0000
usemtl MARSNULL
s off
f 5/5/2 7/6/2 8/7/2 6/8/2
o Plane.002_Plane.004
v -5.541847 3.795762 5.135511
v -1.256275 3.795762 5.135511
v -5.541847 -0.489809 5.135511
v -1.256275 -0.489809 5.135511
vt 0.000000 0.000000
vt 1.000000 0.000000
vt 1.000000 1.000000
vt 0.000000 1.000000
vn 0.0000 0.0000 -1.0000
usemtl MARSNULL
s off
f 9/9/3 10/10/3 12/11/3 11/12/3
o Plane.003_Plane.005
v 1.395798 5.104815 4.095734
v 5.252749 5.104815 4.095734
v 1.395798 1.247864 4.095734
v 5.252749 1.247864 4.095734
vt 0.000000 0.000000
vt 1.000000 0.000000
vt 1.000000 1.000000
vt 0.000000 1.000000
vn 0.0000 0.0000 -1.0000
usemtl MARSNULL
s off
f 13/13/4 14/14/4 16/15/4 15/16/4
