# Blender v2.91.0 OBJ File: ''
# www.blender.org
mtllib cube.mtl
v 0.415578 -0.424553 -0.419822
v 0.415253 -0.424518 0.420178
v 0.424698 0.415398 -0.419853
v 0.424373 0.415433 0.420147
v -0.424373 -0.415433 -0.420147
v -0.424698 -0.415398 0.419853
v -0.415253 0.424518 -0.420178
v -0.415578 0.424553 0.419822
v 1.259763 -0.013662 0.420488
v 1.566144 0.203818 0.188427
v 1.147657 0.344836 0.188260
v 0.884217 -0.009593 0.188173
v 1.139899 -0.369659 0.188286
v 1.561350 -0.237761 0.188444
v 1.379952 0.342300 -0.187311
v 0.958501 0.210401 -0.187469
v 0.953707 -0.231177 -0.187452
v 1.372194 -0.372196 -0.187284
v 1.635635 -0.017766 -0.187197
v 1.260088 -0.013697 -0.419512
vt 0.625000 0.500000
vt 0.875000 0.500000
vt 0.875000 0.750000
vt 0.625000 0.750000
vt 0.375000 0.750000
vt 0.625000 1.000000
vt 0.375000 1.000000
vt 0.375000 0.000000
vt 0.625000 0.000000
vt 0.625000 0.250000
vt 0.375000 0.250000
vt 0.125000 0.500000
vt 0.375000 0.500000
vt 0.125000 0.750000
vt 0.818181 0.000000
vt 0.727272 0.157461
vt 0.909090 0.157461
vt 0.636363 0.000000
vt 0.545454 0.157461
vt 0.090909 0.000000
vt 0.000000 0.157461
vt 0.181818 0.157461
vt 0.272727 0.000000
vt 0.363636 0.157461
vt 0.454545 0.000000
vt 0.636363 0.314921
vt 0.818181 0.314921
vt 0.090909 0.314921
vt 0.272727 0.314921
vt 0.454545 0.314921
vt 1.000000 0.314921
vt 0.727272 0.472382
vt 0.909090 0.472382
vt 0.181818 0.472382
vt 0.363636 0.472382
vt 0.545454 0.472382
vn 0.0004 -0.0000 -1.0000
vn 0.0109 0.9999 -0.0000
vn -0.9999 0.0109 -0.0004
vn -0.0004 0.0000 1.0000
vn 0.9999 -0.0109 0.0004
vn -0.0109 -0.9999 0.0000
vn 0.1935 0.5753 0.7947
vn 0.6067 -0.0066 0.7949
vn -0.4875 0.3622 0.7944
vn -0.4953 -0.3514 0.7945
vn 0.1810 -0.5793 0.7947
vn 0.9821 -0.0107 0.1880
vn 0.3136 0.9308 0.1877
vn -0.7884 0.5860 0.1873
vn -0.8009 -0.5687 0.1873
vn 0.2933 -0.9374 0.1877
vn 0.8009 0.5687 -0.1873
vn -0.2933 0.9374 -0.1877
vn -0.9821 0.0107 -0.1880
vn -0.3136 -0.9308 -0.1877
vn 0.7884 -0.5860 -0.1873
vn 0.4953 0.3514 -0.7945
vn -0.1810 0.5793 -0.7947
vn -0.6067 0.0066 -0.7949
vn -0.1935 -0.5753 -0.7947
vn 0.4875 -0.3622 -0.7944
usemtl MARSNULL
s off
f 1/1/1 5/2/1 7/3/1 3/4/1
f 4/5/2 3/4/2 7/6/2 8/7/2
f 8/8/3 7/9/3 5/10/3 6/11/3
f 6/12/4 2/13/4 4/5/4 8/14/4
f 2/13/5 1/1/5 3/4/5 4/5/5
f 6/11/6 5/10/6 1/1/6 2/13/6
f 9/15/7 10/16/7 11/17/7
f 10/16/8 9/18/8 14/19/8
f 9/20/9 11/21/9 12/22/9
f 9/23/10 12/22/10 13/24/10
f 9/25/11 13/24/11 14/19/11
f 10/16/12 14/19/12 19/26/12
f 11/17/13 10/16/13 15/27/13
f 12/22/14 11/21/14 16/28/14
f 13/24/15 12/22/15 17/29/15
f 14/19/16 13/24/16 18/30/16
f 10/16/17 19/26/17 15/27/17
f 11/17/18 15/27/18 16/31/18
f 12/22/19 16/28/19 17/29/19
f 13/24/20 17/29/20 18/30/20
f 14/19/21 18/30/21 19/26/21
f 15/27/22 19/26/22 20/32/22
f 16/31/23 15/27/23 20/33/23
f 17/29/24 16/28/24 20/34/24
f 18/30/25 17/29/25 20/35/25
f 19/26/26 18/30/26 20/36/26
