# Blender v2.91.0 OBJ File: 'marscity.blend'
# www.blender.org
mtllib cube.mtl
o world_Grid.001
v -0.116461 -0.060729 -0.113846
v -0.116461 -0.060729 -0.621658
v 0.105761 -0.060729 -0.621658
v -0.116461 -0.060729 -0.843880
v 0.105761 -0.060729 -0.843880
v -0.116461 -0.060729 -0.843881
v 0.105761 -0.060729 -0.843881
v -0.116461 -0.060729 -1.066103
v 0.105761 -0.060729 -1.066103
v -0.116461 -0.060729 -1.288325
v 0.105761 -0.060729 -1.288325
v -0.116461 -0.060729 -1.288325
v 0.105761 -0.060729 -1.288325
v -0.116461 -0.060729 -1.510547
v 0.105761 -0.060729 -1.510547
v -0.116461 -0.060729 -1.732769
v 0.105761 -0.060729 -1.732769
v -0.116461 -0.060729 -1.732769
v 0.105761 -0.060729 -1.732769
v -0.116461 -0.060729 -1.954992
v 0.105761 -0.060729 -1.954992
v -0.116461 -0.060729 -2.177214
v 0.105761 -0.060729 -2.177214
v -0.116461 -0.060729 -2.177214
v 0.105761 -0.060729 -2.177214
v -0.116461 -0.060729 -2.399436
v 0.105761 -0.060729 -2.399436
v -0.116461 -0.060729 -2.621658
v 0.105761 -0.060729 -2.621658
v -0.116461 -0.060729 -2.621658
v 0.105761 -0.060729 -2.621658
v -0.116461 -0.060729 -2.843881
v 0.105761 -0.060729 -2.843881
v -0.116461 -0.060729 -3.066103
v 0.105761 -0.060729 -3.066103
v -0.116461 -0.060729 -3.066103
v 0.105761 -0.060729 -3.066103
v -0.116461 -0.060729 -3.288325
v 0.105761 -0.060729 -3.288325
v -0.116461 -0.060729 -3.510547
v 0.105761 -0.060729 -3.510547
v -0.116461 -0.060729 -3.510547
v 0.105761 -0.060729 -3.510547
v -0.116461 -0.060729 -3.732769
v 0.105761 -0.060729 -3.732769
v -0.116461 -0.060729 -3.954992
v 0.105761 -0.060729 -3.954992
v -0.116461 -0.060729 -3.954992
v 0.105761 -0.060729 -3.954992
v -0.116461 -0.060729 -4.177214
v 0.105761 -0.060729 -4.177214
v -0.116461 -0.060729 -4.399436
v 0.105761 -0.060729 -4.399436
v -0.116461 -0.060729 -4.399436
v 0.105761 -0.060729 -4.399436
v -0.116461 -0.060729 -4.621658
v 0.105761 -0.060729 -4.621658
v -0.116461 -0.060729 -4.843881
v 0.105761 -0.060729 -4.843881
v 0.100809 0.009921 -1.512109
v 0.451800 0.009921 -1.512109
v 0.100809 0.128598 -1.512109
v 0.451800 0.128598 -1.512109
v 0.191572 0.009921 -1.512109
v 0.172944 0.009921 -1.512109
v 0.191572 -0.062303 -1.512109
v 0.172944 -0.062303 -1.512109
v -0.180216 0.022002 -1.118824
v -0.180216 -0.054616 -1.118824
v -0.126820 0.022002 -1.118824
v -0.126820 -0.054616 -1.118824
v 0.381593 0.009921 -1.512109
v 0.360303 0.009921 -1.512109
v 0.381593 -0.062303 -1.512109
v 0.360303 -0.062303 -1.512109
v -0.473677 0.007199 -2.278806
v -0.126544 0.007199 -2.278806
v -0.473677 0.214559 -2.278806
v -0.126544 0.214559 -2.278806
v -0.383911 0.007199 -2.278806
v -0.402335 0.007199 -2.278806
v -0.383911 -0.064231 -2.278806
v -0.402335 -0.064231 -2.278806
v -0.197294 0.007199 -2.278806
v -0.215718 0.007199 -2.278806
v -0.197294 -0.064231 -2.278806
v -0.215718 -0.064231 -2.278806
v 0.100775 0.081661 -4.131216
v 0.598012 0.081661 -4.131216
v 0.100775 0.255341 -4.131216
v 0.598012 0.255341 -4.131216
v 0.235012 0.081661 -4.131216
v 0.197311 0.081661 -4.131216
v 0.235012 -0.058943 -4.131216
v 0.197311 -0.058943 -4.131216
v 0.502323 0.081661 -4.131216
v 0.464622 0.081661 -4.131216
v 0.502323 -0.058943 -4.131216
v 0.464622 -0.058943 -4.131216
v -0.183217 0.015707 -3.159197
v 0.005353 0.015707 -3.159197
v -0.183217 0.256783 -3.159197
v 0.005353 0.256783 -3.159197
v 0.121259 -0.024367 -2.364085
v 0.185905 -0.024367 -2.364085
v 0.121259 0.037251 -2.364085
v 0.185905 0.037251 -2.364085
v 0.155394 -0.024367 -2.364085
v 0.149253 -0.024367 -2.364085
v 0.155394 -0.060370 -2.364085
v 0.149253 -0.060370 -2.364085
v 0.070320 0.154136 -4.730612
v -0.041451 0.154136 -4.730612
v 0.070320 -0.062536 -4.730612
v -0.041451 -0.062536 -4.730612
v 0.105761 -0.060729 -0.113846
vt 0.891526 0.064453
vt 0.891349 0.277360
vt 0.786107 0.277344
vt 0.784236 0.064453
vt 0.995959 0.064453
vt 0.996945 0.277344
vt 0.891349 0.277360
vt 0.891526 0.064453
vt 0.786107 0.277344
vt 0.784236 0.064453
vt 0.995959 0.064453
vt 0.996945 0.277344
vt 0.891349 0.277360
vt 0.891526 0.064453
vt 0.786107 0.277344
vt 0.784236 0.064453
vt 0.995959 0.064453
vt 0.996945 0.277344
vt 0.891349 0.277360
vt 0.891526 0.064453
vt 0.786107 0.277344
vt 0.784236 0.064453
vt 0.995959 0.064453
vt 0.996945 0.277344
vt 0.891349 0.277360
vt 0.891526 0.064453
vt 0.786107 0.277344
vt 0.784236 0.064453
vt 0.995959 0.064453
vt 0.996945 0.277344
vt 0.891349 0.277360
vt 0.891526 0.064453
vt 0.786107 0.277344
vt 0.784236 0.064453
vt 0.995959 0.064453
vt 0.996945 0.277344
vt 0.891349 0.277360
vt 0.891526 0.064453
vt 0.786107 0.277344
vt 0.784236 0.064453
vt 0.995959 0.064453
vt 0.996945 0.277344
vt 0.891349 0.277360
vt 0.891526 0.064453
vt 0.786107 0.277344
vt 0.784236 0.064453
vt 0.995959 0.064453
vt 0.996945 0.277344
vt 0.891349 0.277360
vt 0.891526 0.064453
vt 0.786107 0.277344
vt 0.784236 0.064453
vt 0.995959 0.064453
vt 0.996945 0.277344
vt 0.891349 0.277360
vt 0.891526 0.064453
vt 0.786107 0.277344
vt 0.784236 0.064453
vt 0.465025 0.832031
vt 0.711330 0.830078
vt 0.711610 0.999533
vt 0.465025 1.000000
vt -0.000000 1.000000
vt -0.000000 0.888672
vt 0.031527 0.888672
vt 0.031527 1.000000
vt 0.299507 0.136719
vt 0.693596 0.136719
vt 0.693596 0.671875
vt 0.299507 0.671875
vt 0.711330 0.843750
vt 1.000000 0.843750
vt 1.000000 1.000000
vt 0.711330 1.000000
vt 0.000000 0.101562
vt 0.297537 0.101562
vt 0.299507 0.878906
vt 0.001970 0.878906
vt 0.299420 0.682010
vt 0.463790 0.682010
vt 0.464578 0.992947
vt 0.300209 0.992947
vt 0.891626 0.064453
vt 0.767488 0.064453
vt 0.767488 0.277344
vt 0.000000 0.000000
vt 1.000000 0.000000
vt 1.000000 1.000000
vt 0.000000 1.000000
vt 0.000000 0.000000
vt 1.000000 0.000000
vt 1.000000 1.000000
vt 0.000000 1.000000
vt 0.000000 0.000000
vt 1.000000 0.000000
vt 1.000000 1.000000
vt 0.000000 1.000000
vt 0.000000 0.000000
vt 1.000000 0.000000
vt 1.000000 1.000000
vt 0.000000 1.000000
vt 0.000000 0.000000
vt 1.000000 0.000000
vt 1.000000 1.000000
vt 0.000000 1.000000
vt 0.000000 0.000000
vt 1.000000 0.000000
vt 1.000000 1.000000
vt 0.000000 1.000000
vt 0.000000 0.000000
vt 1.000000 0.000000
vt 1.000000 1.000000
vt 0.000000 1.000000
vt 0.000000 0.000000
vt 1.000000 0.000000
vt 1.000000 1.000000
vt 0.000000 1.000000
vn 0.0000 1.0000 0.0000
vn 0.0000 0.0000 1.0000
usemtl marscity
s off
f 2/1/1 3/2/1 5/3/1 4/4/1
f 6/5/1 7/6/1 9/7/1 8/8/1
f 8/8/1 9/7/1 11/9/1 10/10/1
f 12/11/1 13/12/1 15/13/1 14/14/1
f 14/14/1 15/13/1 17/15/1 16/16/1
f 18/17/1 19/18/1 21/19/1 20/20/1
f 20/20/1 21/19/1 23/21/1 22/22/1
f 24/23/1 25/24/1 27/25/1 26/26/1
f 26/26/1 27/25/1 29/27/1 28/28/1
f 30/29/1 31/30/1 33/31/1 32/32/1
f 32/32/1 33/31/1 35/33/1 34/34/1
f 36/35/1 37/36/1 39/37/1 38/38/1
f 38/38/1 39/37/1 41/39/1 40/40/1
f 42/41/1 43/42/1 45/43/1 44/44/1
f 44/44/1 45/43/1 47/45/1 46/46/1
f 48/47/1 49/48/1 51/49/1 50/50/1
f 50/50/1 51/49/1 53/51/1 52/52/1
f 54/53/1 55/54/1 57/55/1 56/56/1
f 56/56/1 57/55/1 59/57/1 58/58/1
f 60/59/2 61/60/2 63/61/2 62/62/2
f 68/63/2 69/64/2 71/65/2 70/66/2
f 76/67/2 77/68/2 79/69/2 78/70/2
f 88/71/2 89/72/2 91/73/2 90/74/2
f 100/75/2 101/76/2 103/77/2 102/78/2
f 104/79/2 105/80/2 107/81/2 106/82/2
f 3/2/1 2/83/1 1/84/1 116/85/1
usemtl MARSINDX_176
f 67/86/2 66/87/2 64/88/2 65/89/2
f 75/90/2 74/91/2 72/92/2 73/93/2
f 83/94/2 82/95/2 80/96/2 81/97/2
f 87/98/2 86/99/2 84/100/2 85/101/2
f 95/102/2 94/103/2 92/104/2 93/105/2
f 99/106/2 98/107/2 96/108/2 97/109/2
f 111/110/2 110/111/2 108/112/2 109/113/2
usemtl MARSINDX_1
f 115/114/2 114/115/2 112/116/2 113/117/2
