# Blender v2.82 (sub 7) OBJ File: 'texture.blend'
# www.blender.org
mtllib cube.mtl
o Plane.001
v -2.054606 -0.193654 0.117831
v -1.010054 -0.193654 0.117831
v -2.054606 0.538428 0.117831
v -1.010054 0.538428 0.117831
vt 0.001061 0.000087
vt 1.000931 0.000087
vt 1.000931 0.999913
vt 0.000087 0.999913
vn 0.0000 0.0000 1.0000
usemtl MagicalOjam
s off
f 1/1/1 2/2/1 4/3/1 3/4/1
o Plane.002
v 0.388135 0.242001 -0.305438
v 1.740407 -0.270423 -0.166409
v 0.750763 1.193184 -0.326753
v 2.103035 0.680760 -0.187724
vt 0.001061 0.000087
vt 1.000931 0.000087
vt 1.000931 0.999913
vt 0.000087 0.999913
vn -0.0820 0.0536 0.9952
usemtl MagicalOjam
s off
f 5/5/2 6/6/2 8/7/2 7/8/2
o Plane.003
v -1.124814 0.653057 0.179784
v -0.362597 0.653057 -0.534438
v -1.124814 1.385139 0.179784
v -0.362597 1.385139 -0.534438
vt 0.001061 0.000087
vt 1.000931 0.000087
vt 1.000931 0.999913
vt 0.000087 0.999913
vn 0.6838 0.0000 0.7297
usemtl MagicalOjam
s off
f 9/9/3 10/10/3 12/11/3 11/12/3
