# Blender v2.91.0 OBJ File: 'marscity.blend'
# www.blender.org
mtllib cube.mtl
o Cube
v 0.422759 0.417222 0.420000
v 0.422759 0.417222 -0.420000
v 0.417222 -0.422759 0.420000
v 0.417222 -0.422759 -0.420000
v -0.417222 0.422759 0.420000
v -0.417222 0.422759 -0.420000
v -0.422759 -0.417222 0.420000
v -0.422759 -0.417222 -0.420000
v 1.259973 -0.008306 -0.420000
v 1.562423 -0.231106 -0.187830
v 1.141539 -0.364801 -0.187830
v 0.884322 -0.005829 -0.187830
v 1.146248 0.349721 -0.187830
v 1.565333 0.210489 -0.187830
v 1.373697 -0.366332 0.187830
v 0.954612 -0.227100 0.187830
v 0.957523 0.214495 0.187830
v 1.378407 0.348190 0.187830
v 1.635623 -0.010782 0.187830
v 1.259973 -0.008306 0.420000
vt 0.625000 0.500000
vt 0.875000 0.500000
vt 0.875000 0.750000
vt 0.625000 0.750000
vt 0.375000 0.750000
vt 0.625000 1.000000
vt 0.375000 1.000000
vt 0.375000 0.000000
vt 0.625000 0.000000
vt 0.625000 0.250000
vt 0.375000 0.250000
vt 0.125000 0.500000
vt 0.375000 0.500000
vt 0.125000 0.750000
vt 0.818181 0.000000
vt 0.727272 0.157461
vt 0.909090 0.157461
vt 0.636363 0.000000
vt 0.545454 0.157461
vt 0.090909 0.000000
vt 0.000000 0.157461
vt 0.181818 0.157461
vt 0.272727 0.000000
vt 0.363636 0.157461
vt 0.454545 0.000000
vt 0.636363 0.314921
vt 0.818181 0.314921
vt 0.090909 0.314921
vt 0.272727 0.314921
vt 0.454545 0.314921
vt 1.000000 0.314921
vt 0.727272 0.472382
vt 0.909090 0.472382
vt 0.181818 0.472382
vt 0.363636 0.472382
vt 0.545454 0.472382
vn -0.0000 0.0000 1.0000
vn -0.0066 -1.0000 0.0000
vn -1.0000 0.0066 -0.0000
vn -0.0000 -0.0000 -1.0000
vn 1.0000 -0.0066 0.0000
vn 0.0066 1.0000 -0.0000
vn 0.1838 -0.5786 -0.7947
vn 0.6071 -0.0040 -0.7947
vn -0.4935 -0.3536 -0.7947
vn -0.4888 0.3601 -0.7947
vn 0.1914 0.5761 -0.7947
vn 0.9822 -0.0065 -0.1876
vn 0.2974 -0.9362 -0.1876
vn -0.7984 -0.5721 -0.1876
vn -0.7908 0.5826 -0.1876
vn 0.3097 0.9322 -0.1876
vn 0.7908 -0.5826 0.1876
vn -0.3097 -0.9322 0.1876
vn -0.9822 0.0065 0.1876
vn -0.2974 0.9362 0.1876
vn 0.7984 0.5721 0.1876
vn 0.4888 -0.3601 0.7947
vn -0.1914 -0.5761 0.7947
vn -0.6071 0.0040 0.7947
vn -0.1838 0.5786 0.7947
vn 0.4935 0.3536 0.7947
usemtl MARSNULL
s off
f 1/1/1 5/2/1 7/3/1 3/4/1
f 4/5/2 3/4/2 7/6/2 8/7/2
f 8/8/3 7/9/3 5/10/3 6/11/3
f 6/12/4 2/13/4 4/5/4 8/14/4
f 2/13/5 1/1/5 3/4/5 4/5/5
f 6/11/6 5/10/6 1/1/6 2/13/6
f 9/15/7 10/16/7 11/17/7
f 10/16/8 9/18/8 14/19/8
f 9/20/9 11/21/9 12/22/9
f 9/23/10 12/22/10 13/24/10
f 9/25/11 13/24/11 14/19/11
f 10/16/12 14/19/12 19/26/12
f 11/17/13 10/16/13 15/27/13
f 12/22/14 11/21/14 16/28/14
f 13/24/15 12/22/15 17/29/15
f 14/19/16 13/24/16 18/30/16
f 10/16/17 19/26/17 15/27/17
f 11/17/18 15/27/18 16/31/18
f 12/22/19 16/28/19 17/29/19
f 13/24/20 17/29/20 18/30/20
f 14/19/21 18/30/21 19/26/21
f 15/27/22 19/26/22 20/32/22
f 16/31/23 15/27/23 20/33/23
f 17/29/24 16/28/24 20/34/24
f 18/30/25 17/29/25 20/35/25
f 19/26/26 18/30/26 20/36/26
