# Blender v2.82 (sub 7) OBJ File: ''
# www.blender.org
mtllib cube.mtl
o Cube_Cube.001
v 0.047149 0.267837 0.024194
v 0.047149 -0.315224 0.024194
v 1.036480 0.267837 0.024194
v 1.036480 -0.315224 0.024194
v -0.290708 0.750742 -0.703176
v -0.290708 0.167680 -0.703176
v 0.698622 0.750742 -0.703176
v 0.698622 0.167680 -0.703176
v -0.602149 0.929595 0.688386
v -0.602149 0.346534 0.688386
v 0.387182 0.929595 0.688386
v 0.387182 0.346534 0.688386
v 1.280118 0.905969 0.688386
v 1.280118 0.322907 0.688386
v 2.269448 0.905969 0.688386
v 2.269448 0.322907 0.688386
v -1.633851 0.149912 0.688386
v -1.633851 -0.433149 0.688386
v -0.644520 0.149912 0.688386
v -0.644520 -0.433149 0.688386
v -2.665553 1.031978 0.688386
v -2.665553 0.448917 0.688386
v -1.676223 1.031978 0.688386
v -1.676223 0.448917 0.688386
v 1.741194 0.073441 -0.703176
v 1.741194 -0.509620 -0.703176
v 2.730525 0.073441 -0.703176
v 2.730525 -0.509620 -0.703176
v 0.000689 -0.548731 -0.703176
v 0.000689 -1.131792 -0.703176
v 0.990019 -0.548731 -0.703176
v 0.990019 -1.131792 -0.703176
v -1.227903 0.089192 -0.703176
v -1.227903 -0.493869 -0.703176
v -0.238573 0.089192 -0.703176
v -0.238573 -0.493869 -0.703176
v 0.264026 -0.602185 0.942528
v 0.264026 0.087144 0.942528
v -0.425302 -0.602185 0.942528
v -0.425302 0.087144 0.942528
v 0.264026 -0.602185 0.253199
v 0.264026 0.087144 0.253199
v -0.425302 -0.602185 0.253199
v -0.425302 0.087144 0.253199
v 0.343848 -0.475057 -1.036787
v 0.343848 0.214272 -1.036787
v -0.345481 -0.475057 -1.036787
v -0.345481 0.214272 -1.036787
v 0.343848 -0.475057 -1.726115
v 0.343848 0.214272 -1.726115
v -0.345481 -0.475057 -1.726115
v -0.345481 0.214272 -1.726115
v -0.825734 0.519240 0.177928
v -0.825734 1.208568 0.177928
v -1.515062 0.519240 0.177928
v -1.515062 1.208568 0.177928
v -0.825734 0.519240 -0.511401
v -0.825734 1.208568 -0.511401
v -1.515062 0.519240 -0.511401
v -1.515062 1.208568 -0.511401
vt 0.000000 0.000000
vt 1.000000 0.000000
vt 1.000000 1.000000
vt 0.000000 1.000000
vt 0.000000 0.000000
vt 1.000000 0.000000
vt 1.000000 1.000000
vt 0.000000 1.000000
vt 0.000000 0.000000
vt 1.000000 0.000000
vt 1.000000 1.000000
vt 0.000000 1.000000
vt 0.000000 0.000000
vt 1.000000 0.000000
vt 1.000000 1.000000
vt 0.000000 1.000000
vt 0.000000 0.000000
vt 1.000000 0.000000
vt 1.000000 1.000000
vt 0.000000 1.000000
vt 0.000000 0.000000
vt 1.000000 0.000000
vt 1.000000 1.000000
vt 0.000000 1.000000
vt 0.000000 0.000000
vt 1.000000 0.000000
vt 1.000000 1.000000
vt 0.000000 1.000000
vt 0.000000 0.000000
vt 1.000000 0.000000
vt 1.000000 1.000000
vt 0.000000 1.000000
vt 0.000000 0.000000
vt 1.000000 0.000000
vt 1.000000 1.000000
vt 0.000000 1.000000
vt 0.375000 0.000000
vt 0.625000 0.000000
vt 0.625000 0.250000
vt 0.375000 0.250000
vt 0.625000 0.500000
vt 0.375000 0.500000
vt 0.625000 0.750000
vt 0.375000 0.750000
vt 0.625000 1.000000
vt 0.375000 1.000000
vt 0.125000 0.500000
vt 0.125000 0.750000
vt 0.875000 0.500000
vt 0.875000 0.750000
vt 0.375000 0.000000
vt 0.625000 0.000000
vt 0.625000 0.250000
vt 0.375000 0.250000
vt 0.625000 0.500000
vt 0.375000 0.500000
vt 0.625000 0.750000
vt 0.375000 0.750000
vt 0.625000 1.000000
vt 0.375000 1.000000
vt 0.125000 0.500000
vt 0.125000 0.750000
vt 0.875000 0.500000
vt 0.875000 0.750000
vt 0.375000 0.000000
vt 0.625000 0.000000
vt 0.625000 0.250000
vt 0.375000 0.250000
vt 0.625000 0.500000
vt 0.375000 0.500000
vt 0.625000 0.750000
vt 0.375000 0.750000
vt 0.625000 1.000000
vt 0.375000 1.000000
vt 0.125000 0.500000
vt 0.125000 0.750000
vt 0.875000 0.500000
vt 0.875000 0.750000
vn -0.0000 0.0000 1.0000
vn -1.0000 0.0000 -0.0000
vn 0.0000 0.0000 -1.0000
vn 1.0000 0.0000 0.0000
vn 0.0000 -1.0000 0.0000
vn 0.0000 1.0000 0.0000
usemtl MARSNULL
s off
f 4/1/1 3/2/1 1/3/1 2/4/1
f 8/5/1 7/6/1 5/7/1 6/8/1
f 12/9/1 11/10/1 9/11/1 10/12/1
f 16/13/1 15/14/1 13/15/1 14/16/1
f 20/17/1 19/18/1 17/19/1 18/20/1
f 24/21/1 23/22/1 21/23/1 22/24/1
f 28/25/1 27/26/1 25/27/1 26/28/1
f 32/29/1 31/30/1 29/31/1 30/32/1
f 36/33/1 35/34/1 33/35/1 34/36/1
f 37/37/1 38/38/1 40/39/1 39/40/1
f 39/40/2 40/39/2 44/41/2 43/42/2
f 43/42/3 44/41/3 42/43/3 41/44/3
f 41/44/4 42/43/4 38/45/4 37/46/4
f 39/47/5 43/42/5 41/44/5 37/48/5
f 44/41/6 40/49/6 38/50/6 42/43/6
f 45/51/1 46/52/1 48/53/1 47/54/1
f 47/54/2 48/53/2 52/55/2 51/56/2
f 51/56/3 52/55/3 50/57/3 49/58/3
f 49/58/4 50/57/4 46/59/4 45/60/4
f 47/61/5 51/56/5 49/58/5 45/62/5
f 52/55/6 48/63/6 46/64/6 50/57/6
f 53/65/1 54/66/1 56/67/1 55/68/1
f 55/68/2 56/67/2 60/69/2 59/70/2
f 59/70/3 60/69/3 58/71/3 57/72/3
f 57/72/4 58/71/4 54/73/4 53/74/4
f 55/75/5 59/70/5 57/72/5 53/76/5
f 60/69/6 56/77/6 54/78/6 58/71/6
